<svg xmlns="http://www.w3.org/2000/svg" width="36.72" height="36.72" viewBox="0 0 36.72 36.72">
  <g id="Group_2" data-name="Group 2" transform="translate(-1241 -608)">
    <circle id="Ellipse_1" data-name="Ellipse 1" cx="18.36" cy="18.36" r="18.36" transform="translate(1241 608)" fill="#f8412e"/>
    <path id="Path_1" data-name="Path 1" d="M.016,8.813h0S.077,7.3,2.406,4.206A12.821,12.821,0,0,1,3.746,2.7,9.355,9.355,0,0,1,9.77.016" transform="translate(1256.393 631.123) rotate(-16)" fill="none" stroke="#fff" stroke-linecap="round" stroke-width="1"/>
    <path id="Path_2" data-name="Path 2" d="M.078,12.178a24.517,24.517,0,0,1,2.49-6.6C3.731,3.519,5.883.265,8.631.061" transform="translate(1258.045 625.344) rotate(94)" fill="none" stroke="#fff" stroke-linecap="round" stroke-width="1"/>
    <g id="Path_9" data-name="Path 9" transform="matrix(0.985, -0.174, 0.174, 0.985, 1255.346, 622.957)" fill="none">
      <path d="M2.377.3a1.066,1.066,0,0,1,1.41.022L5.9,2.259a.857.857,0,0,1,.022,1.288L3.875,5.415a1.066,1.066,0,0,1-1.41-.022L.352,3.46A.857.857,0,0,1,.329,2.172Z" stroke="none"/>
      <path d="M 3.059975147247314 1.048288345336914 C 3.052392721176147 1.048288345336914 3.046551704406738 1.049176692962646 3.04289722442627 1.050009250640869 L 1.118024349212646 2.805766582489014 L 3.139345169067383 4.655028343200684 C 3.147705316543579 4.662678241729736 3.167555093765259 4.670908451080322 3.191375255584717 4.670908451080322 C 3.198968172073364 4.670908451080322 3.204814195632935 4.670017719268799 3.208467721939087 4.66918420791626 L 5.133321285247803 2.91342568397522 L 3.112005233764648 1.064168453216553 C 3.103645086288452 1.0565185546875 3.083795309066772 1.048288345336914 3.059975147247314 1.048288345336914 M 3.059971570968628 0.04828596115112305 C 3.320847749710083 0.04828596115112305 3.584748506546021 0.1413121223449707 3.787005186080933 0.3263483047485352 L 5.899744987487793 2.259248495101929 C 6.29532527923584 2.621138334274292 6.30525541305542 3.197958469390869 5.921935081481934 3.547608375549316 L 3.874655246734619 5.415038585662842 C 3.491335391998291 5.764688491821289 2.859925270080566 5.754748344421387 2.464345216751099 5.392848491668701 L 0.3516054153442383 3.459948301315308 C -0.04397487640380859 3.098048448562622 -0.05390501022338867 2.521238327026367 0.3294053077697754 2.17158842086792 L 2.376695156097412 0.3041582107543945 C 2.564026832580566 0.1332817077636719 2.810617923736572 0.04828596115112305 3.059971570968628 0.04828596115112305 Z" stroke="none" fill="#fff"/>
    </g>
    <g id="Path_8" data-name="Path 8" transform="matrix(0.875, 0.485, -0.485, 0.875, 1246.3, 626.688)" fill="none">
      <path d="M1.575.4A1.006,1.006,0,0,1,3.27.334L4.632,2.683a1,1,0,0,1-.906,1.428L.8,4.228A.869.869,0,0,1,.012,2.867Z" stroke="none"/>
      <path d="M 2.448643684387207 0.9109485149383545 C 2.438517570495605 0.9160892963409424 2.428056478500366 0.9241943359375 2.419955015182495 0.9369714260101318 L 0.9723598957061768 3.22001051902771 L 3.686275005340576 3.112081527709961 C 3.699613094329834 3.111549854278564 3.710638046264648 3.108014106750488 3.719552040100098 3.103295803070068 L 2.448643684387207 0.9109485149383545 M 2.483938217163086 -0.09795045852661133 C 2.798779249191284 -0.09795045852661133 3.102190256118774 0.04441595077514648 3.270114898681641 0.3340914249420166 L 4.631714820861816 2.682881355285645 C 4.982375144958496 3.287781476974487 4.479205131530762 4.08134126663208 3.726004838943481 4.111291408538818 L 0.8013548851013184 4.227601528167725 C 0.04814958572387695 4.257551670074463 -0.390164852142334 3.501431465148926 0.0123748779296875 2.866581439971924 L 1.575414896011353 0.4014813899993896 C 1.785185813903809 0.07064962387084961 2.141328811645508 -0.09795045852661133 2.483938217163086 -0.09795045852661133 Z" stroke="none" fill="#fff"/>
    </g>
    <g id="Path_5" data-name="Path 5" transform="matrix(0.985, -0.174, 0.174, 0.985, 1260.516, 613.311)" fill="none">
      <path d="M4.222.436a1.055,1.055,0,0,1,1.6.025l1.2,1.47a1.043,1.043,0,0,0,.493.331l1.883.6a.9.9,0,0,1,.52,1.4L8.8,5.713a.834.834,0,0,0-.177.52l.016,1.8a.953.953,0,0,1-1.283.841L5.46,8.3a1.088,1.088,0,0,0-.6-.009l-1.873.515a1.02,1.02,0,0,1-1.313-.882l-.046-1.8a.886.886,0,0,0-.2-.526L.257,4.112A.864.864,0,0,1,.729,2.726l1.863-.541a.955.955,0,0,0,.481-.316Z" stroke="none"/>
      <path d="M 5.0002760887146 1.078814506530762 C 4.995339870452881 1.078814506530762 4.991093158721924 1.079166412353516 4.987655639648438 1.079639434814453 L 3.854536056518555 2.494254112243652 C 3.605095863342285 2.805694103240967 3.265135765075684 3.030734062194824 2.871376037597656 3.145044326782227 L 1.160269737243652 3.64174222946167 L 2.215685844421387 4.977364063262939 C 2.473596096038818 5.303744316101074 2.615406036376953 5.691164016723633 2.625775814056396 6.097774505615234 L 2.670277118682861 7.842280864715576 C 2.68379545211792 7.847312450408936 2.702194690704346 7.850066184997559 2.720145702362061 7.845124244689941 L 4.593276023864746 7.330344200134277 C 4.968466281890869 7.22722339630127 5.374636173248291 7.233087539672852 5.750586032867432 7.347134590148926 L 7.634379386901855 7.91871166229248 L 7.619396209716797 6.242264270782471 C 7.615725994110107 5.832464218139648 7.753005981445312 5.42704439163208 8.005955696105957 5.100674629211426 L 9.021049499511719 3.790928840637207 L 7.213095664978027 3.21498441696167 C 6.830585956573486 3.093144416809082 6.497165679931641 2.86769437789917 6.248866081237793 2.563004493713379 L 5.051146030426025 1.093254089355469 C 5.04779577255249 1.089144229888916 5.027745723724365 1.078814506530762 5.0002760887146 1.078814506530762 M 5.000277996063232 0.07881832122802734 C 5.307479381561279 0.07881832122802734 5.618885040283203 0.2069463729858398 5.826355934143066 0.4615440368652344 L 7.024065971374512 1.931284427642822 C 7.148675918579102 2.084194183349609 7.320695877075195 2.199754238128662 7.516615867614746 2.262164115905762 L 9.399715423583984 2.862044334411621 C 10.03977584838867 3.065944194793701 10.30137634277344 3.771384239196777 9.919586181640625 4.263994216918945 L 8.796356201171875 5.713264465332031 C 8.679495811462402 5.864044189453125 8.61767578125 6.045674324035645 8.619356155395508 6.233314514160156 L 8.635476112365723 8.036893844604492 C 8.640945434570312 8.649924278259277 7.995186805725098 9.073204040527344 7.35213565826416 8.878094673156738 L 5.460236072540283 8.304054260253906 C 5.263406753540039 8.24433422088623 5.053176403045654 8.241024017333984 4.858295917510986 8.294584274291992 L 2.985146045684814 8.80937385559082 C 2.348475933074951 8.984354019165039 1.687775611877441 8.54051399230957 1.672125816345215 7.927324295043945 L 1.626106262207031 6.123274326324463 C 1.621315956115723 5.93558406829834 1.553205490112305 5.751904487609863 1.431085586547852 5.59736442565918 L 0.2573060989379883 4.111954212188721 C -0.1416645050048828 3.607064247131348 0.09576606750488281 2.909464359283447 0.7291460037231445 2.72560453414917 L 2.592606067657471 2.184684276580811 C 2.786476135253906 2.128404140472412 2.954616069793701 2.018204212188721 3.074016094207764 1.869124412536621 L 4.221725940704346 0.4362945556640625 C 4.413013935089111 0.1974859237670898 4.704701900482178 0.07881832122802734 5.000277996063232 0.07881832122802734 Z" stroke="none" fill="#fff"/>
    </g>
    <g id="Path_7" data-name="Path 7" transform="matrix(0.985, -0.174, 0.174, 0.985, 1245.411, 614.497)" fill="none">
      <path d="M4.222.436a1.055,1.055,0,0,1,1.6.025l1.2,1.47a1.043,1.043,0,0,0,.493.331l1.883.6a.9.9,0,0,1,.52,1.4L8.8,5.713a.834.834,0,0,0-.177.52l.016,1.8a.953.953,0,0,1-1.283.841L5.46,8.3a1.088,1.088,0,0,0-.6-.009l-1.873.515a1.02,1.02,0,0,1-1.313-.882l-.046-1.8a.886.886,0,0,0-.2-.526L.257,4.112A.864.864,0,0,1,.729,2.726l1.863-.541a.955.955,0,0,0,.481-.316Z" stroke="none"/>
      <path d="M 5.0002760887146 1.078814506530762 C 4.995339870452881 1.078814506530762 4.991093158721924 1.079166412353516 4.987655639648438 1.079639434814453 L 3.85451602935791 2.494284152984619 C 3.605065822601318 2.805714130401611 3.265105724334717 3.030744075775146 2.871376037597656 3.145044326782227 L 1.160269737243652 3.64174222946167 L 2.215685844421387 4.977364063262939 C 2.473596096038818 5.303744316101074 2.615406036376953 5.691164016723633 2.625775814056396 6.097774505615234 L 2.670277118682861 7.842280864715576 C 2.68379545211792 7.847312450408936 2.702194690704346 7.850066184997559 2.720145702362061 7.845124244689941 L 4.593276023864746 7.330344200134277 C 4.968466281890869 7.22722339630127 5.374636173248291 7.233087539672852 5.750586032867432 7.347134590148926 L 7.634370803833008 7.918708801269531 L 7.619396209716797 6.242264270782471 C 7.615725994110107 5.832464218139648 7.753005981445312 5.42704439163208 8.005955696105957 5.100674629211426 L 9.021049499511719 3.790928840637207 L 7.213095664978027 3.21498441696167 C 6.830585956573486 3.093144416809082 6.497165679931641 2.86769437789917 6.248866081237793 2.563004493713379 L 5.051146030426025 1.093254089355469 C 5.04779577255249 1.089144229888916 5.027745723724365 1.078814506530762 5.0002760887146 1.078814506530762 M 5.000277996063232 0.07881832122802734 C 5.307479381561279 0.07881832122802734 5.618885040283203 0.2069463729858398 5.826355934143066 0.4615440368652344 L 7.024065971374512 1.931284427642822 C 7.148675918579102 2.084194183349609 7.320695877075195 2.199754238128662 7.516615867614746 2.262164115905762 L 9.399715423583984 2.862044334411621 C 10.03977584838867 3.065944194793701 10.30137634277344 3.771384239196777 9.919586181640625 4.263994216918945 L 8.796356201171875 5.713264465332031 C 8.679495811462402 5.864044189453125 8.61767578125 6.045674324035645 8.619356155395508 6.233314514160156 L 8.635465621948242 8.036893844604492 C 8.640946388244629 8.649924278259277 7.995186328887939 9.073204040527344 7.35213565826416 8.878094673156738 L 5.460236072540283 8.304054260253906 C 5.263406753540039 8.24433422088623 5.053176403045654 8.241024017333984 4.858295917510986 8.294584274291992 L 2.985146045684814 8.80937385559082 C 2.348475933074951 8.984354019165039 1.687775611877441 8.54051399230957 1.672125816345215 7.927324295043945 L 1.626106262207031 6.123274326324463 C 1.621315956115723 5.93558406829834 1.553205490112305 5.751904487609863 1.431085586547852 5.59736442565918 L 0.2573060989379883 4.111954212188721 C -0.1416645050048828 3.607064247131348 0.09576606750488281 2.909464359283447 0.7291460037231445 2.72560453414917 L 2.592606067657471 2.184684276580811 C 2.786476135253906 2.128404140472412 2.954606056213379 2.018204212188721 3.074016094207764 1.869124412536621 L 4.221725940704346 0.4362945556640625 C 4.413013935089111 0.1974859237670898 4.704701900482178 0.07881832122802734 5.000277996063232 0.07881832122802734 Z" stroke="none" fill="#fff"/>
    </g>
    <g id="Path_10" data-name="Path 10" transform="translate(1265 630.72)" fill="none">
      <path d="M2.5,0A2.5,2.5,0,1,1,0,2.5,2.5,2.5,0,0,1,2.5,0Z" stroke="none"/>
      <path d="M 2.5 1 C 1.672899961471558 1 1 1.672899961471558 1 2.5 C 1 3.327100038528442 1.672899961471558 4 2.5 4 C 3.327100038528442 4 4 3.327100038528442 4 2.5 C 4 1.672899961471558 3.327100038528442 1 2.5 1 M 2.5 0 C 3.880710124969482 0 5 1.119290113449097 5 2.5 C 5 3.880710124969482 3.880710124969482 5 2.5 5 C 1.119290113449097 5 0 3.880710124969482 0 2.5 C 0 1.119290113449097 1.119290113449097 0 2.5 0 Z" stroke="none" fill="#fff"/>
    </g>
  </g>
</svg>
