<svg id="圖層_1" data-name="圖層 1" xmlns="http://www.w3.org/2000/svg" viewBox="0 0 1429 45">
  <defs>
    <style>
      .cls-1 {
        fill: none;
        stroke: #f8412e;
        stroke-linecap: round;
        stroke-linejoin: round;
        stroke-width: 1.8px;
      }

      .cls-2 {
        fill: #f8412e;
      }
    </style>
  </defs>
  <g>
    <g>
      <line class="cls-1" x1="1.43" y1="31.32" x2="8.44" y2="23.87"/>
      <line class="cls-1" x1="8.4" y1="31.32" x2="15.41" y2="23.87"/>
      <line class="cls-1" x1="15.37" y1="31.32" x2="22.38" y2="23.87"/>
      <line class="cls-1" x1="22.35" y1="31.32" x2="29.36" y2="23.87"/>
      <line class="cls-1" x1="29.32" y1="31.32" x2="36.33" y2="23.87"/>
      <line class="cls-1" x1="36.29" y1="31.32" x2="43.3" y2="23.87"/>
      <line class="cls-1" x1="43.27" y1="31.32" x2="50.28" y2="23.87"/>
      <line class="cls-1" x1="50.24" y1="31.32" x2="57.25" y2="23.87"/>
      <line class="cls-1" x1="57.21" y1="31.32" x2="64.22" y2="23.87"/>
      <line class="cls-1" x1="64.18" y1="31.32" x2="71.2" y2="23.87"/>
      <line class="cls-1" x1="71.16" y1="31.32" x2="78.17" y2="23.87"/>
      <line class="cls-1" x1="78.13" y1="31.32" x2="85.14" y2="23.87"/>
      <line class="cls-1" x1="85.1" y1="31.32" x2="92.11" y2="23.87"/>
      <line class="cls-1" x1="92.08" y1="31.32" x2="99.09" y2="23.87"/>
      <line class="cls-1" x1="99.05" y1="31.32" x2="106.06" y2="23.87"/>
      <line class="cls-1" x1="106.02" y1="31.32" x2="113.03" y2="23.87"/>
      <line class="cls-1" x1="113" y1="31.32" x2="120.01" y2="23.87"/>
      <line class="cls-1" x1="119.97" y1="31.32" x2="126.98" y2="23.87"/>
      <line class="cls-1" x1="126.94" y1="31.32" x2="133.95" y2="23.87"/>
      <line class="cls-1" x1="133.92" y1="31.32" x2="140.93" y2="23.87"/>
      <line class="cls-1" x1="140.89" y1="31.32" x2="147.9" y2="23.87"/>
      <line class="cls-1" x1="147.86" y1="31.32" x2="154.87" y2="23.87"/>
      <line class="cls-1" x1="154.84" y1="31.32" x2="161.85" y2="23.87"/>
      <line class="cls-1" x1="161.81" y1="31.32" x2="168.82" y2="23.87"/>
      <line class="cls-1" x1="168.78" y1="31.32" x2="175.79" y2="23.87"/>
      <line class="cls-1" x1="175.76" y1="31.32" x2="182.77" y2="23.87"/>
      <line class="cls-1" x1="182.73" y1="31.32" x2="189.74" y2="23.87"/>
      <line class="cls-1" x1="189.7" y1="31.32" x2="196.71" y2="23.87"/>
      <line class="cls-1" x1="196.68" y1="31.32" x2="203.69" y2="23.87"/>
      <line class="cls-1" x1="203.65" y1="31.32" x2="210.66" y2="23.87"/>
      <line class="cls-1" x1="210.62" y1="31.32" x2="217.63" y2="23.87"/>
      <line class="cls-1" x1="217.59" y1="31.32" x2="224.61" y2="23.87"/>
      <line class="cls-1" x1="224.57" y1="31.32" x2="231.58" y2="23.87"/>
      <line class="cls-1" x1="231.54" y1="31.32" x2="238.55" y2="23.87"/>
      <line class="cls-1" x1="238.51" y1="31.32" x2="245.52" y2="23.87"/>
      <line class="cls-1" x1="245.49" y1="31.32" x2="252.5" y2="23.87"/>
      <line class="cls-1" x1="252.46" y1="31.32" x2="259.47" y2="23.87"/>
      <line class="cls-1" x1="259.43" y1="31.32" x2="266.44" y2="23.87"/>
      <line class="cls-1" x1="266.41" y1="31.32" x2="273.42" y2="23.87"/>
      <line class="cls-1" x1="273.38" y1="31.32" x2="280.39" y2="23.87"/>
      <line class="cls-1" x1="280.35" y1="31.32" x2="287.36" y2="23.87"/>
      <line class="cls-1" x1="287.33" y1="31.32" x2="294.34" y2="23.87"/>
      <line class="cls-1" x1="294.3" y1="31.32" x2="301.31" y2="23.87"/>
      <line class="cls-1" x1="301.27" y1="31.32" x2="308.28" y2="23.87"/>
      <line class="cls-1" x1="308.25" y1="31.32" x2="315.26" y2="23.87"/>
      <line class="cls-1" x1="315.22" y1="31.32" x2="322.23" y2="23.87"/>
      <line class="cls-1" x1="322.19" y1="31.32" x2="329.2" y2="23.87"/>
      <line class="cls-1" x1="329.17" y1="31.32" x2="336.18" y2="23.87"/>
      <line class="cls-1" x1="336.14" y1="31.32" x2="343.15" y2="23.87"/>
      <line class="cls-1" x1="343.11" y1="31.32" x2="350.12" y2="23.87"/>
      <line class="cls-1" x1="350.09" y1="31.32" x2="357.1" y2="23.87"/>
      <line class="cls-1" x1="357.06" y1="31.32" x2="364.07" y2="23.87"/>
      <line class="cls-1" x1="364.03" y1="31.32" x2="371.04" y2="23.87"/>
      <line class="cls-1" x1="371" y1="31.32" x2="378.01" y2="23.87"/>
      <line class="cls-1" x1="377.98" y1="31.32" x2="384.99" y2="23.87"/>
      <line class="cls-1" x1="384.95" y1="31.32" x2="391.96" y2="23.87"/>
      <line class="cls-1" x1="391.92" y1="31.32" x2="398.93" y2="23.87"/>
      <line class="cls-1" x1="398.9" y1="31.32" x2="405.91" y2="23.87"/>
      <line class="cls-1" x1="405.87" y1="31.32" x2="412.88" y2="23.87"/>
      <line class="cls-1" x1="412.84" y1="31.32" x2="419.85" y2="23.87"/>
      <line class="cls-1" x1="419.82" y1="31.32" x2="426.83" y2="23.87"/>
      <line class="cls-1" x1="426.79" y1="31.32" x2="433.8" y2="23.87"/>
      <line class="cls-1" x1="433.76" y1="31.32" x2="440.77" y2="23.87"/>
      <line class="cls-1" x1="440.74" y1="31.32" x2="447.75" y2="23.87"/>
      <line class="cls-1" x1="447.71" y1="31.32" x2="454.72" y2="23.87"/>
      <line class="cls-1" x1="454.68" y1="31.32" x2="461.69" y2="23.87"/>
      <line class="cls-1" x1="461.66" y1="31.32" x2="468.67" y2="23.87"/>
      <line class="cls-1" x1="468.63" y1="31.32" x2="475.64" y2="23.87"/>
      <line class="cls-1" x1="475.6" y1="31.32" x2="482.61" y2="23.87"/>
      <line class="cls-1" x1="482.58" y1="31.32" x2="489.59" y2="23.87"/>
      <line class="cls-1" x1="489.55" y1="31.32" x2="496.56" y2="23.87"/>
      <line class="cls-1" x1="496.52" y1="31.32" x2="503.53" y2="23.87"/>
      <line class="cls-1" x1="503.5" y1="31.32" x2="510.51" y2="23.87"/>
      <line class="cls-1" x1="510.47" y1="31.32" x2="517.48" y2="23.87"/>
      <line class="cls-1" x1="517.44" y1="31.32" x2="524.45" y2="23.87"/>
      <line class="cls-1" x1="524.41" y1="31.32" x2="531.42" y2="23.87"/>
      <line class="cls-1" x1="531.39" y1="31.32" x2="538.4" y2="23.87"/>
      <line class="cls-1" x1="538.36" y1="31.32" x2="545.37" y2="23.87"/>
      <line class="cls-1" x1="545.33" y1="31.32" x2="552.34" y2="23.87"/>
      <line class="cls-1" x1="552.31" y1="31.32" x2="559.32" y2="23.87"/>
      <line class="cls-1" x1="559.28" y1="31.32" x2="566.29" y2="23.87"/>
      <line class="cls-1" x1="566.25" y1="31.32" x2="573.26" y2="23.87"/>
      <line class="cls-1" x1="573.23" y1="31.32" x2="580.24" y2="23.87"/>
      <line class="cls-1" x1="580.2" y1="31.32" x2="587.21" y2="23.87"/>
      <line class="cls-1" x1="587.17" y1="31.32" x2="594.18" y2="23.87"/>
      <line class="cls-1" x1="594.15" y1="31.32" x2="601.16" y2="23.87"/>
      <line class="cls-1" x1="601.12" y1="31.32" x2="608.13" y2="23.87"/>
      <line class="cls-1" x1="608.09" y1="31.32" x2="615.1" y2="23.87"/>
      <line class="cls-1" x1="615.07" y1="31.32" x2="622.08" y2="23.87"/>
      <line class="cls-1" x1="622.04" y1="31.32" x2="629.05" y2="23.87"/>
      <line class="cls-1" x1="629.01" y1="31.32" x2="636.02" y2="23.87"/>
      <line class="cls-1" x1="635.99" y1="31.32" x2="643" y2="23.87"/>
      <line class="cls-1" x1="642.96" y1="31.32" x2="649.97" y2="23.87"/>
      <line class="cls-1" x1="649.93" y1="31.32" x2="656.94" y2="23.87"/>
      <line class="cls-1" x1="656.9" y1="31.32" x2="663.92" y2="23.87"/>
      <line class="cls-1" x1="663.88" y1="31.32" x2="670.89" y2="23.87"/>
      <line class="cls-1" x1="670.85" y1="31.32" x2="677.86" y2="23.87"/>
      <line class="cls-1" x1="677.82" y1="31.32" x2="684.83" y2="23.87"/>
    </g>
    <g>
      <line class="cls-1" x1="924.92" y1="31.32" x2="931.93" y2="23.87"/>
      <line class="cls-1" x1="931.9" y1="31.32" x2="938.91" y2="23.87"/>
      <line class="cls-1" x1="938.88" y1="31.32" x2="945.89" y2="23.87"/>
      <line class="cls-1" x1="945.86" y1="31.32" x2="952.87" y2="23.87"/>
      <line class="cls-1" x1="952.85" y1="31.32" x2="959.86" y2="23.87"/>
      <line class="cls-1" x1="959.83" y1="31.32" x2="966.84" y2="23.87"/>
      <line class="cls-1" x1="966.81" y1="31.32" x2="973.82" y2="23.87"/>
      <line class="cls-1" x1="973.79" y1="31.32" x2="980.8" y2="23.87"/>
      <line class="cls-1" x1="980.77" y1="31.32" x2="987.78" y2="23.87"/>
      <line class="cls-1" x1="987.75" y1="31.32" x2="994.76" y2="23.87"/>
      <line class="cls-1" x1="994.73" y1="31.32" x2="1001.74" y2="23.87"/>
      <line class="cls-1" x1="1001.71" y1="31.32" x2="1008.72" y2="23.87"/>
      <line class="cls-1" x1="1008.69" y1="31.32" x2="1015.7" y2="23.87"/>
      <line class="cls-1" x1="1015.67" y1="31.32" x2="1022.68" y2="23.87"/>
      <line class="cls-1" x1="1022.65" y1="31.32" x2="1029.66" y2="23.87"/>
      <line class="cls-1" x1="1029.64" y1="31.32" x2="1036.65" y2="23.87"/>
      <line class="cls-1" x1="1036.62" y1="31.32" x2="1043.63" y2="23.87"/>
      <line class="cls-1" x1="1043.6" y1="31.32" x2="1050.61" y2="23.87"/>
      <line class="cls-1" x1="1050.58" y1="31.32" x2="1057.59" y2="23.87"/>
      <line class="cls-1" x1="1057.56" y1="31.32" x2="1064.57" y2="23.87"/>
      <line class="cls-1" x1="1064.54" y1="31.32" x2="1071.55" y2="23.87"/>
      <line class="cls-1" x1="1071.52" y1="31.32" x2="1078.53" y2="23.87"/>
      <line class="cls-1" x1="1078.5" y1="31.32" x2="1085.51" y2="23.87"/>
      <line class="cls-1" x1="1085.48" y1="31.32" x2="1092.49" y2="23.87"/>
      <line class="cls-1" x1="1092.46" y1="31.32" x2="1099.47" y2="23.87"/>
      <line class="cls-1" x1="1099.44" y1="31.32" x2="1106.45" y2="23.87"/>
      <line class="cls-1" x1="1106.42" y1="31.32" x2="1113.43" y2="23.87"/>
      <line class="cls-1" x1="1113.41" y1="31.32" x2="1120.42" y2="23.87"/>
      <line class="cls-1" x1="1120.39" y1="31.32" x2="1127.4" y2="23.87"/>
      <line class="cls-1" x1="1127.37" y1="31.32" x2="1134.38" y2="23.87"/>
      <line class="cls-1" x1="1134.35" y1="31.32" x2="1141.36" y2="23.87"/>
      <line class="cls-1" x1="1141.33" y1="31.32" x2="1148.34" y2="23.87"/>
      <line class="cls-1" x1="1148.31" y1="31.32" x2="1155.32" y2="23.87"/>
      <line class="cls-1" x1="1155.29" y1="31.32" x2="1162.3" y2="23.87"/>
      <line class="cls-1" x1="1162.27" y1="31.32" x2="1169.28" y2="23.87"/>
      <line class="cls-1" x1="1169.25" y1="31.32" x2="1176.26" y2="23.87"/>
      <line class="cls-1" x1="1176.23" y1="31.32" x2="1183.24" y2="23.87"/>
      <line class="cls-1" x1="1183.21" y1="31.32" x2="1190.22" y2="23.87"/>
      <line class="cls-1" x1="1190.19" y1="31.32" x2="1197.21" y2="23.87"/>
      <line class="cls-1" x1="1197.18" y1="31.32" x2="1204.19" y2="23.87"/>
      <line class="cls-1" x1="1204.16" y1="31.32" x2="1211.17" y2="23.87"/>
      <line class="cls-1" x1="1211.14" y1="31.32" x2="1218.15" y2="23.87"/>
      <line class="cls-1" x1="1218.12" y1="31.32" x2="1225.13" y2="23.87"/>
      <line class="cls-1" x1="1225.1" y1="31.32" x2="1232.11" y2="23.87"/>
      <line class="cls-1" x1="1232.08" y1="31.32" x2="1239.09" y2="23.87"/>
      <line class="cls-1" x1="1239.06" y1="31.32" x2="1246.07" y2="23.87"/>
      <line class="cls-1" x1="1246.04" y1="31.32" x2="1253.05" y2="23.87"/>
      <line class="cls-1" x1="1253.02" y1="31.32" x2="1260.03" y2="23.87"/>
      <line class="cls-1" x1="1260" y1="31.32" x2="1267.01" y2="23.87"/>
      <line class="cls-1" x1="1266.98" y1="31.32" x2="1273.99" y2="23.87"/>
      <line class="cls-1" x1="1273.97" y1="31.32" x2="1280.98" y2="23.87"/>
      <line class="cls-1" x1="1280.95" y1="31.32" x2="1287.96" y2="23.87"/>
      <line class="cls-1" x1="1287.93" y1="31.32" x2="1294.94" y2="23.87"/>
      <line class="cls-1" x1="1294.91" y1="31.32" x2="1301.92" y2="23.87"/>
      <line class="cls-1" x1="1301.89" y1="31.32" x2="1308.9" y2="23.87"/>
      <line class="cls-1" x1="1308.87" y1="31.32" x2="1315.88" y2="23.87"/>
      <line class="cls-1" x1="1315.85" y1="31.32" x2="1322.86" y2="23.87"/>
      <line class="cls-1" x1="1322.83" y1="31.32" x2="1329.84" y2="23.87"/>
      <line class="cls-1" x1="1329.81" y1="31.32" x2="1336.82" y2="23.87"/>
      <line class="cls-1" x1="1336.79" y1="31.32" x2="1343.8" y2="23.87"/>
      <line class="cls-1" x1="1343.77" y1="31.32" x2="1350.78" y2="23.87"/>
      <line class="cls-1" x1="1350.75" y1="31.32" x2="1357.76" y2="23.87"/>
      <line class="cls-1" x1="1357.74" y1="31.32" x2="1364.75" y2="23.87"/>
      <line class="cls-1" x1="1364.72" y1="31.32" x2="1371.73" y2="23.87"/>
      <line class="cls-1" x1="1371.7" y1="31.32" x2="1378.71" y2="23.87"/>
      <line class="cls-1" x1="1378.68" y1="31.32" x2="1385.69" y2="23.87"/>
      <line class="cls-1" x1="1385.66" y1="31.32" x2="1392.67" y2="23.87"/>
      <line class="cls-1" x1="1392.64" y1="31.32" x2="1399.65" y2="23.87"/>
      <line class="cls-1" x1="1399.62" y1="31.32" x2="1406.63" y2="23.87"/>
      <line class="cls-1" x1="1406.6" y1="31.32" x2="1413.61" y2="23.87"/>
      <line class="cls-1" x1="1413.58" y1="31.32" x2="1420.59" y2="23.87"/>
      <line class="cls-1" x1="1420.56" y1="31.32" x2="1427.57" y2="23.87"/>
    </g>
    <g>
      <path class="cls-2" d="M908.47.89c-.06,6.09.75,7.07,6.76,8.29-6.53,1.22-7.76,2.2-10.32,8.29.05-6.09-.76-7.07-6.76-8.29C904.68,8,905.91,7,908.47.89Z"/>
      <path class="cls-2" d="M881.13,29.44a.46.46,0,0,1-.37-.18.47.47,0,0,1,.07-.67l18.86-15.21a.48.48,0,0,1,.67.07.49.49,0,0,1-.07.68l-18.86,15.2A.43.43,0,0,1,881.13,29.44Z"/>
      <g>
        <path class="cls-2" d="M769.3,14.74a5.64,5.64,0,0,1,5-3.85h18.48c2.14,0,3.35,1.74,2.7,3.89L788.1,39.1A5.67,5.67,0,0,1,783.05,43H764.57c-2.11,0-3.31-1.72-2.67-3.85Zm22.56.54c.12-.39-.19-1.07-.59-1.07H773.8a1.92,1.92,0,0,0-1.27,1.07l-2.47,8.15a.74.74,0,0,0,.67.91H788.2a1.56,1.56,0,0,0,1.18-.91ZM765.46,38.6c-.12.4.19,1.07.62,1.07h17.47a1.93,1.93,0,0,0,1.24-1.07l3-10a.75.75,0,0,0-.63-.91H769.72a1.62,1.62,0,0,0-1.22.91Z"/>
        <path class="cls-2" d="M807.68,13.51a1.17,1.17,0,0,1-1.11-1.66,2.33,2.33,0,0,1,2.11-1.62h5.57a2.06,2.06,0,0,1,2,2.89l-1.71,5.65a4.2,4.2,0,0,1-3.72,2.88h-2.46a1.31,1.31,0,0,0-1.1.75l-1.29,2.85a.5.5,0,0,0,.44.75h3c1.54,0,2.37,1.3,1.81,2.88L807,40.62a4.49,4.49,0,0,1-3.94,2.85h-3.92A1.15,1.15,0,0,1,798,41.85a2.35,2.35,0,0,1,2.11-1.62h2.94a1.27,1.27,0,0,0,1.07-.79L807.59,30a.52.52,0,0,0-.48-.75H803.7c-1.5,0-2.23-1.34-1.54-2.85l2.36-5.17a4.91,4.91,0,0,1,4.17-2.85h1.95a1.14,1.14,0,0,0,1-.75l1-3.36a.56.56,0,0,0-.56-.75Zm22.65,28.73a1.78,1.78,0,0,1-1.65,1.54,1.41,1.41,0,0,1-1.52-1.5v-.16a.38.38,0,0,0-.47-.39l-16.44.91a1,1,0,0,1-1.13-1.47,2.47,2.47,0,0,1,2.09-1.69l6.33-.36a1.17,1.17,0,0,0,1-.79l1.14-3.76c.13-.43-.21-.5-.64-.5h-4.21a2,2,0,0,1-2-2.84l1.49-4.89a4.17,4.17,0,0,1,3.71-2.88h4.21a1.13,1.13,0,0,0,1-.75l.64-2.12a.53.53,0,0,0-.57-.72l-5,.08c-1.31,0-1.77-1.3-.86-2.49l5.1-5.65a4,4,0,0,1,3-1.58c.83,0,1.09.83.51,1.58L822.23,16c-.25.32-.12.67.13.67l8.86-.16a.77.77,0,0,0,.78-.71l0-.95a1.74,1.74,0,0,1,1.63-1.58,1.62,1.62,0,0,1,1.73,1.58l.21,4.23A1.61,1.61,0,0,1,834,20.66h-.75a.83.83,0,0,1-.88-.86c0-.12-.14-.2-.25-.2l-4,.08a1.15,1.15,0,0,0-1,.79l-.68,2.24a.55.55,0,0,0,.56.75h4.14a2.05,2.05,0,0,1,2,2.88l-1.49,4.89a4.13,4.13,0,0,1-3.7,2.84h-4.14c-.43,0-.81.07-.94.5l-1.06,3.52a.54.54,0,0,0,.56.75l4.44-.23a.77.77,0,0,0,.67-.64l0-.59a1.85,1.85,0,0,1,1.7-1.58,1.43,1.43,0,0,1,1.5,1.58Zm-14.2-11.92a.55.55,0,0,0,.52.75H820a1.15,1.15,0,0,0,1-.75l.94-3.11a.57.57,0,0,0-.55-.79h-3.34a1.15,1.15,0,0,0-1,.79Zm13.71-3.11a.56.56,0,0,0-.51-.79h-3.24a1.16,1.16,0,0,0-1,.79l-1,3.11a.56.56,0,0,0,.56.75h3.23a1.13,1.13,0,0,0,1-.75Z"/>
        <g>
          <path class="cls-2" d="M754.91,28.67a2.27,2.27,0,0,1-2.11,1.62H750a1.37,1.37,0,0,0-1.13.87l-1.74,5.21a.47.47,0,0,0,.41.59h.2c1,0,1.41.67,1.13,1.62a2.29,2.29,0,0,1-2.14,1.7h-.27a1,1,0,0,0-.77.59l-.58,1.66a2.27,2.27,0,0,1-2.18,1.58,1.12,1.12,0,0,1-1.14-1.58l.47-1.42a.61.61,0,0,0-.57-.83H721.4c-1.5,0-2.27-1.23-1.62-2.85l2.73-6.27a.6.6,0,0,0-.48-.87h-1.82a1.14,1.14,0,0,1-1.12-1.62,2.33,2.33,0,0,1,2.11-1.62h2.17a1.43,1.43,0,0,0,1.15-.83l2.69-6a4.45,4.45,0,0,1,4-2.77h19.3a1.93,1.93,0,0,1,2,2.77l-2,6a.61.61,0,0,0,.57.83h2.72A1.14,1.14,0,0,1,754.91,28.67ZM742.8,36.88a1.14,1.14,0,0,0,1-.75l1.67-5c.13-.44-.08-.79-.51-.79H727a1.27,1.27,0,0,0-1.07.79l-2.13,5c-.16.4,0,.75.44.75ZM746.08,27a1.1,1.1,0,0,0,1-.75l1.52-4.62a.51.51,0,0,0-.52-.75h-17a1.23,1.23,0,0,0-1.06.75L728,26.22a.5.5,0,0,0,.48.75Z"/>
          <path class="cls-2" d="M731.48,11.12c-.17.24-.07.47.16.47h23.65a1.17,1.17,0,0,1,1.13,1.62,2.35,2.35,0,0,1-2.11,1.62H729.37a1.76,1.76,0,0,0-1.32.71l-1,1.31A4.13,4.13,0,0,1,724,18.51c-.86,0-1.1-.87-.46-1.66l4.6-5.93a4.13,4.13,0,0,1,3.05-1.66c.83,0,1.06.87.42,1.66Z"/>
          <path class="cls-2" d="M740.58,24.13c.45.6-.19,1.67-1.09,1.84a3.3,3.3,0,0,1-3.3-1l-.85-1.06c-.45-.6.19-1.7,1.14-1.88a3.16,3.16,0,0,1,3.25,1.08Z"/>
          <path class="cls-2" d="M737.65,34.3c.5.56-.1,1.66-1,1.83a3.78,3.78,0,0,1-3.55-1l-.85-1c-.55-.55.27-3.24,1.17-3.4,1.48-.27,2.63,1.67,3.42,2.56Z"/>
        </g>
        <g>
          <path class="cls-2" d="M881.71,11.53H865.39a2.42,2.42,0,0,0-2.29,2.23,1.21,1.21,0,0,0,1.31,1.17h6.73a.57.57,0,0,1,.56.8l-7.25,23.89a1.07,1.07,0,0,1-1,.74h-1.62A2.42,2.42,0,0,0,859.72,42h0a1.18,1.18,0,0,0,1.15,1.64h2.9a4.17,4.17,0,0,0,3.72-2.85l7.6-25.07a1.17,1.17,0,0,1,1-.8h4.5a2.53,2.53,0,0,0,2-1.17C883.35,12.65,882.84,11.53,881.71,11.53Z"/>
          <path class="cls-2" d="M856.4,18.85h2.42a2.48,2.48,0,0,0,2.23-1.74,1.23,1.23,0,0,0-1.18-1.7h-2.43a.56.56,0,0,1-.56-.75L858,10.91a1.25,1.25,0,0,0-1.19-1.75,2.54,2.54,0,0,0-2.23,1.7l-1.15,3.8a1.1,1.1,0,0,1-1,.75h-2.1a2.52,2.52,0,0,0-2.22,1.7,1.23,1.23,0,0,0,1.17,1.74h2.11a.53.53,0,0,1,.52.75l-2,6.66a1.73,1.73,0,0,1-1,1.07l-2.39.79a4,4,0,0,0-2.44,2.45c-.27.91.42,1.5,1.34,1.18L847.8,31c.39-.12.67.12.55.52l-2.49,8.22a1,1,0,0,1-.86.66h-1.79A2.42,2.42,0,0,0,841.06,42h0a1.18,1.18,0,0,0,1.15,1.64h3A4.23,4.23,0,0,0,849,40.76l3.21-10.59a1.82,1.82,0,0,1,1-1.06l1.81-.64A3.94,3.94,0,0,0,857.47,26c.27-.87-.45-1.5-1.33-1.18l-1.81.63c-.36.12-.68-.12-.56-.51l1.6-5.28A1.16,1.16,0,0,1,856.4,18.85Z"/>
        </g>
      </g>
    </g>
  </g>
</svg>
