<svg id="圖層_1" data-name="圖層 1" xmlns="http://www.w3.org/2000/svg" viewBox="0 0 206 59">
  <defs>
    <style>
      .cls-1 {
        fill: #f8412e;
      }

      .cls-2 {
        fill: #fff;
      }
    </style>
  </defs>
  <g>
    <rect class="cls-1" x="0.5" y="0.5" width="205" height="58" rx="5.35"/>
    <g>
      <path class="cls-2" d="M91.78,34.35H88.4v4.2c0,1.26-.31,1.87-1.21,2.21a16.91,16.91,0,0,1-4.87.36,7.63,7.63,0,0,0-.76-2c1.85,0,3.64,0,4.12,0s.67-.14.67-.59v-4.2H71.48v6.8h-2v-6.8h-3.3V32.42h3.3V21.86h8.34V19.17H67.17v-2H90.75v2H79.86v2.69H88.4V32.42h3.38ZM71.48,23.76v3.39h6.3V23.76Zm0,8.66h6.3V29h-6.3Zm8.38-8.66v3.39h6.49V23.76Zm6.49,8.66V29H79.86v3.45Z"/>
      <path class="cls-2" d="M105.31,37.71a37.73,37.73,0,0,1-8.65,3.44,15.1,15.1,0,0,0-1.54-1.57,32.15,32.15,0,0,0,8.31-2.74ZM118.5,16.82V23H97V16.82Zm-1.6,7.78v12H98.64v-12Zm-18-3.24h4.53V18.44H98.9Zm1.79,6.77h14.08V26.06H100.69Zm0,3.47h14.08V29.53H100.69Zm0,3.53h14.08V33H100.69Zm4.53-13.77h4.68V18.44h-4.68Zm6.36,15.51c3.16,1,6.58,2.21,8.71,3.13l-2.19,1.12A63.67,63.67,0,0,0,110,38Zm.11-15.51h4.82V18.44h-4.82Z"/>
      <path class="cls-2" d="M149.1,26.9v2.27H123.68V26.9Z"/>
      <path class="cls-2" d="M161.31,33.42h-8.79v-2h8.79Zm-.84-11.5h-7.34v-2h7.34Zm8.29,3.78c0,.42,0,.84,0,1.23,1.29,5.91,4.06,10.39,9.15,12.15a9.13,9.13,0,0,0-1.37,1.82c-4.2-1.71-6.8-5-8.4-9.55-1,3.42-3.27,7-8.62,9.8a9.61,9.61,0,0,0-1.57-1.62c8-4.06,8.65-9.89,8.65-13.89V23.51h2.19Zm-4.48-3.36a27.78,27.78,0,0,1-2.94,5.88A11.77,11.77,0,0,0,159.29,27c2.13-2.72,3.67-7.08,4.51-11.51L166,16A42.35,42.35,0,0,1,165,20.29h10.13l.4-.11L177,21a42.54,42.54,0,0,1-2.94,7.59c-.45-.25-1.24-.67-1.74-.9a33.37,33.37,0,0,0,2.07-5.34Z"/>
    </g>
    <path class="cls-2" d="M51.5,26.07a2.7,2.7,0,0,0-2.68-2.72H42.54a15.59,15.59,0,0,0,.33-3.17c0-4.26-2.89-6.53-5-6.53l-.32,0a2.61,2.61,0,0,0-2.25,2.59v4.46L33,24a1.71,1.71,0,0,0-.92-.27H27.3a1.8,1.8,0,0,0-1.8,1.79V37.7a1.81,1.81,0,0,0,1.8,1.8h4.75a1.56,1.56,0,0,0,.57-.11H48.31A2.7,2.7,0,0,0,51,36.67C51,36.28,51.5,27,51.5,26.07Zm-2.43,10.6a.79.79,0,0,1-.76.81H33.84V26.11l3.23-4.52a1,1,0,0,0,.18-.56V16.26a.67.67,0,0,1,.57-.68h.08c1,0,3.05,1.39,3.05,4.61A14.12,14.12,0,0,1,40.4,24a.94.94,0,0,0,.15.84,1,1,0,0,0,.77.39h7.5a.78.78,0,0,1,.76.8C49.58,26.52,49.07,36.22,49.07,36.67Zm-21.65.91V25.68h4.47l0,11.85a.49.49,0,0,0-.16,0Z"/>
  </g>
</svg>
