<svg id="圖層_1" data-name="圖層 1" xmlns="http://www.w3.org/2000/svg" viewBox="0 0 41.5 41.5">
  <defs>
    <style>
      .cls-1 {
        fill: #ff8028;
      }

      .cls-2 {
        fill: #fff;
      }
    </style>
  </defs>
  <g>
    <path class="cls-1" d="M41,20.75A20.25,20.25,0,1,1,20.75.5,20.25,20.25,0,0,1,41,20.75Z"/>
    <g>
      <path class="cls-2" d="M21.86,24.4a4.77,4.77,0,0,1-3-1,1.2,1.2,0,0,1-.18-1.67,1.19,1.19,0,0,1,1.66-.18,2.41,2.41,0,0,0,3.21-.18l4.24-4.24a2.41,2.41,0,0,0-3.41-3.4l-1,1a1.17,1.17,0,0,1-1.67,0,1.18,1.18,0,0,1,0-1.67l1.05-1a4.77,4.77,0,0,1,6.75,6.74L25.24,23A4.76,4.76,0,0,1,21.86,24.4Z"/>
      <path class="cls-2" d="M15.39,30.87A4.77,4.77,0,0,1,12,22.73l4.24-4.24a4.76,4.76,0,0,1,6.35-.35A1.18,1.18,0,1,1,21.13,20a2.4,2.4,0,0,0-3.2.18L13.69,24.4a2.41,2.41,0,0,0,3.4,3.41l1.05-1a1.18,1.18,0,1,1,1.67,1.67l-1,1.05A4.75,4.75,0,0,1,15.39,30.87Z"/>
    </g>
  </g>
</svg>
