<svg id="圖層_1" data-name="圖層 1" xmlns="http://www.w3.org/2000/svg" viewBox="0 0 574 50">
  <defs>
    <style>
      .cls-1, .cls-2 {
        fill: #f8412e;
      }

      .cls-2, .cls-3 {
        stroke: #f8412e;
        stroke-linecap: round;
        stroke-linejoin: round;
      }

      .cls-2 {
        stroke-width: 0.9px;
      }

      .cls-3 {
        fill: none;
        stroke-width: 1.8px;
      }
    </style>
  </defs>
  <g>
    <path class="cls-1" d="M483.31.73c-.06,6.83.84,7.94,7.59,9.31-7.33,1.36-8.71,2.47-11.59,9.3.06-6.83-.84-7.94-7.59-9.3C479.05,8.67,480.43,7.56,483.31.73Z"/>
    <line class="cls-2" x1="452.6" y1="32.26" x2="473.78" y2="15.18"/>
    <g>
      <path class="cls-1" d="M327,16.28A6.33,6.33,0,0,1,332.61,12h20.76c2.4,0,3.76,2,3,4.37l-8.29,27.32A6.37,6.37,0,0,1,342.44,48H321.68c-2.38,0-3.72-1.93-3-4.32Zm25.34.61c.13-.44-.21-1.2-.66-1.2H332.05a2.15,2.15,0,0,0-1.43,1.2L327.84,26a.83.83,0,0,0,.76,1h19.62a1.76,1.76,0,0,0,1.33-1ZM322.68,43.08c-.14.45.21,1.2.7,1.2H343a2.17,2.17,0,0,0,1.39-1.2l3.41-11.26a.84.84,0,0,0-.71-1H327.47a1.84,1.84,0,0,0-1.38,1Z"/>
      <path class="cls-1" d="M370.1,14.9A1.31,1.31,0,0,1,368.85,13a2.63,2.63,0,0,1,2.37-1.82h6.27c1.77,0,2.74,1.46,2.2,3.24l-1.92,6.35a4.72,4.72,0,0,1-4.17,3.24h-2.77a1.46,1.46,0,0,0-1.23.84l-1.46,3.2a.56.56,0,0,0,.5.84h3.43c1.73,0,2.66,1.47,2,3.24l-4.75,13.18a5,5,0,0,1-4.42,3.2h-4.41a1.29,1.29,0,0,1-1.26-1.82,2.63,2.63,0,0,1,2.37-1.82h3.29a1.41,1.41,0,0,0,1.2-.89L370,33.41a.58.58,0,0,0-.54-.84h-3.83c-1.68,0-2.51-1.51-1.73-3.2l2.65-5.81a5.53,5.53,0,0,1,4.69-3.2h2.19a1.28,1.28,0,0,0,1.14-.84l1.15-3.77a.63.63,0,0,0-.63-.85Zm25.44,32.27a2,2,0,0,1-1.85,1.74A1.59,1.59,0,0,1,392,47.22V47a.42.42,0,0,0-.53-.44l-18.46,1A1.17,1.17,0,0,1,371.73,46a2.78,2.78,0,0,1,2.35-1.91l7.11-.4a1.28,1.28,0,0,0,1.15-.89l1.28-4.22c.15-.49-.23-.56-.71-.56h-4.73A2.28,2.28,0,0,1,376,34.8l1.66-5.49a4.72,4.72,0,0,1,4.17-3.24h4.73a1.25,1.25,0,0,0,1.15-.84l.72-2.38a.6.6,0,0,0-.65-.8l-5.61.09c-1.47,0-2-1.47-1-2.8L386.9,13a4.43,4.43,0,0,1,3.32-1.77c.94,0,1.23.93.57,1.77l-4.34,4.75c-.29.36-.14.76.15.76l9.94-.18a.87.87,0,0,0,.88-.8l0-1.06a1.94,1.94,0,0,1,1.82-1.78,1.82,1.82,0,0,1,2,1.78l.24,4.75a1.82,1.82,0,0,1-1.72,1.73h-.84a.94.94,0,0,1-1-1,.28.28,0,0,0-.29-.22l-4.48.09a1.28,1.28,0,0,0-1.15.89l-.77,2.51a.61.61,0,0,0,.63.84h4.65a2.31,2.31,0,0,1,2.21,3.24L397,34.8a4.65,4.65,0,0,1-4.16,3.2h-4.65c-.49,0-.91.07-1.06.56l-1.2,3.95a.62.62,0,0,0,.63.85l5-.27a.88.88,0,0,0,.75-.71l0-.67a2.1,2.1,0,0,1,1.91-1.77,1.6,1.6,0,0,1,1.68,1.77Zm-16-13.39a.62.62,0,0,0,.59.85h3.75a1.28,1.28,0,0,0,1.14-.85l1.06-3.49a.64.64,0,0,0-.62-.89h-3.75a1.3,1.3,0,0,0-1.11.89ZM395,30.29a.63.63,0,0,0-.57-.89h-3.63a1.31,1.31,0,0,0-1.16.89l-1.06,3.49a.63.63,0,0,0,.63.85h3.63a1.29,1.29,0,0,0,1.1-.85Z"/>
      <g>
        <path class="cls-1" d="M310.83,31.93a2.55,2.55,0,0,1-2.37,1.82h-3.14a1.55,1.55,0,0,0-1.28,1l-2,5.86a.52.52,0,0,0,.46.66h.23c1.06,0,1.58.76,1.26,1.82A2.56,2.56,0,0,1,301.65,45h-.32a1.13,1.13,0,0,0-.86.67l-.65,1.86a2.55,2.55,0,0,1-2.45,1.77,1.25,1.25,0,0,1-1.27-1.77l.52-1.6A.68.68,0,0,0,296,45H273.19c-1.68,0-2.55-1.37-1.82-3.19l3.07-7.06a.67.67,0,0,0-.55-1h-2a1.28,1.28,0,0,1-1.27-1.82A2.62,2.62,0,0,1,273,30.11h2.44a1.62,1.62,0,0,0,1.3-.94l3-6.73a5,5,0,0,1,4.49-3.11h21.67a2.17,2.17,0,0,1,2.21,3.11l-2.22,6.73a.69.69,0,0,0,.65.94h3.05A1.28,1.28,0,0,1,310.83,31.93Zm-13.61,9.22a1.28,1.28,0,0,0,1.14-.84l1.87-5.59c.15-.49-.08-.89-.57-.89H279.49a1.43,1.43,0,0,0-1.2.89l-2.4,5.59a.56.56,0,0,0,.5.84ZM300.91,30a1.25,1.25,0,0,0,1.14-.85l1.7-5.18a.57.57,0,0,0-.58-.84H284.11a1.34,1.34,0,0,0-1.19.84l-2.37,5.18a.57.57,0,0,0,.54.85Z"/>
        <path class="cls-1" d="M284.52,12.22c-.2.26-.09.53.18.53h26.56a1.31,1.31,0,0,1,1.26,1.82,2.63,2.63,0,0,1-2.37,1.82h-28a2,2,0,0,0-1.48.8l-1.09,1.46a4.66,4.66,0,0,1-3.42,1.87c-1,0-1.24-1-.52-1.87L280.8,12a4.63,4.63,0,0,1,3.42-1.86c.93,0,1.19,1,.47,1.86Z"/>
        <path class="cls-1" d="M294.73,26.83c.51.68-.21,1.88-1.22,2.06a3.69,3.69,0,0,1-3.71-1.16l-.95-1.19c-.51-.67.21-1.92,1.27-2.11a3.54,3.54,0,0,1,3.66,1.21Z"/>
        <path class="cls-1" d="M291.45,38.26c.56.62-.12,1.85-1.18,2.05a4.24,4.24,0,0,1-4-1.11l-1-1.11c-.61-.61.31-3.63,1.32-3.82,1.66-.3,3,1.89,3.83,2.88Z"/>
      </g>
      <g>
        <path class="cls-1" d="M453.26,12.68H434.92a2.72,2.72,0,0,0-2.57,2.5,1.35,1.35,0,0,0,1.47,1.31h7.57a.65.65,0,0,1,.62.9l-8.14,26.84a1.21,1.21,0,0,1-1.08.83H431a2.71,2.71,0,0,0-2.41,1.85h0a1.33,1.33,0,0,0,1.29,1.85h3.26a4.69,4.69,0,0,0,4.17-3.21l8.54-28.16a1.32,1.32,0,0,1,1.16-.9H452a2.81,2.81,0,0,0,2.27-1.31C455.1,13.94,454.53,12.68,453.26,12.68Z"/>
        <path class="cls-1" d="M424.83,20.9h2.72a2.8,2.8,0,0,0,2.5-2A1.38,1.38,0,0,0,428.72,17H426a.62.62,0,0,1-.63-.84L426.65,12a1.4,1.4,0,0,0-1.34-2,2.81,2.81,0,0,0-2.5,1.91l-1.3,4.26a1.21,1.21,0,0,1-1.09.84h-2.37a2.83,2.83,0,0,0-2.49,1.91,1.38,1.38,0,0,0,1.32,2h2.37a.6.6,0,0,1,.58.84l-2.27,7.48a1.92,1.92,0,0,1-1.16,1.2l-2.68.89A4.42,4.42,0,0,0,411,34.06c-.31,1,.46,1.69,1.5,1.33l2.68-.88c.44-.14.76.13.63.57L413,44.32a1.09,1.09,0,0,1-1,.74h-2a2.71,2.71,0,0,0-2.41,1.85h0a1.33,1.33,0,0,0,1.29,1.85h3.36a4.75,4.75,0,0,0,4.23-3.25l3.6-11.89a2.14,2.14,0,0,1,1.16-1.2l2-.71a4.47,4.47,0,0,0,2.75-2.8c.3-1-.51-1.68-1.5-1.33l-2,.71c-.4.13-.76-.13-.63-.58l1.8-5.93A1.31,1.31,0,0,1,424.83,20.9Z"/>
      </g>
    </g>
  </g>
  <g>
    <line class="cls-3" x1="1.66" y1="31.91" x2="7.85" y2="25.33"/>
    <line class="cls-3" x1="8.68" y1="31.91" x2="14.87" y2="25.33"/>
    <line class="cls-3" x1="15.69" y1="31.91" x2="21.89" y2="25.33"/>
    <line class="cls-3" x1="22.71" y1="31.91" x2="28.9" y2="25.33"/>
    <line class="cls-3" x1="29.73" y1="31.91" x2="35.92" y2="25.33"/>
    <line class="cls-3" x1="36.74" y1="31.91" x2="42.93" y2="25.33"/>
    <line class="cls-3" x1="43.76" y1="31.91" x2="49.95" y2="25.33"/>
    <line class="cls-3" x1="50.77" y1="31.91" x2="56.97" y2="25.33"/>
    <line class="cls-3" x1="57.79" y1="31.91" x2="63.98" y2="25.33"/>
    <line class="cls-3" x1="64.81" y1="31.91" x2="71" y2="25.33"/>
    <line class="cls-3" x1="71.82" y1="31.91" x2="78.02" y2="25.33"/>
    <line class="cls-3" x1="78.84" y1="31.91" x2="85.03" y2="25.33"/>
    <line class="cls-3" x1="85.86" y1="31.91" x2="92.05" y2="25.33"/>
    <line class="cls-3" x1="92.87" y1="31.91" x2="99.06" y2="25.33"/>
    <line class="cls-3" x1="99.89" y1="31.91" x2="106.08" y2="25.33"/>
    <line class="cls-3" x1="106.9" y1="31.91" x2="113.1" y2="25.33"/>
    <line class="cls-3" x1="113.92" y1="31.91" x2="120.11" y2="25.33"/>
    <line class="cls-3" x1="120.94" y1="31.91" x2="127.13" y2="25.33"/>
    <line class="cls-3" x1="127.95" y1="31.91" x2="134.15" y2="25.33"/>
    <line class="cls-3" x1="134.97" y1="31.91" x2="141.16" y2="25.33"/>
    <line class="cls-3" x1="141.99" y1="31.91" x2="148.18" y2="25.33"/>
    <line class="cls-3" x1="149" y1="31.91" x2="155.19" y2="25.33"/>
    <line class="cls-3" x1="156.02" y1="31.91" x2="162.21" y2="25.33"/>
    <line class="cls-3" x1="163.03" y1="31.91" x2="169.23" y2="25.33"/>
    <line class="cls-3" x1="170.05" y1="31.91" x2="176.24" y2="25.33"/>
    <line class="cls-3" x1="177.07" y1="31.91" x2="183.26" y2="25.33"/>
    <line class="cls-3" x1="184.08" y1="31.91" x2="190.27" y2="25.33"/>
    <line class="cls-3" x1="191.1" y1="31.91" x2="197.29" y2="25.33"/>
    <line class="cls-3" x1="198.12" y1="31.91" x2="204.31" y2="25.33"/>
    <line class="cls-3" x1="205.13" y1="31.91" x2="211.32" y2="25.33"/>
    <line class="cls-3" x1="212.15" y1="31.91" x2="218.34" y2="25.33"/>
    <line class="cls-3" x1="219.16" y1="31.91" x2="225.36" y2="25.33"/>
    <line class="cls-3" x1="226.18" y1="31.91" x2="232.37" y2="25.33"/>
    <line class="cls-3" x1="233.2" y1="31.91" x2="239.39" y2="25.33"/>
    <line class="cls-3" x1="240.21" y1="31.91" x2="246.4" y2="25.33"/>
    <line class="cls-3" x1="247.23" y1="31.91" x2="253.42" y2="25.33"/>
  </g>
  <g>
    <line class="cls-3" x1="487.22" y1="33.93" x2="493.41" y2="27.35"/>
    <line class="cls-3" x1="494.39" y1="33.93" x2="500.58" y2="27.35"/>
    <line class="cls-3" x1="501.57" y1="33.93" x2="507.76" y2="27.35"/>
    <line class="cls-3" x1="508.74" y1="33.93" x2="514.93" y2="27.35"/>
    <line class="cls-3" x1="515.92" y1="33.93" x2="522.11" y2="27.35"/>
    <line class="cls-3" x1="523.09" y1="33.93" x2="529.29" y2="27.35"/>
    <line class="cls-3" x1="530.27" y1="33.93" x2="536.46" y2="27.35"/>
    <line class="cls-3" x1="537.44" y1="33.93" x2="543.64" y2="27.35"/>
    <line class="cls-3" x1="544.62" y1="33.93" x2="550.81" y2="27.35"/>
    <line class="cls-3" x1="551.8" y1="33.93" x2="557.99" y2="27.35"/>
    <line class="cls-3" x1="558.97" y1="33.93" x2="565.16" y2="27.35"/>
    <line class="cls-3" x1="566.15" y1="33.93" x2="572.34" y2="27.35"/>
  </g>
</svg>
