<svg id="圖層_1" data-name="圖層 1" xmlns="http://www.w3.org/2000/svg" viewBox="0 0 214.32 74.5">
  <defs>
    <style>
      .cls-1 {
        font-size: 14px;
        font-family: CenturyGothic-Bold, Century Gothic;
        font-weight: 700;
        letter-spacing: 0.1em;
      }

      .cls-1, .cls-2 {
        fill: #f8412e;
      }

      .cls-3 {
        fill: none;
        stroke: #f8412e;
        stroke-linecap: round;
        stroke-linejoin: round;
      }
    </style>
  </defs>
  <g>
    <text class="cls-1" transform="matrix(1, 0, -0.3, 0.95, 14.56, 69.9)"><tspan xml:space="preserve">Today’s  Special</tspan></text>
    <g>
      <path class="cls-2" d="M206.47.5c-.05,6.6.82,7.67,7.35,9-7.1,1.32-8.43,2.39-11.21,9,0-6.6-.82-7.67-7.35-9C202.36,8.17,203.69,7.1,206.47.5Z"/>
      <line class="cls-3" x1="176.76" y1="30.96" x2="197.26" y2="14.46"/>
      <g>
        <path class="cls-2" d="M55.18,15.52a6.11,6.11,0,0,1,5.44-4.17H80.7c2.33,0,3.65,1.89,2.94,4.22L75.62,42a6.17,6.17,0,0,1-5.49,4.21H50c-2.3,0-3.6-1.86-2.9-4.17Zm24.52.59c.13-.43-.21-1.16-.64-1.16h-19a2.08,2.08,0,0,0-1.38,1.16L56,25a.79.79,0,0,0,.73,1h19A1.68,1.68,0,0,0,77,25ZM51,41.41c-.13.43.21,1.16.68,1.16h19A2.1,2.1,0,0,0,72,41.41l3.31-10.88a.82.82,0,0,0-.69-1h-19a1.77,1.77,0,0,0-1.33,1Z"/>
        <path class="cls-2" d="M96.9,14.19a1.27,1.27,0,0,1-1.21-1.8A2.56,2.56,0,0,1,98,10.63h6.06a2.23,2.23,0,0,1,2.14,3.13l-1.87,6.14a4.56,4.56,0,0,1-4,3.13H97.61a1.42,1.42,0,0,0-1.19.81L95,26.93a.54.54,0,0,0,.48.81h3.32c1.67,0,2.57,1.42,2,3.13l-4.6,12.74A4.9,4.9,0,0,1,91.9,46.7H87.63a1.25,1.25,0,0,1-1.22-1.76,2.53,2.53,0,0,1,2.29-1.76h3.19a1.37,1.37,0,0,0,1.16-.86l3.76-10.25a.56.56,0,0,0-.53-.81h-3.7c-1.63,0-2.43-1.46-1.68-3.09l2.56-5.62A5.37,5.37,0,0,1,98,19.47h2.12a1.25,1.25,0,0,0,1.11-.82L102.34,15a.61.61,0,0,0-.61-.82Zm24.62,31.18A1.91,1.91,0,0,1,119.73,47a1.53,1.53,0,0,1-1.65-1.63v-.17a.41.41,0,0,0-.51-.43l-17.87,1a1.13,1.13,0,0,1-1.23-1.59,2.72,2.72,0,0,1,2.27-1.85l6.88-.38a1.27,1.27,0,0,0,1.12-.86L110,37.05c.14-.47-.22-.54-.69-.54h-4.58a2.21,2.21,0,0,1-2.15-3.09l1.61-5.31a4.56,4.56,0,0,1,4-3.13h4.58a1.19,1.19,0,0,0,1.1-.81l.7-2.3a.57.57,0,0,0-.62-.77l-5.43.08c-1.43.05-1.93-1.41-.94-2.7l5.55-6.13a4.34,4.34,0,0,1,3.22-1.72c.9,0,1.18.9.55,1.72l-4.21,4.59c-.27.34-.13.73.15.73l9.62-.18a.83.83,0,0,0,.85-.77l0-1A1.89,1.89,0,0,1,125.08,14,1.75,1.75,0,0,1,127,15.69l.23,4.59A1.73,1.73,0,0,1,125.53,22h-.82a.91.91,0,0,1-.95-.94.26.26,0,0,0-.28-.21l-4.34.08a1.25,1.25,0,0,0-1.11.86l-.74,2.43a.59.59,0,0,0,.61.81h4.5a2.22,2.22,0,0,1,2.13,3.13l-1.61,5.31a4.51,4.51,0,0,1-4,3.09h-4.5c-.47,0-.88.07-1,.54l-1.16,3.81a.59.59,0,0,0,.61.82l4.83-.26a.85.85,0,0,0,.73-.68l0-.65a2,2,0,0,1,1.85-1.71,1.55,1.55,0,0,1,1.62,1.71ZM106.09,32.43a.59.59,0,0,0,.56.82h3.64a1.25,1.25,0,0,0,1.1-.82l1-3.37a.62.62,0,0,0-.6-.86h-3.63a1.26,1.26,0,0,0-1.08.86ZM121,29.06a.61.61,0,0,0-.55-.86h-3.52a1.28,1.28,0,0,0-1.12.86l-1,3.37a.61.61,0,0,0,.61.82h3.51a1.24,1.24,0,0,0,1.06-.82Z"/>
        <g>
          <path class="cls-2" d="M39.53,30.64a2.44,2.44,0,0,1-2.29,1.75h-3a1.5,1.5,0,0,0-1.23,1L31.08,39a.51.51,0,0,0,.44.65h.22A1.22,1.22,0,0,1,33,41.4a2.49,2.49,0,0,1-2.32,1.84h-.3a1.07,1.07,0,0,0-.83.64l-.64,1.8a2.47,2.47,0,0,1-2.36,1.71,1.21,1.21,0,0,1-1.24-1.71l.51-1.54a.66.66,0,0,0-.62-.9h-22c-1.63,0-2.47-1.33-1.77-3.09l3-6.81a.65.65,0,0,0-.53-1h-2A1.23,1.23,0,0,1,.59,30.64a2.53,2.53,0,0,1,2.29-1.76H5.24A1.57,1.57,0,0,0,6.5,28l2.92-6.51a4.82,4.82,0,0,1,4.34-3h21a2.09,2.09,0,0,1,2.13,3L34.72,28a.67.67,0,0,0,.63.9h3A1.23,1.23,0,0,1,39.53,30.64ZM26.36,39.55a1.25,1.25,0,0,0,1.11-.81l1.81-5.4c.14-.47-.08-.86-.56-.86H9.2A1.38,1.38,0,0,0,8,33.34l-2.32,5.4a.54.54,0,0,0,.48.81Zm3.57-10.76A1.19,1.19,0,0,0,31,28l1.65-5a.55.55,0,0,0-.56-.81H13.67a1.31,1.31,0,0,0-1.15.81l-2.29,5a.54.54,0,0,0,.52.81Z"/>
          <path class="cls-2" d="M14.06,11.6c-.19.25-.08.51.18.51H40a1.26,1.26,0,0,1,1.22,1.76,2.54,2.54,0,0,1-2.29,1.76H11.76a1.92,1.92,0,0,0-1.43.77L9.28,17.81A4.49,4.49,0,0,1,6,19.61c-1,0-1.2-.94-.51-1.8l5-6.43a4.53,4.53,0,0,1,3.32-1.8c.9,0,1.15.94.46,1.8Z"/>
          <path class="cls-2" d="M24,25.72c.5.65-.2,1.81-1.18,2a3.61,3.61,0,0,1-3.59-1.12l-.92-1.15c-.49-.66.21-1.86,1.23-2A3.42,3.42,0,0,1,23,24.57Z"/>
          <path class="cls-2" d="M20.77,36.75c.55.6-.11,1.8-1.13,2a4.08,4.08,0,0,1-3.86-1.07l-.93-1.07c-.59-.59.3-3.51,1.28-3.68,1.61-.3,2.86,1.82,3.71,2.77Z"/>
        </g>
        <g>
          <path class="cls-2" d="M177.39,12H159.64a2.64,2.64,0,0,0-2.49,2.42,1.32,1.32,0,0,0,1.43,1.27h7.32a.62.62,0,0,1,.6.87l-7.88,25.93a1.17,1.17,0,0,1-1,.8h-1.77a2.6,2.6,0,0,0-2.32,1.78h0a1.28,1.28,0,0,0,1.24,1.79h3.15a4.53,4.53,0,0,0,4-3.1l8.27-27.2a1.26,1.26,0,0,1,1.13-.87h4.89a2.75,2.75,0,0,0,2.2-1.27C179.17,13.26,178.62,12,177.39,12Z"/>
          <path class="cls-2" d="M149.87,20h2.64a2.67,2.67,0,0,0,2.41-1.88,1.33,1.33,0,0,0-1.28-1.85H151a.6.6,0,0,1-.61-.81l1.23-4.07a1.35,1.35,0,0,0-1.29-1.89,2.73,2.73,0,0,0-2.42,1.84l-1.26,4.12a1.19,1.19,0,0,1-1.06.81h-2.29a2.72,2.72,0,0,0-2.4,1.85A1.32,1.32,0,0,0,142.18,20h2.29a.59.59,0,0,1,.57.82L142.84,28a1.9,1.9,0,0,1-1.12,1.15l-2.6.86a4.31,4.31,0,0,0-2.65,2.66c-.3,1,.45,1.63,1.45,1.29l2.6-.86c.42-.13.73.13.6.56l-2.71,8.92a1.06,1.06,0,0,1-.93.72h-1.95a2.62,2.62,0,0,0-2.33,1.78h0a1.28,1.28,0,0,0,1.24,1.79h3.26a4.59,4.59,0,0,0,4.09-3.14l3.49-11.49a2.06,2.06,0,0,1,1.12-1.16l2-.68a4.3,4.3,0,0,0,2.66-2.7c.29-.95-.49-1.63-1.45-1.29l-2,.69c-.39.12-.74-.13-.61-.56l1.74-5.73A1.28,1.28,0,0,1,149.87,20Z"/>
        </g>
      </g>
    </g>
  </g>
</svg>
