<svg xmlns="http://www.w3.org/2000/svg" width="36.72" height="36.72" viewBox="0 0 36.72 36.72">
  <g id="yesgo_icon元件-13" transform="translate(-0.39 -0.39)">
    <path id="Path_16" data-name="Path 16" d="M37.11,18.75A18.36,18.36,0,1,1,18.75.39,18.36,18.36,0,0,1,37.11,18.75Z" fill="#f0f0f2"/>
    <g id="Group_6" data-name="Group 6">
      <path id="Path_17" data-name="Path 17" d="M26.31,11.25H9.2C9.64,18.42,11.51,25,15.34,26.6h5.88c3.84-1.6,5.71-8.18,6.15-15.35Z" fill="none" stroke="#4d4d4d" stroke-linecap="round" stroke-linejoin="round" stroke-width="1"/>
      <path id="Path_18" data-name="Path 18" d="M30.83,26.6H5.73c2.24,2,7.79,2.2,12.55,2.2h0C23.05,28.8,28.59,28.58,30.83,26.6Z" fill="none" stroke="#4d4d4d" stroke-linecap="round" stroke-linejoin="round" stroke-width="1"/>
      <path id="Path_19" data-name="Path 19" d="M25.35,28.64v.53a.88.88,0,0,1-.88.87H12.09a.87.87,0,0,1-.87-.87v-.53" fill="none" stroke="#4d4d4d" stroke-linecap="round" stroke-linejoin="round" stroke-width="1"/>
      <path id="Path_20" data-name="Path 20" d="M19.14,17.29H16.85l-1.34,1.59v3.55h4.97V18.88Z" fill="none" stroke="#4d4d4d" stroke-linecap="round" stroke-linejoin="round" stroke-width="1"/>
      <line id="Line_1" data-name="Line 1" y2="5.94" transform="translate(18.08 11.35)" fill="none" stroke="#4d4d4d" stroke-linecap="round" stroke-linejoin="round" stroke-width="1"/>
      <path id="Path_21" data-name="Path 21" d="M31,13.1a3.14,3.14,0,0,0-3.73-.77h0c-.05.6-.11,1.18-.18,1.76h0c0,.19-.05.38-.07.58l.54-.48a1.4,1.4,0,1,1,1.83,2.13l-3.25,2.79a18.27,18.27,0,0,1-1.73,4.37h3.43a1.84,1.84,0,0,1-.42-3.18h0l3.24-2.79A3.15,3.15,0,0,0,31,13.1Z" fill="none" stroke="#4d4d4d" stroke-linecap="round" stroke-linejoin="round" stroke-width="1"/>
    </g>
  </g>
</svg>
