<?xml version="1.0" encoding="utf-8"?>
<!-- Generator: Adobe Illustrator 27.3.1, SVG Export Plug-In . SVG Version: 6.00 Build 0)  -->
<svg version="1.1" id="yesgo_icon元件-23" xmlns="http://www.w3.org/2000/svg" xmlns:xlink="http://www.w3.org/1999/xlink"
	 x="0px" y="0px" viewBox="0 0 36.7 36.7" style="enable-background:new 0 0 36.7 36.7;" xml:space="preserve">
<style type="text/css">
	.st0{fill:#F0F0F2;}
	.st1{fill:none;stroke:#4D4D4D;stroke-miterlimit:10;}
</style>
<path id="Path_107" class="st0" d="M36.7,18.4c0,10.1-8.2,18.4-18.4,18.4S0,28.5,0,18.4S8.2,0,18.4,0l0,0C28.5,0,36.7,8.2,36.7,18.4
	z"/>
<path id="Group_23_00000132774904836797788150000013110732019946183057_" class="st1" d="M29.4,29.1c0,0-1.5,0.7-3.9,0
	c0,0-6,5.4-16.2-0.6H8c-0.4,0-0.7-0.3-0.7-0.7c0.1-2.9,1-14.1,7.5-21.1c0.2-0.2,0.4-0.3,0.7-0.2l5,1.7c0.3,0,0.5,0.3,0.5,0.6v4.1
	c0,0.4-0.3,0.7-0.7,0.7h-2c0,0-0.8,1.6-2,0.7c-1.2-1-2-1.3-2-1.3v3.3c0,0,2.1,3.4-0.7,7.2c0,0,6.2-7.7,10.4,1.3l-1.7-3.4
	c-0.1-0.3-0.1-0.6,0.2-0.8c1.3-0.9,4.9-3,6.7,0.3C29.4,20.7,30,22.4,29.4,29.1z"/>
</svg>
