<svg id="圖層_1" data-name="圖層 1" xmlns="http://www.w3.org/2000/svg" viewBox="0 0 137 37">
  <defs>
    <style>
      .cls-1 {
        fill: #f8412e;
      }
    </style>
  </defs>
  <g>
    <g>
      <path class="cls-1" d="M34.14,16.37c-.32.58-.69,1.15-1,1.71H44.72V28.91H43.2V28H32.92v.92H31.45v-8.7a18.68,18.68,0,0,1-4.16,3.48,7.7,7.7,0,0,0-1-1.18,17.57,17.57,0,0,0,6.07-6.14H26.85V15.09h6.26a18.45,18.45,0,0,0,.82-1.82H28.55V12h5.87c.18-.58.34-1.15.5-1.73-2.18.1-4.37.16-6.39.16a3.77,3.77,0,0,0-.32-1.19c5.56,0,12.58-.42,16.19-1.17l1,1.12a65.13,65.13,0,0,1-8.78,1c-.16.62-.34,1.22-.55,1.82h9.61v1.24H35.59c-.23.6-.51,1.22-.81,1.82H47v1.28Zm9.06,2.95H32.92V21H43.2Zm0,2.78H32.92v1.72H43.2Zm0,4.64V24.9H32.92v1.84Z"/>
      <path class="cls-1" d="M61.74,21.34a7.43,7.43,0,0,1-2.14,4c3,1.38,6.92,1.8,12.14,2a3.47,3.47,0,0,0-.64,1.49c-5.41-.25-9.61-.78-12.72-2.48a19.64,19.64,0,0,1-6.74,2.55,6.54,6.54,0,0,0-.89-1.35A20.28,20.28,0,0,0,57,25.43a11.15,11.15,0,0,1-2.94-3.35l1.29-.51a9.73,9.73,0,0,0,2.85,3,5.71,5.71,0,0,0,1.95-3.22h-6.9V12.58h7.16v-2H51.14V9.15H71v1.41H62v2h7.61v8.76Zm-7-5h5.68V13.89H54.73ZM60.36,20c0-.48,0-1,0-1.49v-1H54.73V20Zm7.7-2.46H62v1c0,.5,0,1,0,1.49h6.14ZM62,13.89v2.44h6.09V13.89Z"/>
      <path class="cls-1" d="M95.32,18.47c-3.2,6.73-11.09,9.45-19.09,10.39a5.38,5.38,0,0,0-.62-1.45,35.45,35.45,0,0,0,10.9-2.69,31.27,31.27,0,0,0-3.38-3A28.65,28.65,0,0,1,79.4,23.5a5.64,5.64,0,0,0-1-1.15A20.69,20.69,0,0,0,88,15.8l1.7.37a18.81,18.81,0,0,1-1.56,1.74H94l.3-.09Zm-3.45-8c-2.92,5-9.66,8.14-15.5,9.38a5.14,5.14,0,0,0-.74-1.36,29.25,29.25,0,0,0,7.84-2.6,24.09,24.09,0,0,0-3.21-2.71,24.39,24.39,0,0,1-2.79,1.52,4.14,4.14,0,0,0-1-1.08A20.15,20.15,0,0,0,84.3,7.87L86,8.21a18.34,18.34,0,0,1-1.54,1.7H90.6l.28-.07Zm-8.92.8c-.51.42-1,.78-1.54,1.15a21.16,21.16,0,0,1,3.4,2.76,16.48,16.48,0,0,0,4.74-3.91Zm3.7,8A20.08,20.08,0,0,1,84.35,21a30.35,30.35,0,0,1,3.54,3,13.83,13.83,0,0,0,5.2-4.72Z"/>
      <path class="cls-1" d="M116.49,18.44v.1l-10.34,8.85-.4-1.29,8.93-7.59v0l-8.93-7.59.4-1.29Z"/>
    </g>
    <path class="cls-1" d="M118.17,36.69H18.83a18.19,18.19,0,0,1,0-36.38h99.34a18.19,18.19,0,0,1,0,36.38ZM18.83,1.06a17.44,17.44,0,0,0,0,34.88h99.34a17.44,17.44,0,0,0,0-34.88Z"/>
  </g>
</svg>
