<svg id="_圖層_1_影像" data-name="圖層 1 影像" xmlns="http://www.w3.org/2000/svg" viewBox="0 0 170.06 36.54"><defs><style>.cls-1{fill:none;stroke:#f8412e;stroke-width:.38px}.cls-2{fill:#7f3936}.cls-3{fill:#f8412e}</style></defs><path class="cls-2" d="M11.31 20.63c-.04.16-.29.69-.75 1.61-.46.91-1.1 2.07-1.93 3.46-.66 1.12-1.19 2.01-1.59 2.67s-.67 1.09-.79 1.28c-.35.39-.7.59-1.06.59-.81 0-1.09-.44-.85-1.33.08-.29.48-.97 1.22-2.03.58-.85 1.56-2.5 2.93-4.96.62-1.14 1.06-1.83 1.31-2.07.23-.22.5-.32.82-.32.66 0 .89.36.69 1.09Zm-2.88-7.2c.22-.81.72-1.21 1.5-1.21.41 0 .96.18 1.66.53.66.33.91.81.74 1.42-.22.81-.7 1.21-1.45 1.21-.21 0-.71-.22-1.51-.65-.75-.41-1.07-.84-.94-1.3Zm13.28 15.13c-.15.57-.62.88-1.41.94l-10.81.91c-.31.02-.51-.05-.63-.22-.12-.17-.13-.41-.05-.72.17-.63.73-.96 1.67-1 .89-.02 2.24-.11 4.06-.26l1.03-3.83h-3.65c-.67 0-.93-.31-.76-.94.17-.63.59-.94 1.26-.94h3.65l.4-1.47h-1.8c-.32 0-.54-.08-.68-.25-.13-.17-.16-.41-.07-.72.07-.26.18-.45.33-.59-.89.53-1.52.8-1.87.8-.66 0-.88-.38-.67-1.15.1-.37.38-.69.84-.94 1.9-1.02 3.55-2.17 4.94-3.45.59-.53 1.04-.84 1.34-.92a.94.94 0 0 1 0-.41c.06-.24.27-.51.61-.83-.06.02-.14.03-.23.03-.34 0-.56-.22-.67-.65l-1.76 1.21c-1.77 1.22-2.91 1.83-3.41 1.83-.3 0-.5-.1-.61-.29-.11-.2-.11-.47-.02-.83.14-.51.6-.94 1.39-1.3l1.42-5.31c.23-.87.98-1.52 2.24-1.98l1.1-.44.75-.29c.7-.29 1.1-.44 1.21-.44.67 0 .92.34.73 1.03-.11.39-.47.73-1.08 1l-.89.38-1.6.62c-.42.18-.68.44-.78.8l-.97 3.63 2.11-1.18-.21-1.21c-.03-.24-.03-.41 0-.53.07-.26.19-.45.37-.59.18-.14.4-.21.66-.21.19 0 .36.13.51.4.15.27.27.65.36 1.17.22 1.28.31 2.03.27 2.24.83-1 1.52-2.41 2.06-4.22h-.76c-.32 0-.54-.08-.66-.25-.12-.17-.14-.41-.06-.72.18-.67.6-1 1.25-1h3.51c.66 0 1.11.16 1.37.49.26.32.31.79.14 1.4-.06.22-.3 1.03-.74 2.45l-.23.77c-.54 1.65-.98 2.69-1.32 3.13-.71.88-1.67 1.33-2.88 1.33-.36 0-.6-.09-.74-.28-.14-.19-.16-.45-.07-.78.17-.65.65-.99 1.43-1.03.63-.04 1.06-.37 1.28-1 .47-1.34.88-2.63 1.21-3.89.11-.39-.04-.59-.43-.59h-.59c-.99 3.48-2.38 5.71-4.18 6.7.1.2.13.36.09.5-.02.08-.09.2-.21.35 3.07 1.63 4.5 2.83 4.29 3.6-.1.35-.26.63-.49.83-.23.2-.52.3-.88.3-.21 0-.48-.15-.81-.44-1.22-1.1-2.42-2.04-3.61-2.8-1.1.94-2.23 1.8-3.41 2.57l-.27.18c.17-.06.34-.09.53-.09h5.9c.66 0 .9.32.73.94-.17.65-.59.97-1.24.97h-2.05l-.4 1.47h3.65c.3 0 .52.08.65.25.13.17.16.4.08.69-.08.3-.23.53-.45.69-.22.17-.48.25-.78.25h-3.65l-.98 3.66c1.93-.16 3.33-.26 4.19-.32l.29-.03c.56-.06.75.24.58.88ZM11.13 5.77c.12-.45.42-.79.89-1 .02-.02.1-.06.24-.12.14-.06.24-.08.31-.06.55.1 1.12.34 1.71.74.34.22.57.44.69.66.13.23.16.47.09.72-.1.37-.32.7-.65.97-.24.2-.48.29-.73.29-.17 0-.67-.26-1.51-.77-.82-.49-1.17-.97-1.05-1.45Zm.29 20.94c-.02-.12-.06-.31-.1-.59s-.04-.49 0-.65c.05-.2.21-.38.47-.55.26-.17.52-.25.78-.25.21 0 .37.06.5.19.12.13.23.33.33.6.23.63.29 1.13.19 1.5-.17.63-.6.94-1.29.94-.45 0-.74-.4-.88-1.21Zm9.68-1.09c-.06.22-.31.6-.76 1.15-.44.53-.86.8-1.25.8-.66 0-.9-.3-.74-.91.06-.22.3-.59.72-1.12.46-.59.88-.88 1.28-.88.67 0 .92.32.75.97ZM34.85 5.35l-5.99 22.36c-.27 1.02-.69 1.77-1.26 2.24s-1.31.68-2.23.62h-1.55c-.82 0-1.13-.38-.93-1.15.21-.77.72-1.15 1.54-1.15h1.1c.71 0 1.18-.38 1.4-1.15l5.83-21.77c.22-.81.67-1.21 1.36-1.21s.93.4.72 1.21ZM24.34 24.97c-.67 0-.91-.38-.7-1.15l4.37-16.31c.21-.79.65-1.18 1.33-1.18s.91.39.7 1.18l-4.37 16.31c-.21.77-.65 1.15-1.32 1.15ZM61.67 26.5c-.45 1.69-1.13 2.73-2.02 3.13-.87.37-2.61.56-5.24.56l-3.01-.09c-1.38-.02-1.97-.58-1.77-1.68l.62-2.33h-3.23c-1.79 2.97-5.38 4.45-10.78 4.45-.79 0-1.08-.35-.9-1.06.16-.59.85-.9 2.07-.92 4.11-.1 6.62-.92 7.52-2.48h-3.17c-.88 0-1.47-.18-1.77-.53-.3-.36-.3-.93-.01-1.74l1.28-4.78c.29-1.65 1.29-2.42 3.01-2.3H58.8c.86 0 1.44.18 1.72.55.29.36.28.95 0 1.76l-1.28 4.78c-.29 1.63-1.27 2.39-2.94 2.27h-4.02l-.36 1.33c-.11.41-.05.67.19.77.29.12 1.14.18 2.57.18 1.95 0 3.21-.09 3.78-.26.44-.12.76-.55.94-1.3.11-.49.29-.84.52-1.05.23-.21.55-.31.94-.31.73 0 1 .35.81 1.06ZM40.26 13.61l1.83-6.81c.38-1.44 1.28-2.15 2.68-2.15h8.49c.32 0 .53.07.65.21.11.14.13.35.05.65-.15.57-.54.86-1.16.86h-3.48l-.4 1.48h1.71c1.27 0 1.76.59 1.46 1.77l-.32 1.18c-.33 1.24-1.14 1.83-2.41 1.77h-1.71l-.42 1.56h3.46c.62 0 .85.28.71.83-.15.57-.54.86-1.16.86h-8.51c-1.37 0-1.86-.73-1.47-2.18Zm2.38 10.94h13.57c.47 0 .77-.25.9-.74l.13-.47H42.26l-.13.47c-.13.49.04.74.5.74Zm-.41-11.06c-.11.41.02.62.4.62h2.78l.42-1.56h-3.34l-.25.94Zm.71 7.31-.3 1.12h14.98l.3-1.12H42.94Zm-.03-9.85h6.35c.39 0 .67-.28.82-.86.12-.43-.02-.65-.42-.65h-6.35l-.4 1.5Zm.42 8.41h14.98l.08-.29c.14-.53-.02-.8-.49-.8H44.33a.82.82 0 0 0-.57.21c-.16.14-.27.33-.34.59l-.08.29Zm.42-11.53h3.34l.4-1.48h-2.78c-.38 0-.62.2-.72.59l-.24.89Zm10.95 2.98h8.66c1.2 0 1.67.51 1.42 1.53l-.51 1.92c-.28 1.06-1.02 1.59-2.2 1.59h-8.65c-1.2 0-1.68-.5-1.45-1.5l.51-1.92c.29-1.08 1.03-1.62 2.23-1.62Zm-1.42-3.42c.65-.53 1.16-.99 1.52-1.39l.48-.53c.28-.28.57-.58.86-.92.46-.51.88-.77 1.27-.77.69 0 .97.27.83.8-.04.14-.22.4-.55.8h8.68c.62 0 .85.29.7.86-.15.57-.54.86-1.16.86h-9.86c-1.62 1.65-2.67 2.48-3.14 2.48-.6 0-.81-.33-.63-1 .08-.31.41-.71.99-1.18Zm.46 6.46c-.09.33.07.52.5.56h1.18l.58-2.15h-1.18c-.43 0-.7.19-.8.56l-.28 1.03Zm1.55-4.1c-.56 0-.77-.27-.63-.8s.49-.8 1.06-.8h8.91c.26 0 .45.07.56.21.11.14.13.33.07.59-.14.53-.49.8-1.06.8h-8.91Zm2.33 2.51-.58 2.15h1.88l.58-2.15h-1.88Zm2.94 2.15h1.32c.43 0 .7-.19.8-.56l.28-1.03c.09-.33-.08-.52-.5-.56h-1.32l-.58 2.15ZM67.66 26.86c.05-.18.18-.44.41-.8.99-1.61 1.78-3.3 2.37-5.07.25-.73.65-1.09 1.19-1.09.66 0 .9.33.72 1-.38 1.44-.98 2.92-1.78 4.45-.85 1.65-1.58 2.48-2.18 2.48-.66 0-.9-.33-.72-.97Zm4 3.7c-.14-.23-.15-.56-.03-.99l3-11.21-3.82.41c-.38.04-.63-.06-.75-.3s-.11-.58 0-1.03c.1-.37.32-.66.66-.87.34-.21.78-.31 1.32-.31.28 0 .71-.02 1.28-.06l2.31-2.45c-.67-.81-1.49-1.63-2.48-2.48-.67-.59-.94-1.11-.82-1.56.21-.77.65-1.15 1.35-1.15.3 0 .69.26 1.17.77.94-1.14 2.03-2.6 3.26-4.39.27-.39.53-.68.78-.86.24-.18.51-.27.79-.27.84 0 1.15.41.93 1.24-.18.67-1.69 2.48-4.54 5.43l1.29 1.39 2.32-2.77c1.08-1.3 1.87-1.95 2.38-1.95.81 0 1.1.39.89 1.18-.22.81-2.56 3.4-7.03 7.79l3.41-.24-.08-.65c-.04-.41-.05-.67-.02-.77.17-.65.6-.97 1.27-.97.28 0 .5.15.65.46.15.31.26.77.31 1.4.19 1.75.25 2.74.18 2.98-.19.71-.65 1.06-1.38 1.06a.65.65 0 0 1-.62-.37c-.13-.25-.21-.65-.25-1.22l-2.43.35-3.06 11.42c-.24.89-.74 1.33-1.51 1.33-.36 0-.6-.11-.74-.34Zm5.58-4.62.4-4.75.09-.53c.09-.55.47-.83 1.15-.83.47 0 .71.26.72.77.04.71 0 1.75-.08 3.13l-.11 1.24-.12.86c-.05.33-.19.6-.42.78-.23.19-.51.28-.85.28-.54 0-.81-.31-.79-.94Zm4.04 3.69c-1.15-.2-1.55-.93-1.21-2.21l2.7-10.09c.26-.96.64-1.66 1.13-2.08.5-.42 1.18-.6 2.04-.54h5.65c.36 0 .61-.06.75-.19.15-.13.27-.38.37-.75l1.34-5.01c.09-.35.1-.58.02-.69-.08-.11-.3-.16-.66-.16H85.6c-.45 0-.75-.08-.92-.25-.16-.17-.19-.44-.09-.81.1-.37.27-.64.53-.81.25-.17.6-.25 1.05-.25h8.43c.92 0 1.53.19 1.83.57.3.38.3 1.03 0 1.93l-1.6 5.96c-.26.96-.64 1.66-1.15 2.08-.51.42-1.19.6-2.06.55h-5.65c-.34 0-.59.07-.74.21-.16.14-.29.4-.4.8l-2.32 8.64c-.12.45-.14.75-.06.9s.33.23.73.25c2.2.04 3.84.06 4.93.06.96 0 1.69-.23 2.21-.68.34-.28.68-.95 1.02-2.04.14-.45.33-.79.58-1 .25-.22.55-.32.93-.32.41 0 .68.1.8.31s.12.54 0 .99c-.52 1.93-1.26 3.26-2.23 4.01-.73.55-2.54.83-5.45.83-2.51 0-4.09-.06-4.73-.18ZM108.38 27.71c-.11.41-.33.7-.65.86-.15.08-.58.18-1.28.31-.7.13-1.53.26-2.48.4-.61.1-1.53.23-2.77.38l-1.45.18c-.38.04-.64-.05-.77-.27-.13-.22-.14-.52-.04-.91.19-.71.87-1.11 2.04-1.21l2.61-.29 2.14-7.99h-2.72c-.79 0-1.09-.34-.9-1.03.19-.73.69-1.09 1.47-1.09h2.73l.87-3.24h-1.52c-.75 0-1.03-.34-.85-1.03l.14-.32c-.53.37-.93.56-1.19.56-.66 0-.88-.38-.68-1.15.1-.37.36-.73.79-1.06 2.16-1.75 3.93-3.57 5.31-5.46.7-.92 1.27-1.39 1.72-1.39.34 0 .58.1.72.31s.17.48.08.81c-.05.2-.18.43-.39.71 1.25 1.06 2.12 1.88 2.61 2.46s.69 1.03.61 1.34c-.21.77-.69 1.15-1.46 1.15-.28 0-.57-.22-.87-.65-.73-1.06-1.47-1.94-2.22-2.62-1.05 1.28-2.45 2.72-4.2 4.34l.27-.06h5.62c.73 0 1 .34.82 1.03s-.64 1.03-1.37 1.03h-1.91l-.87 3.24h2.36c.77 0 1.05.36.86 1.09-.18.69-.66 1.03-1.43 1.03h-2.36l-2.07 7.73 1.1-.12.89-.06c.65-.04.88.29.69 1Zm-6.62-1.83c-.62 0-.84-.34-.65-1.03l.9-3.36c.2-.73.6-1.09 1.22-1.09s.83.36.63 1.09l-.9 3.36c-.18.69-.58 1.03-1.2 1.03Zm8.42-4.48-.82 3.07c-.19.71-.59 1.06-1.21 1.06s-.83-.35-.64-1.06l.8-2.98c.2-.73.6-1.09 1.22-1.09s.84.33.66 1Zm2.66 5.81c-1.85 1.24-3 1.86-3.45 1.86-.67 0-.91-.39-.7-1.18.13-.47.63-.96 1.52-1.47l.8-.47c.2-.12.42-.24.65-.37.23-.13.46-.26.68-.4.81-.49 1.34-.84 1.6-1.03.43-.33.8-.5 1.12-.5.34 0 .56.08.68.25.12.17.12.44.02.81-.12.43-1.09 1.27-2.92 2.51Zm11.76.77c-.23.85-.71 1.27-1.46 1.27-.32 0-.65-.19-1-.56-.35-.37-.75-.94-1.2-1.71-.84-1.42-1.4-3.05-1.7-4.9h-.11l-1.53 5.69c-.4 2.04-1.58 3-3.55 2.86h-1.15c-.79 0-1.08-.36-.89-1.09.2-.75.69-1.12 1.48-1.12h.87c.32 0 .59-.1.82-.29.23-.2.4-.46.51-.8l2.73-10.18h-5.37c-.77 0-1.06-.35-.87-1.06.19-.71.67-1.06 1.44-1.06h9.02l.87-2.21h-7c-1.29 0-1.78-.58-1.47-1.74l.2-.53 2.57-5.07c.28-.57.56-.99.83-1.25.27-.27.56-.4.88-.4.73 0 1.01.3.85.91l-.58 1.21-.08.18h6.24c1.44 0 2.01.57 1.71 1.71l-2.83 7.2h2.14c.77 0 1.06.35.87 1.06-.19.71-.67 1.06-1.44 1.06h-5.96l-.43 1.62c.13.96.39 1.94.76 2.92l3.71-3.16c.34-.29.66-.44.96-.44.36 0 .59.09.71.27.12.18.13.46.02.86-.08.29-.28.57-.59.83l-2.64 1.89-1.53 1-.09.12c.54 1.34 1.43 2.52 2.68 3.54.52.43.72.9.58 1.39Zm-11.56-6.58-.59-1.47a.982.982 0 0 1-.01-.59c.17-.65.59-.97 1.24-.97.39 0 .82.4 1.28 1.21.22.37.37.71.44 1.02.08.31.09.55.05.72-.21.77-.67 1.15-1.4 1.15-.43 0-.77-.35-1.01-1.06Zm11.27-10.59.79-1.92c.11-.25.11-.45 0-.57-.11-.13-.3-.19-.58-.19h-5.76l-.29.56-.29.65-.5 1.03-.02.09c-.03.1 0 .18.07.25.08.07.21.1.39.1h6.18Z"/><path class="cls-3" d="M151.33 9.34c.41 0 .74.1 1 .29.26.19.45.44.58.75.13.3.2.65.2 1.02 0 .38-.04.75-.14 1.12l-.34 1.27h-2.5l-3.41 12.72c-.12.44-.31.85-.58 1.24-.27.39-.58.72-.94 1.01s-.75.52-1.17.68c-.42.17-.85.25-1.28.25h-8.76c-.43 0-.81-.08-1.15-.25-.33-.17-.61-.39-.81-.68s-.34-.63-.4-1.01c-.06-.39-.03-.8.09-1.24l.34-1.27h1.88l3.41-12.72c.12-.44.31-.85.58-1.23.27-.39.58-.72.94-1.01.36-.29.75-.51 1.18-.68.42-.17.85-.25 1.28-.25h10.01Zm-8.24 19.08c.26 0 .52-.05.77-.15.25-.1.49-.24.7-.41.21-.17.4-.37.56-.6.16-.23.28-.48.35-.74l3.75-14c.05-.18.12-.37.23-.59.1-.21.23-.42.38-.61s.31-.35.49-.48.38-.21.6-.23h-9.94c-.26 0-.52.05-.77.15-.25.1-.49.24-.71.41s-.41.37-.57.6c-.16.23-.28.48-.35.74l-3.75 14h6.88c-.07.27-.09.51-.05.74.04.23.12.43.24.6s.29.31.49.41c.2.1.43.15.69.15Zm-6.66-3.18.17-.64h5l-.17.64h-5Zm.51-1.91.17-.64h5l-.17.64h-5Zm.51-1.9.17-.64h5l-.17.64h-5Zm.51-1.91.17-.64h5l-.17.64h-5Zm.51-1.91.17-.63h5l-.17.63h-5Zm.51-1.9.17-.64h5l-.17.64h-5Zm.51-1.91.34-1.27h8.13l-.34 1.27h-8.13Zm3.19 11.45.17-.64h1.87l-.17.64h-1.87Zm.51-1.91.17-.64h1.87l-.17.64h-1.87Zm.51-1.9.17-.64h1.87l-.17.64h-1.87Zm.51-1.91.17-.64h1.87l-.17.64h-1.87Zm.51-1.91.17-.63h1.87l-.17.63h-1.87Zm.51-1.9.17-.64h1.87l-.17.64h-1.87ZM11.31 20.63c-.04.16-.29.69-.75 1.61-.46.91-1.1 2.07-1.93 3.46-.66 1.12-1.19 2.01-1.59 2.67s-.67 1.09-.79 1.28c-.35.39-.7.59-1.06.59-.81 0-1.09-.44-.85-1.33.08-.29.48-.97 1.22-2.03.58-.85 1.56-2.5 2.93-4.96.62-1.14 1.06-1.83 1.31-2.07.23-.22.5-.32.82-.32.66 0 .89.36.69 1.09Zm-2.88-7.2c.22-.81.72-1.21 1.5-1.21.41 0 .96.18 1.66.53.66.33.91.81.74 1.42-.22.81-.7 1.21-1.45 1.21-.21 0-.71-.22-1.51-.65-.75-.41-1.07-.84-.94-1.3Zm13.28 15.13c-.15.57-.62.88-1.41.94l-10.81.91c-.31.02-.51-.05-.63-.22-.12-.17-.13-.41-.05-.72.17-.63.73-.96 1.67-1 .89-.02 2.24-.11 4.06-.26l1.03-3.83h-3.65c-.67 0-.93-.31-.76-.94.17-.63.59-.94 1.26-.94h3.65l.4-1.47h-1.8c-.32 0-.54-.08-.68-.25-.13-.17-.16-.41-.07-.72.07-.26.18-.45.33-.59-.89.53-1.52.8-1.87.8-.66 0-.88-.38-.67-1.15.1-.37.38-.69.84-.94 1.9-1.02 3.55-2.17 4.94-3.45.59-.53 1.04-.84 1.34-.92a.94.94 0 0 1 0-.41c.06-.24.27-.51.61-.83-.06.02-.14.03-.23.03-.34 0-.56-.22-.67-.65l-1.76 1.21c-1.77 1.22-2.91 1.83-3.41 1.83-.3 0-.5-.1-.61-.29-.11-.2-.11-.47-.02-.83.14-.51.6-.94 1.39-1.3l1.42-5.31c.23-.87.98-1.52 2.24-1.98l1.1-.44.75-.29c.7-.29 1.1-.44 1.21-.44.67 0 .92.34.73 1.03-.11.39-.47.73-1.08 1l-.89.38-1.6.62c-.42.18-.68.44-.78.8l-.97 3.63 2.11-1.18-.21-1.21c-.03-.24-.03-.41 0-.53.07-.26.19-.45.37-.59.18-.14.4-.21.66-.21.19 0 .36.13.51.4.15.27.27.65.36 1.17.22 1.28.31 2.03.27 2.24.83-1 1.52-2.41 2.06-4.22h-.76c-.32 0-.54-.08-.66-.25-.12-.17-.14-.41-.06-.72.18-.67.6-1 1.25-1h3.51c.66 0 1.11.16 1.37.49.26.32.31.79.14 1.4-.06.22-.3 1.03-.74 2.45l-.23.77c-.54 1.65-.98 2.69-1.32 3.13-.71.88-1.67 1.33-2.88 1.33-.36 0-.6-.09-.74-.28-.14-.19-.16-.45-.07-.78.17-.65.65-.99 1.43-1.03.63-.04 1.06-.37 1.28-1 .47-1.34.88-2.63 1.21-3.89.11-.39-.04-.59-.43-.59h-.59c-.99 3.48-2.38 5.71-4.18 6.7.1.2.13.36.09.5-.02.08-.09.2-.21.35 3.07 1.63 4.5 2.83 4.29 3.6-.1.35-.26.63-.49.83-.23.2-.52.3-.88.3-.21 0-.48-.15-.81-.44-1.22-1.1-2.42-2.04-3.61-2.8-1.1.94-2.23 1.8-3.41 2.57l-.27.18c.17-.06.34-.09.53-.09h5.9c.66 0 .9.32.73.94-.17.65-.59.97-1.24.97h-2.05l-.4 1.47h3.65c.3 0 .52.08.65.25.13.17.16.4.08.69-.08.3-.23.53-.45.69-.22.17-.48.25-.78.25h-3.65l-.98 3.66c1.93-.16 3.33-.26 4.19-.32l.29-.03c.56-.06.75.24.58.88ZM11.13 5.77c.12-.45.42-.79.89-1 .02-.02.1-.06.24-.12.14-.06.24-.08.31-.06.55.1 1.12.34 1.71.74.34.22.57.44.69.66.13.23.16.47.09.72-.1.37-.32.7-.65.97-.24.2-.48.29-.73.29-.17 0-.67-.26-1.51-.77-.82-.49-1.17-.97-1.05-1.45Zm.29 20.94c-.02-.12-.06-.31-.1-.59s-.04-.49 0-.65c.05-.2.21-.38.47-.55.26-.17.52-.25.78-.25.21 0 .37.06.5.19.12.13.23.33.33.6.23.63.29 1.13.19 1.5-.17.63-.6.94-1.29.94-.45 0-.74-.4-.88-1.21Zm9.68-1.09c-.06.22-.31.6-.76 1.15-.44.53-.86.8-1.25.8-.66 0-.9-.3-.74-.91.06-.22.3-.59.72-1.12.46-.59.88-.88 1.28-.88.67 0 .92.32.75.97ZM34.85 5.35l-5.99 22.36c-.27 1.02-.69 1.77-1.26 2.24s-1.31.68-2.23.62h-1.55c-.82 0-1.13-.38-.93-1.15.21-.77.72-1.15 1.54-1.15h1.1c.71 0 1.18-.38 1.4-1.15l5.83-21.77c.22-.81.67-1.21 1.36-1.21s.93.4.72 1.21ZM24.34 24.97c-.67 0-.91-.38-.7-1.15l4.37-16.31c.21-.79.65-1.18 1.33-1.18s.91.39.7 1.18l-4.37 16.31c-.21.77-.65 1.15-1.32 1.15ZM61.67 26.5c-.45 1.69-1.13 2.73-2.02 3.13-.87.37-2.61.56-5.24.56l-3.01-.09c-1.38-.02-1.97-.58-1.77-1.68l.62-2.33h-3.23c-1.79 2.97-5.38 4.45-10.78 4.45-.79 0-1.08-.35-.9-1.06.16-.59.85-.9 2.07-.92 4.11-.1 6.62-.92 7.52-2.48h-3.17c-.88 0-1.47-.18-1.77-.53-.3-.36-.3-.93-.01-1.74l1.28-4.78c.29-1.65 1.29-2.42 3.01-2.3H58.8c.86 0 1.44.18 1.72.55.29.36.28.95 0 1.76l-1.28 4.78c-.29 1.63-1.27 2.39-2.94 2.27h-4.02l-.36 1.33c-.11.41-.05.67.19.77.29.12 1.14.18 2.57.18 1.95 0 3.21-.09 3.78-.26.44-.12.76-.55.94-1.3.11-.49.29-.84.52-1.05.23-.21.55-.31.94-.31.73 0 1 .35.81 1.06ZM40.26 13.61l1.83-6.81c.38-1.44 1.28-2.15 2.68-2.15h8.49c.32 0 .53.07.65.21.11.14.13.35.05.65-.15.57-.54.86-1.16.86h-3.48l-.4 1.48h1.71c1.27 0 1.76.59 1.46 1.77l-.32 1.18c-.33 1.24-1.14 1.83-2.41 1.77h-1.71l-.42 1.56h3.46c.62 0 .85.28.71.83-.15.57-.54.86-1.16.86h-8.51c-1.37 0-1.86-.73-1.47-2.18Zm2.38 10.94h13.57c.47 0 .77-.25.9-.74l.13-.47H42.26l-.13.47c-.13.49.04.74.5.74Zm-.41-11.06c-.11.41.02.62.4.62h2.78l.42-1.56h-3.34l-.25.94Zm.71 7.31-.3 1.12h14.98l.3-1.12H42.94Zm-.03-9.85h6.35c.39 0 .67-.28.82-.86.12-.43-.02-.65-.42-.65h-6.35l-.4 1.5Zm.42 8.41h14.98l.08-.29c.14-.53-.02-.8-.49-.8H44.33a.82.82 0 0 0-.57.21c-.16.14-.27.33-.34.59l-.08.29Zm.42-11.53h3.34l.4-1.48h-2.78c-.38 0-.62.2-.72.59l-.24.89Zm10.95 2.98h8.66c1.2 0 1.67.51 1.42 1.53l-.51 1.92c-.28 1.06-1.02 1.59-2.2 1.59h-8.65c-1.2 0-1.68-.5-1.45-1.5l.51-1.92c.29-1.08 1.03-1.62 2.23-1.62Zm-1.42-3.42c.65-.53 1.16-.99 1.52-1.39l.48-.53c.28-.28.57-.58.86-.92.46-.51.88-.77 1.27-.77.69 0 .97.27.83.8-.04.14-.22.4-.55.8h8.68c.62 0 .85.29.7.86-.15.57-.54.86-1.16.86h-9.86c-1.62 1.65-2.67 2.48-3.14 2.48-.6 0-.81-.33-.63-1 .08-.31.41-.71.99-1.18Zm.46 6.46c-.09.33.07.52.5.56h1.18l.58-2.15h-1.18c-.43 0-.7.19-.8.56l-.28 1.03Zm1.55-4.1c-.56 0-.77-.27-.63-.8s.49-.8 1.06-.8h8.91c.26 0 .45.07.56.21.11.14.13.33.07.59-.14.53-.49.8-1.06.8h-8.91Zm2.33 2.51-.58 2.15h1.88l.58-2.15h-1.88Zm2.94 2.15h1.32c.43 0 .7-.19.8-.56l.28-1.03c.09-.33-.08-.52-.5-.56h-1.32l-.58 2.15ZM67.66 26.86c.05-.18.18-.44.41-.8.99-1.61 1.78-3.3 2.37-5.07.25-.73.65-1.09 1.19-1.09.66 0 .9.33.72 1-.38 1.44-.98 2.92-1.78 4.45-.85 1.65-1.58 2.48-2.18 2.48-.66 0-.9-.33-.72-.97Zm4 3.7c-.14-.23-.15-.56-.03-.99l3-11.21-3.82.41c-.38.04-.63-.06-.75-.3s-.11-.58 0-1.03c.1-.37.32-.66.66-.87.34-.21.78-.31 1.32-.31.28 0 .71-.02 1.28-.06l2.31-2.45c-.67-.81-1.49-1.63-2.48-2.48-.67-.59-.94-1.11-.82-1.56.21-.77.65-1.15 1.35-1.15.3 0 .69.26 1.17.77.94-1.14 2.03-2.6 3.26-4.39.27-.39.53-.68.78-.86.24-.18.51-.27.79-.27.84 0 1.15.41.93 1.24-.18.67-1.69 2.48-4.54 5.43l1.29 1.39 2.32-2.77c1.08-1.3 1.87-1.95 2.38-1.95.81 0 1.1.39.89 1.18-.22.81-2.56 3.4-7.03 7.79l3.41-.24-.08-.65c-.04-.41-.05-.67-.02-.77.17-.65.6-.97 1.27-.97.28 0 .5.15.65.46.15.31.26.77.31 1.4.19 1.75.25 2.74.18 2.98-.19.71-.65 1.06-1.38 1.06a.65.65 0 0 1-.62-.37c-.13-.25-.21-.65-.25-1.22l-2.43.35-3.06 11.42c-.24.89-.74 1.33-1.51 1.33-.36 0-.6-.11-.74-.34Zm5.58-4.62.4-4.75.09-.53c.09-.55.47-.83 1.15-.83.47 0 .71.26.72.77.04.71 0 1.75-.08 3.13l-.11 1.24-.12.86c-.05.33-.19.6-.42.78-.23.19-.51.28-.85.28-.54 0-.81-.31-.79-.94Zm4.04 3.69c-1.15-.2-1.55-.93-1.21-2.21l2.7-10.09c.26-.96.64-1.66 1.13-2.08.5-.42 1.18-.6 2.04-.54h5.65c.36 0 .61-.06.75-.19.15-.13.27-.38.37-.75l1.34-5.01c.09-.35.1-.58.02-.69-.08-.11-.3-.16-.66-.16H85.6c-.45 0-.75-.08-.92-.25-.16-.17-.19-.44-.09-.81.1-.37.27-.64.53-.81.25-.17.6-.25 1.05-.25h8.43c.92 0 1.53.19 1.83.57.3.38.3 1.03 0 1.93l-1.6 5.96c-.26.96-.64 1.66-1.15 2.08-.51.42-1.19.6-2.06.55h-5.65c-.34 0-.59.07-.74.21-.16.14-.29.4-.4.8l-2.32 8.64c-.12.45-.14.75-.06.9s.33.23.73.25c2.2.04 3.84.06 4.93.06.96 0 1.69-.23 2.21-.68.34-.28.68-.95 1.02-2.04.14-.45.33-.79.58-1 .25-.22.55-.32.93-.32.41 0 .68.1.8.31s.12.54 0 .99c-.52 1.93-1.26 3.26-2.23 4.01-.73.55-2.54.83-5.45.83-2.51 0-4.09-.06-4.73-.18ZM108.38 27.71c-.11.41-.33.7-.65.86-.15.08-.58.18-1.28.31-.7.13-1.53.26-2.48.4-.61.1-1.53.23-2.77.38l-1.45.18c-.38.04-.64-.05-.77-.27-.13-.22-.14-.52-.04-.91.19-.71.87-1.11 2.04-1.21l2.61-.29 2.14-7.99h-2.72c-.79 0-1.09-.34-.9-1.03.19-.73.69-1.09 1.47-1.09h2.73l.87-3.24h-1.52c-.75 0-1.03-.34-.85-1.03l.14-.32c-.53.37-.93.56-1.19.56-.66 0-.88-.38-.68-1.15.1-.37.36-.73.79-1.06 2.16-1.75 3.93-3.57 5.31-5.46.7-.92 1.27-1.39 1.72-1.39.34 0 .58.1.72.31s.17.48.08.81c-.05.2-.18.43-.39.71 1.25 1.06 2.12 1.88 2.61 2.46s.69 1.03.61 1.34c-.21.77-.69 1.15-1.46 1.15-.28 0-.57-.22-.87-.65-.73-1.06-1.47-1.94-2.22-2.62-1.05 1.28-2.45 2.72-4.2 4.34l.27-.06h5.62c.73 0 1 .34.82 1.03s-.64 1.03-1.37 1.03h-1.91l-.87 3.24h2.36c.77 0 1.05.36.86 1.09-.18.69-.66 1.03-1.43 1.03h-2.36l-2.07 7.73 1.1-.12.89-.06c.65-.04.88.29.69 1Zm-6.62-1.83c-.62 0-.84-.34-.65-1.03l.9-3.36c.2-.73.6-1.09 1.22-1.09s.83.36.63 1.09l-.9 3.36c-.18.69-.58 1.03-1.2 1.03Zm8.42-4.48-.82 3.07c-.19.71-.59 1.06-1.21 1.06s-.83-.35-.64-1.06l.8-2.98c.2-.73.6-1.09 1.22-1.09s.84.33.66 1Zm2.66 5.81c-1.85 1.24-3 1.86-3.45 1.86-.67 0-.91-.39-.7-1.18.13-.47.63-.96 1.52-1.47l.8-.47c.2-.12.42-.24.65-.37.23-.13.46-.26.68-.4.81-.49 1.34-.84 1.6-1.03.43-.33.8-.5 1.12-.5.34 0 .56.08.68.25.12.17.12.44.02.81-.12.43-1.09 1.27-2.92 2.51Zm11.76.77c-.23.85-.71 1.27-1.46 1.27-.32 0-.65-.19-1-.56-.35-.37-.75-.94-1.2-1.71-.84-1.42-1.4-3.05-1.7-4.9h-.11l-1.53 5.69c-.4 2.04-1.58 3-3.55 2.86h-1.15c-.79 0-1.08-.36-.89-1.09.2-.75.69-1.12 1.48-1.12h.87c.32 0 .59-.1.82-.29.23-.2.4-.46.51-.8l2.73-10.18h-5.37c-.77 0-1.06-.35-.87-1.06.19-.71.67-1.06 1.44-1.06h9.02l.87-2.21h-7c-1.29 0-1.78-.58-1.47-1.74l.2-.53 2.57-5.07c.28-.57.56-.99.83-1.25.27-.27.56-.4.88-.4.73 0 1.01.3.85.91l-.58 1.21-.08.18h6.24c1.44 0 2.01.57 1.71 1.71l-2.83 7.2h2.14c.77 0 1.06.35.87 1.06-.19.71-.67 1.06-1.44 1.06h-5.96l-.43 1.62c.13.96.39 1.94.76 2.92l3.71-3.16c.34-.29.66-.44.96-.44.36 0 .59.09.71.27.12.18.13.46.02.86-.08.29-.28.57-.59.83l-2.64 1.89-1.53 1-.09.12c.54 1.34 1.43 2.52 2.68 3.54.52.43.72.9.58 1.39Zm-11.56-6.58-.59-1.47a.982.982 0 0 1-.01-.59c.17-.65.59-.97 1.24-.97.39 0 .82.4 1.28 1.21.22.37.37.71.44 1.02.08.31.09.55.05.72-.21.77-.67 1.15-1.4 1.15-.43 0-.77-.35-1.01-1.06Zm11.27-10.59.79-1.92c.11-.25.11-.45 0-.57-.11-.13-.3-.19-.58-.19h-5.76l-.29.56-.29.65-.5 1.03-.02.09c-.03.1 0 .18.07.25.08.07.21.1.39.1h6.18Z"/><path class="cls-3" d="M151.33 9.34c.41 0 .74.1 1 .29.26.19.45.44.58.75.13.3.2.65.2 1.02 0 .38-.04.75-.14 1.12l-.34 1.27h-2.5l-3.41 12.72c-.12.44-.31.85-.58 1.24-.27.39-.58.72-.94 1.01s-.75.52-1.17.68c-.42.17-.85.25-1.28.25h-8.76c-.43 0-.81-.08-1.15-.25-.33-.17-.61-.39-.81-.68s-.34-.63-.4-1.01c-.06-.39-.03-.8.09-1.24l.34-1.27h1.88l3.41-12.72c.12-.44.31-.85.58-1.23.27-.39.58-.72.94-1.01.36-.29.75-.51 1.18-.68.42-.17.85-.25 1.28-.25h10.01Zm-8.24 19.08c.26 0 .52-.05.77-.15.25-.1.49-.24.7-.41.21-.17.4-.37.56-.6.16-.23.28-.48.35-.74l3.75-14c.05-.18.12-.37.23-.59.1-.21.23-.42.38-.61s.31-.35.49-.48.38-.21.6-.23h-9.94c-.26 0-.52.05-.77.15-.25.1-.49.24-.71.41s-.41.37-.57.6c-.16.23-.28.48-.35.74l-3.75 14h6.88c-.07.27-.09.51-.05.74.04.23.12.43.24.6s.29.31.49.41c.2.1.43.15.69.15Zm-6.66-3.18.17-.64h5l-.17.64h-5Zm.51-1.91.17-.64h5l-.17.64h-5Zm.51-1.9.17-.64h5l-.17.64h-5Zm.51-1.91.17-.64h5l-.17.64h-5Zm.51-1.91.17-.63h5l-.17.63h-5Zm.51-1.9.17-.64h5l-.17.64h-5Zm.51-1.91.34-1.27h8.13l-.34 1.27h-8.13Zm3.19 11.45.17-.64h1.87l-.17.64h-1.87Zm.51-1.91.17-.64h1.87l-.17.64h-1.87Zm.51-1.9.17-.64h1.87l-.17.64h-1.87Zm.51-1.91.17-.64h1.87l-.17.64h-1.87Zm.51-1.91.17-.63h1.87l-.17.63h-1.87Zm.51-1.9.17-.64h1.87l-.17.64h-1.87Z"/><path class="cls-1" d="M11.31 20.63c-.04.16-.29.69-.75 1.61-.46.91-1.1 2.07-1.93 3.46-.66 1.12-1.19 2.01-1.59 2.67s-.67 1.09-.79 1.28c-.35.39-.7.59-1.06.59-.81 0-1.09-.44-.85-1.33.08-.29.48-.97 1.22-2.03.58-.85 1.56-2.5 2.93-4.96.62-1.14 1.06-1.83 1.31-2.07.23-.22.5-.32.82-.32.66 0 .89.36.69 1.09Zm-2.88-7.2c.22-.81.72-1.21 1.5-1.21.41 0 .96.18 1.66.53.66.33.91.81.74 1.42-.22.81-.7 1.21-1.45 1.21-.21 0-.71-.22-1.51-.65-.75-.41-1.07-.84-.94-1.3Zm13.28 15.13c-.15.57-.62.88-1.41.94l-10.81.91c-.31.02-.51-.05-.63-.22-.12-.17-.13-.41-.05-.72.17-.63.73-.96 1.67-1 .89-.02 2.24-.11 4.06-.26l1.03-3.83h-3.65c-.67 0-.93-.31-.76-.94.17-.63.59-.94 1.26-.94h3.65l.4-1.47h-1.8c-.32 0-.54-.08-.68-.25-.13-.17-.16-.41-.07-.72.07-.26.18-.45.33-.59-.89.53-1.52.8-1.87.8-.66 0-.88-.38-.67-1.15.1-.37.38-.69.84-.94 1.9-1.02 3.55-2.17 4.94-3.45.59-.53 1.04-.84 1.34-.92a.94.94 0 0 1 0-.41c.06-.24.27-.51.61-.83-.06.02-.14.03-.23.03-.34 0-.56-.22-.67-.65l-1.76 1.21c-1.77 1.22-2.91 1.83-3.41 1.83-.3 0-.5-.1-.61-.29-.11-.2-.11-.47-.02-.83.14-.51.6-.94 1.39-1.3l1.42-5.31c.23-.87.98-1.52 2.24-1.98l1.1-.44.75-.29c.7-.29 1.1-.44 1.21-.44.67 0 .92.34.73 1.03-.11.39-.47.73-1.08 1l-.89.38-1.6.62c-.42.18-.68.44-.78.8l-.97 3.63 2.11-1.18-.21-1.21c-.03-.24-.03-.41 0-.53.07-.26.19-.45.37-.59.18-.14.4-.21.66-.21.19 0 .36.13.51.4.15.27.27.65.36 1.17.22 1.28.31 2.03.27 2.24.83-1 1.52-2.41 2.06-4.22h-.76c-.32 0-.54-.08-.66-.25-.12-.17-.14-.41-.06-.72.18-.67.6-1 1.25-1h3.51c.66 0 1.11.16 1.37.49.26.32.31.79.14 1.4-.06.22-.3 1.03-.74 2.45l-.23.77c-.54 1.65-.98 2.69-1.32 3.13-.71.88-1.67 1.33-2.88 1.33-.36 0-.6-.09-.74-.28-.14-.19-.16-.45-.07-.78.17-.65.65-.99 1.43-1.03.63-.04 1.06-.37 1.28-1 .47-1.34.88-2.63 1.21-3.89.11-.39-.04-.59-.43-.59h-.59c-.99 3.48-2.38 5.71-4.18 6.7.1.2.13.36.09.5-.02.08-.09.2-.21.35 3.07 1.63 4.5 2.83 4.29 3.6-.1.35-.26.63-.49.83-.23.2-.52.3-.88.3-.21 0-.48-.15-.81-.44-1.22-1.1-2.42-2.04-3.61-2.8-1.1.94-2.23 1.8-3.41 2.57l-.27.18c.17-.06.34-.09.53-.09h5.9c.66 0 .9.32.73.94-.17.65-.59.97-1.24.97h-2.05l-.4 1.47h3.65c.3 0 .52.08.65.25.13.17.16.4.08.69-.08.3-.23.53-.45.69-.22.17-.48.25-.78.25h-3.65l-.98 3.66c1.93-.16 3.33-.26 4.19-.32l.29-.03c.56-.06.75.24.58.88ZM11.13 5.77c.12-.45.42-.79.89-1 .02-.02.1-.06.24-.12.14-.06.24-.08.31-.06.55.1 1.12.34 1.71.74.34.22.57.44.69.66.13.23.16.47.09.72-.1.37-.32.7-.65.97-.24.2-.48.29-.73.29-.17 0-.67-.26-1.51-.77-.82-.49-1.17-.97-1.05-1.45Zm.29 20.94c-.02-.12-.06-.31-.1-.59s-.04-.49 0-.65c.05-.2.21-.38.47-.55.26-.17.52-.25.78-.25.21 0 .37.06.5.19.12.13.23.33.33.6.23.63.29 1.13.19 1.5-.17.63-.6.94-1.29.94-.45 0-.74-.4-.88-1.21Zm9.68-1.09c-.06.22-.31.6-.76 1.15-.44.53-.86.8-1.25.8-.66 0-.9-.3-.74-.91.06-.22.3-.59.72-1.12.46-.59.88-.88 1.28-.88.67 0 .92.32.75.97ZM34.85 5.35l-5.99 22.36c-.27 1.02-.69 1.77-1.26 2.24s-1.31.68-2.23.62h-1.55c-.82 0-1.13-.38-.93-1.15.21-.77.72-1.15 1.54-1.15h1.1c.71 0 1.18-.38 1.4-1.15l5.83-21.77c.22-.81.67-1.21 1.36-1.21s.93.4.72 1.21ZM24.34 24.97c-.67 0-.91-.38-.7-1.15l4.37-16.31c.21-.79.65-1.18 1.33-1.18s.91.39.7 1.18l-4.37 16.31c-.21.77-.65 1.15-1.32 1.15ZM61.67 26.5c-.45 1.69-1.13 2.73-2.02 3.13-.87.37-2.61.56-5.24.56l-3.01-.09c-1.38-.02-1.97-.58-1.77-1.68l.62-2.33h-3.23c-1.79 2.97-5.38 4.45-10.78 4.45-.79 0-1.08-.35-.9-1.06.16-.59.85-.9 2.07-.92 4.11-.1 6.62-.92 7.52-2.48h-3.17c-.88 0-1.47-.18-1.77-.53-.3-.36-.3-.93-.01-1.74l1.28-4.78c.29-1.65 1.29-2.42 3.01-2.3H58.8c.86 0 1.44.18 1.72.55.29.36.28.95 0 1.76l-1.28 4.78c-.29 1.63-1.27 2.39-2.94 2.27h-4.02l-.36 1.33c-.11.41-.05.67.19.77.29.12 1.14.18 2.57.18 1.95 0 3.21-.09 3.78-.26.44-.12.76-.55.94-1.3.11-.49.29-.84.52-1.05.23-.21.55-.31.94-.31.73 0 1 .35.81 1.06ZM40.26 13.61l1.83-6.81c.38-1.44 1.28-2.15 2.68-2.15h8.49c.32 0 .53.07.65.21.11.14.13.35.05.65-.15.57-.54.86-1.16.86h-3.48l-.4 1.48h1.71c1.27 0 1.76.59 1.46 1.77l-.32 1.18c-.33 1.24-1.14 1.83-2.41 1.77h-1.71l-.42 1.56h3.46c.62 0 .85.28.71.83-.15.57-.54.86-1.16.86h-8.51c-1.37 0-1.86-.73-1.47-2.18Zm2.38 10.94h13.57c.47 0 .77-.25.9-.74l.13-.47H42.26l-.13.47c-.13.49.04.74.5.74Zm-.41-11.06c-.11.41.02.62.4.62h2.78l.42-1.56h-3.34l-.25.94Zm.71 7.31-.3 1.12h14.98l.3-1.12H42.94Zm-.03-9.85h6.35c.39 0 .67-.28.82-.86.12-.43-.02-.65-.42-.65h-6.35l-.4 1.5Zm.42 8.41h14.98l.08-.29c.14-.53-.02-.8-.49-.8H44.33a.82.82 0 0 0-.57.21c-.16.14-.27.33-.34.59l-.08.29Zm.42-11.53h3.34l.4-1.48h-2.78c-.38 0-.62.2-.72.59l-.24.89Zm10.95 2.98h8.66c1.2 0 1.67.51 1.42 1.53l-.51 1.92c-.28 1.06-1.02 1.59-2.2 1.59h-8.65c-1.2 0-1.68-.5-1.45-1.5l.51-1.92c.29-1.08 1.03-1.62 2.23-1.62Zm-1.42-3.42c.65-.53 1.16-.99 1.52-1.39l.48-.53c.28-.28.57-.58.86-.92.46-.51.88-.77 1.27-.77.69 0 .97.27.83.8-.04.14-.22.4-.55.8h8.68c.62 0 .85.29.7.86-.15.57-.54.86-1.16.86h-9.86c-1.62 1.65-2.67 2.48-3.14 2.48-.6 0-.81-.33-.63-1 .08-.31.41-.71.99-1.18Zm.46 6.46c-.09.33.07.52.5.56h1.18l.58-2.15h-1.18c-.43 0-.7.19-.8.56l-.28 1.03Zm1.55-4.1c-.56 0-.77-.27-.63-.8s.49-.8 1.06-.8h8.91c.26 0 .45.07.56.21.11.14.13.33.07.59-.14.53-.49.8-1.06.8h-8.91Zm2.33 2.51-.58 2.15h1.88l.58-2.15h-1.88Zm2.94 2.15h1.32c.43 0 .7-.19.8-.56l.28-1.03c.09-.33-.08-.52-.5-.56h-1.32l-.58 2.15ZM67.66 26.86c.05-.18.18-.44.41-.8.99-1.61 1.78-3.3 2.37-5.07.25-.73.65-1.09 1.19-1.09.66 0 .9.33.72 1-.38 1.44-.98 2.92-1.78 4.45-.85 1.65-1.58 2.48-2.18 2.48-.66 0-.9-.33-.72-.97Zm4 3.7c-.14-.23-.15-.56-.03-.99l3-11.21-3.82.41c-.38.04-.63-.06-.75-.3s-.11-.58 0-1.03c.1-.37.32-.66.66-.87.34-.21.78-.31 1.32-.31.28 0 .71-.02 1.28-.06l2.31-2.45c-.67-.81-1.49-1.63-2.48-2.48-.67-.59-.94-1.11-.82-1.56.21-.77.65-1.15 1.35-1.15.3 0 .69.26 1.17.77.94-1.14 2.03-2.6 3.26-4.39.27-.39.53-.68.78-.86.24-.18.51-.27.79-.27.84 0 1.15.41.93 1.24-.18.67-1.69 2.48-4.54 5.43l1.29 1.39 2.32-2.77c1.08-1.3 1.87-1.95 2.38-1.95.81 0 1.1.39.89 1.18-.22.81-2.56 3.4-7.03 7.79l3.41-.24-.08-.65c-.04-.41-.05-.67-.02-.77.17-.65.6-.97 1.27-.97.28 0 .5.15.65.46.15.31.26.77.31 1.4.19 1.75.25 2.74.18 2.98-.19.71-.65 1.06-1.38 1.06a.65.65 0 0 1-.62-.37c-.13-.25-.21-.65-.25-1.22l-2.43.35-3.06 11.42c-.24.89-.74 1.33-1.51 1.33-.36 0-.6-.11-.74-.34Zm5.58-4.62.4-4.75.09-.53c.09-.55.47-.83 1.15-.83.47 0 .71.26.72.77.04.71 0 1.75-.08 3.13l-.11 1.24-.12.86c-.05.33-.19.6-.42.78-.23.19-.51.28-.85.28-.54 0-.81-.31-.79-.94Zm4.04 3.69c-1.15-.2-1.55-.93-1.21-2.21l2.7-10.09c.26-.96.64-1.66 1.13-2.08.5-.42 1.18-.6 2.04-.54h5.65c.36 0 .61-.06.75-.19.15-.13.27-.38.37-.75l1.34-5.01c.09-.35.1-.58.02-.69-.08-.11-.3-.16-.66-.16H85.6c-.45 0-.75-.08-.92-.25-.16-.17-.19-.44-.09-.81.1-.37.27-.64.53-.81.25-.17.6-.25 1.05-.25h8.43c.92 0 1.53.19 1.83.57.3.38.3 1.03 0 1.93l-1.6 5.96c-.26.96-.64 1.66-1.15 2.08-.51.42-1.19.6-2.06.55h-5.65c-.34 0-.59.07-.74.21-.16.14-.29.4-.4.8l-2.32 8.64c-.12.45-.14.75-.06.9s.33.23.73.25c2.2.04 3.84.06 4.93.06.96 0 1.69-.23 2.21-.68.34-.28.68-.95 1.02-2.04.14-.45.33-.79.58-1 .25-.22.55-.32.93-.32.41 0 .68.1.8.31s.12.54 0 .99c-.52 1.93-1.26 3.26-2.23 4.01-.73.55-2.54.83-5.45.83-2.51 0-4.09-.06-4.73-.18ZM108.38 27.71c-.11.41-.33.7-.65.86-.15.08-.58.18-1.28.31-.7.13-1.53.26-2.48.4-.61.1-1.53.23-2.77.38l-1.45.18c-.38.04-.64-.05-.77-.27-.13-.22-.14-.52-.04-.91.19-.71.87-1.11 2.04-1.21l2.61-.29 2.14-7.99h-2.72c-.79 0-1.09-.34-.9-1.03.19-.73.69-1.09 1.47-1.09h2.73l.87-3.24h-1.52c-.75 0-1.03-.34-.85-1.03l.14-.32c-.53.37-.93.56-1.19.56-.66 0-.88-.38-.68-1.15.1-.37.36-.73.79-1.06 2.16-1.75 3.93-3.57 5.31-5.46.7-.92 1.27-1.39 1.72-1.39.34 0 .58.1.72.31s.17.48.08.81c-.05.2-.18.43-.39.71 1.25 1.06 2.12 1.88 2.61 2.46s.69 1.03.61 1.34c-.21.77-.69 1.15-1.46 1.15-.28 0-.57-.22-.87-.65-.73-1.06-1.47-1.94-2.22-2.62-1.05 1.28-2.45 2.72-4.2 4.34l.27-.06h5.62c.73 0 1 .34.82 1.03s-.64 1.03-1.37 1.03h-1.91l-.87 3.24h2.36c.77 0 1.05.36.86 1.09-.18.69-.66 1.03-1.43 1.03h-2.36l-2.07 7.73 1.1-.12.89-.06c.65-.04.88.29.69 1Zm-6.62-1.83c-.62 0-.84-.34-.65-1.03l.9-3.36c.2-.73.6-1.09 1.22-1.09s.83.36.63 1.09l-.9 3.36c-.18.69-.58 1.03-1.2 1.03Zm8.42-4.48-.82 3.07c-.19.71-.59 1.06-1.21 1.06s-.83-.35-.64-1.06l.8-2.98c.2-.73.6-1.09 1.22-1.09s.84.33.66 1Zm2.66 5.81c-1.85 1.24-3 1.86-3.45 1.86-.67 0-.91-.39-.7-1.18.13-.47.63-.96 1.52-1.47l.8-.47c.2-.12.42-.24.65-.37.23-.13.46-.26.68-.4.81-.49 1.34-.84 1.6-1.03.43-.33.8-.5 1.12-.5.34 0 .56.08.68.25.12.17.12.44.02.81-.12.43-1.09 1.27-2.92 2.51Zm11.76.77c-.23.85-.71 1.27-1.46 1.27-.32 0-.65-.19-1-.56-.35-.37-.75-.94-1.2-1.71-.84-1.42-1.4-3.05-1.7-4.9h-.11l-1.53 5.69c-.4 2.04-1.58 3-3.55 2.86h-1.15c-.79 0-1.08-.36-.89-1.09.2-.75.69-1.12 1.48-1.12h.87c.32 0 .59-.1.82-.29.23-.2.4-.46.51-.8l2.73-10.18h-5.37c-.77 0-1.06-.35-.87-1.06.19-.71.67-1.06 1.44-1.06h9.02l.87-2.21h-7c-1.29 0-1.78-.58-1.47-1.74l.2-.53 2.57-5.07c.28-.57.56-.99.83-1.25.27-.27.56-.4.88-.4.73 0 1.01.3.85.91l-.58 1.21-.08.18h6.24c1.44 0 2.01.57 1.71 1.71l-2.83 7.2h2.14c.77 0 1.06.35.87 1.06-.19.71-.67 1.06-1.44 1.06h-5.96l-.43 1.62c.13.96.39 1.94.76 2.92l3.71-3.16c.34-.29.66-.44.96-.44.36 0 .59.09.71.27.12.18.13.46.02.86-.08.29-.28.57-.59.83l-2.64 1.89-1.53 1-.09.12c.54 1.34 1.43 2.52 2.68 3.54.52.43.72.9.58 1.39Zm-11.56-6.58-.59-1.47a.982.982 0 0 1-.01-.59c.17-.65.59-.97 1.24-.97.39 0 .82.4 1.28 1.21.22.37.37.71.44 1.02.08.31.09.55.05.72-.21.77-.67 1.15-1.4 1.15-.43 0-.77-.35-1.01-1.06Zm11.27-10.59.79-1.92c.11-.25.11-.45 0-.57-.11-.13-.3-.19-.58-.19h-5.76l-.29.56-.29.65-.5 1.03-.02.09c-.03.1 0 .18.07.25.08.07.21.1.39.1h6.18ZM151.33 9.34c.41 0 .74.1 1 .29.26.19.45.44.58.75.13.3.2.65.2 1.02 0 .38-.04.75-.14 1.12l-.34 1.27h-2.5l-3.41 12.72c-.12.44-.31.85-.58 1.24-.27.39-.58.72-.94 1.01s-.75.52-1.17.68c-.42.17-.85.25-1.28.25h-8.76c-.43 0-.81-.08-1.15-.25-.33-.17-.61-.39-.81-.68s-.34-.63-.4-1.01c-.06-.39-.03-.8.09-1.24l.34-1.27h1.88l3.41-12.72c.12-.44.31-.85.58-1.23.27-.39.58-.72.94-1.01.36-.29.75-.51 1.18-.68.42-.17.85-.25 1.28-.25h10.01Zm-8.24 19.08c.26 0 .52-.05.77-.15.25-.1.49-.24.7-.41.21-.17.4-.37.56-.6.16-.23.28-.48.35-.74l3.75-14c.05-.18.12-.37.23-.59.1-.21.23-.42.38-.61s.31-.35.49-.48.38-.21.6-.23h-9.94c-.26 0-.52.05-.77.15-.25.1-.49.24-.71.41s-.41.37-.57.6c-.16.23-.28.48-.35.74l-3.75 14h6.88c-.07.27-.09.51-.05.74.04.23.12.43.24.6s.29.31.49.41c.2.1.43.15.69.15Zm-6.66-3.18.17-.64h5l-.17.64h-5Zm.51-1.91.17-.64h5l-.17.64h-5Zm.51-1.9.17-.64h5l-.17.64h-5Zm.51-1.91.17-.64h5l-.17.64h-5Zm.51-1.91.17-.63h5l-.17.63h-5Zm.51-1.9.17-.64h5l-.17.64h-5Zm.51-1.91.34-1.27h8.13l-.34 1.27h-8.13Zm3.19 11.45.17-.64h1.87l-.17.64h-1.87Zm.51-1.91.17-.64h1.87l-.17.64h-1.87Zm.51-1.9.17-.64h1.87l-.17.64h-1.87Zm.51-1.91.17-.64h1.87l-.17.64h-1.87Zm.51-1.91.17-.63h1.87l-.17.63h-1.87Zm.51-1.9.17-.64h1.87l-.17.64h-1.87Z"/></svg>