<svg xmlns="http://www.w3.org/2000/svg" width="36.72" height="36.72" viewBox="0 0 36.72 36.72">
  <g id="yesgo_icon元件-18" transform="translate(-0.39 -0.39)">
    <path id="Path_48" data-name="Path 48" d="M37.11,18.75A18.36,18.36,0,1,1,18.75.39,18.36,18.36,0,0,1,37.11,18.75Z" fill="#f8412e"/>
    <g id="Group_12" data-name="Group 12">
      <path id="Path_49" data-name="Path 49" d="M24,25.8H6.23A3.64,3.64,0,0,0,9.85,29h17.8a3.64,3.64,0,0,0,3.62-3.23Z" fill="none" stroke="#fff" stroke-linecap="round" stroke-linejoin="round" stroke-width="1"/>
      <path id="Path_50" data-name="Path 50" d="M26.44,23.78l-1.22-8.61a1.91,1.91,0,0,0-1.91-1.91H14.19a1.91,1.91,0,0,0-1.91,1.91l-1.22,8.61" fill="none" stroke="#fff" stroke-linecap="round" stroke-linejoin="round" stroke-width="1"/>
      <path id="Path_51" data-name="Path 51" d="M21,10.69a2.5,2.5,0,1,1-2.5-2.5,2.5,2.5,0,0,1,2.5,2.5Z" fill="none" stroke="#fff" stroke-linecap="round" stroke-linejoin="round" stroke-width="1"/>
      <path id="Path_52" data-name="Path 52" d="M20.74,5.68a2.51,2.51,0,0,0-2.51,2.51V9.62" fill="none" stroke="#fff" stroke-linecap="round" stroke-linejoin="round" stroke-width="1"/>
      <path id="Path_53" data-name="Path 53" d="M25.43,16.49H19.15v4.45a2,2,0,0,1-2,2h0a2,2,0,0,1-2-2V16.49H12.28" fill="none" stroke="#fff" stroke-linecap="round" stroke-linejoin="round" stroke-width="1"/>
    </g>
  </g>
</svg>
