<svg id="圖層_1" data-name="圖層 1" xmlns="http://www.w3.org/2000/svg" viewBox="0 0 1601.12 10.23">
  <defs>
    <style>
      .cls-1 {
        fill: none;
        stroke: #f8412e;
        stroke-miterlimit: 10;
        stroke-width: 2px;
      }
    </style>
  </defs>
  <g>
    <line class="cls-1" x1="1.18" y1="9" x2="9.54" y2="1.23"/>
    <line class="cls-1" x1="8.38" y1="9" x2="16.74" y2="1.23"/>
    <line class="cls-1" x1="15.57" y1="9" x2="23.94" y2="1.23"/>
    <line class="cls-1" x1="22.77" y1="9" x2="31.13" y2="1.23"/>
    <line class="cls-1" x1="29.97" y1="9" x2="38.33" y2="1.23"/>
    <line class="cls-1" x1="37.16" y1="9" x2="45.52" y2="1.23"/>
    <line class="cls-1" x1="44.36" y1="9" x2="52.72" y2="1.23"/>
    <line class="cls-1" x1="51.55" y1="9" x2="59.92" y2="1.23"/>
    <line class="cls-1" x1="58.75" y1="9" x2="67.11" y2="1.23"/>
    <line class="cls-1" x1="65.95" y1="9" x2="74.31" y2="1.23"/>
    <line class="cls-1" x1="73.14" y1="9" x2="81.51" y2="1.23"/>
    <line class="cls-1" x1="80.34" y1="9" x2="88.7" y2="1.23"/>
    <line class="cls-1" x1="87.54" y1="9" x2="95.9" y2="1.23"/>
    <line class="cls-1" x1="94.73" y1="9" x2="103.1" y2="1.23"/>
    <line class="cls-1" x1="101.93" y1="9" x2="110.29" y2="1.23"/>
    <line class="cls-1" x1="109.13" y1="9" x2="117.49" y2="1.23"/>
    <line class="cls-1" x1="116.32" y1="9" x2="124.68" y2="1.23"/>
    <line class="cls-1" x1="123.52" y1="9" x2="131.88" y2="1.23"/>
    <line class="cls-1" x1="130.72" y1="9" x2="139.08" y2="1.23"/>
    <line class="cls-1" x1="137.91" y1="9" x2="146.27" y2="1.23"/>
    <line class="cls-1" x1="145.11" y1="9" x2="153.47" y2="1.23"/>
    <line class="cls-1" x1="152.3" y1="9" x2="160.67" y2="1.23"/>
    <line class="cls-1" x1="159.5" y1="9" x2="167.86" y2="1.23"/>
    <line class="cls-1" x1="166.7" y1="9" x2="175.06" y2="1.23"/>
    <line class="cls-1" x1="173.89" y1="9" x2="182.26" y2="1.23"/>
    <line class="cls-1" x1="181.09" y1="9" x2="189.45" y2="1.23"/>
    <line class="cls-1" x1="188.29" y1="9" x2="196.65" y2="1.23"/>
    <line class="cls-1" x1="195.48" y1="9" x2="203.84" y2="1.23"/>
    <line class="cls-1" x1="202.68" y1="9" x2="211.04" y2="1.23"/>
    <line class="cls-1" x1="209.88" y1="9" x2="218.24" y2="1.23"/>
    <line class="cls-1" x1="217.07" y1="9" x2="225.43" y2="1.23"/>
    <line class="cls-1" x1="224.27" y1="9" x2="232.63" y2="1.23"/>
    <line class="cls-1" x1="231.46" y1="9" x2="239.83" y2="1.23"/>
    <line class="cls-1" x1="238.66" y1="9" x2="247.02" y2="1.23"/>
    <line class="cls-1" x1="245.86" y1="9" x2="254.22" y2="1.23"/>
    <line class="cls-1" x1="253.05" y1="9" x2="261.42" y2="1.23"/>
    <line class="cls-1" x1="260.25" y1="9" x2="268.61" y2="1.23"/>
    <line class="cls-1" x1="267.45" y1="9" x2="275.81" y2="1.23"/>
    <line class="cls-1" x1="274.64" y1="9" x2="283" y2="1.23"/>
    <line class="cls-1" x1="281.84" y1="9" x2="290.2" y2="1.23"/>
    <line class="cls-1" x1="289.04" y1="9" x2="297.4" y2="1.23"/>
    <line class="cls-1" x1="296.23" y1="9" x2="304.59" y2="1.23"/>
    <line class="cls-1" x1="303.43" y1="9" x2="311.79" y2="1.23"/>
    <line class="cls-1" x1="310.62" y1="9" x2="318.99" y2="1.23"/>
    <line class="cls-1" x1="317.82" y1="9" x2="326.18" y2="1.23"/>
    <line class="cls-1" x1="325.02" y1="9" x2="333.38" y2="1.23"/>
    <line class="cls-1" x1="332.21" y1="9" x2="340.58" y2="1.23"/>
    <line class="cls-1" x1="339.41" y1="9" x2="347.77" y2="1.23"/>
    <line class="cls-1" x1="346.61" y1="9" x2="354.97" y2="1.23"/>
    <line class="cls-1" x1="353.8" y1="9" x2="362.17" y2="1.23"/>
    <line class="cls-1" x1="361" y1="9" x2="369.36" y2="1.23"/>
    <line class="cls-1" x1="368.2" y1="9" x2="376.56" y2="1.23"/>
    <line class="cls-1" x1="375.39" y1="9" x2="383.75" y2="1.23"/>
    <line class="cls-1" x1="382.59" y1="9" x2="390.95" y2="1.23"/>
    <line class="cls-1" x1="389.78" y1="9" x2="398.15" y2="1.23"/>
    <line class="cls-1" x1="396.98" y1="9" x2="405.34" y2="1.23"/>
    <line class="cls-1" x1="404.18" y1="9" x2="412.54" y2="1.23"/>
    <line class="cls-1" x1="411.37" y1="9" x2="419.74" y2="1.23"/>
    <line class="cls-1" x1="418.57" y1="9" x2="426.93" y2="1.23"/>
    <line class="cls-1" x1="425.77" y1="9" x2="434.13" y2="1.23"/>
    <line class="cls-1" x1="432.96" y1="9" x2="441.33" y2="1.23"/>
    <line class="cls-1" x1="440.16" y1="9" x2="448.52" y2="1.23"/>
    <line class="cls-1" x1="447.36" y1="9" x2="455.72" y2="1.23"/>
    <line class="cls-1" x1="454.55" y1="9" x2="462.91" y2="1.23"/>
    <line class="cls-1" x1="461.75" y1="9" x2="470.11" y2="1.23"/>
    <line class="cls-1" x1="468.95" y1="9" x2="477.31" y2="1.23"/>
    <line class="cls-1" x1="476.14" y1="9" x2="484.5" y2="1.23"/>
    <line class="cls-1" x1="483.34" y1="9" x2="491.7" y2="1.23"/>
    <line class="cls-1" x1="490.53" y1="9" x2="498.9" y2="1.23"/>
    <line class="cls-1" x1="497.73" y1="9" x2="506.09" y2="1.23"/>
    <line class="cls-1" x1="504.93" y1="9" x2="513.29" y2="1.23"/>
    <line class="cls-1" x1="512.12" y1="9" x2="520.49" y2="1.23"/>
    <line class="cls-1" x1="519.32" y1="9" x2="527.68" y2="1.23"/>
    <line class="cls-1" x1="526.52" y1="9" x2="534.88" y2="1.23"/>
    <line class="cls-1" x1="533.71" y1="9" x2="542.07" y2="1.23"/>
    <line class="cls-1" x1="540.91" y1="9" x2="549.27" y2="1.23"/>
    <line class="cls-1" x1="548.11" y1="9" x2="556.47" y2="1.23"/>
    <line class="cls-1" x1="555.3" y1="9" x2="563.66" y2="1.23"/>
    <line class="cls-1" x1="562.5" y1="9" x2="570.86" y2="1.23"/>
    <line class="cls-1" x1="569.69" y1="9" x2="578.06" y2="1.23"/>
    <line class="cls-1" x1="576.89" y1="9" x2="585.25" y2="1.23"/>
    <line class="cls-1" x1="584.09" y1="9" x2="592.45" y2="1.23"/>
    <line class="cls-1" x1="591.28" y1="9" x2="599.65" y2="1.23"/>
    <line class="cls-1" x1="598.48" y1="9" x2="606.84" y2="1.23"/>
    <line class="cls-1" x1="605.68" y1="9" x2="614.04" y2="1.23"/>
    <line class="cls-1" x1="612.87" y1="9" x2="621.23" y2="1.23"/>
    <line class="cls-1" x1="620.07" y1="9" x2="628.43" y2="1.23"/>
    <line class="cls-1" x1="627.27" y1="9" x2="635.63" y2="1.23"/>
    <line class="cls-1" x1="634.46" y1="9" x2="642.82" y2="1.23"/>
    <line class="cls-1" x1="641.66" y1="9" x2="650.02" y2="1.23"/>
    <line class="cls-1" x1="648.85" y1="9" x2="657.22" y2="1.23"/>
    <line class="cls-1" x1="656.05" y1="9" x2="664.41" y2="1.23"/>
    <line class="cls-1" x1="663.25" y1="9" x2="671.61" y2="1.23"/>
    <line class="cls-1" x1="670.44" y1="9" x2="678.81" y2="1.23"/>
    <line class="cls-1" x1="677.64" y1="9" x2="686" y2="1.23"/>
    <line class="cls-1" x1="684.84" y1="9" x2="693.2" y2="1.23"/>
    <line class="cls-1" x1="692.03" y1="9" x2="700.39" y2="1.23"/>
    <line class="cls-1" x1="699.23" y1="9" x2="707.59" y2="1.23"/>
    <line class="cls-1" x1="706.43" y1="9" x2="714.79" y2="1.23"/>
    <line class="cls-1" x1="713.62" y1="9" x2="721.98" y2="1.23"/>
    <line class="cls-1" x1="720.82" y1="9" x2="729.18" y2="1.23"/>
    <line class="cls-1" x1="728.01" y1="9" x2="736.38" y2="1.23"/>
    <line class="cls-1" x1="735.21" y1="9" x2="743.57" y2="1.23"/>
    <line class="cls-1" x1="742.41" y1="9" x2="750.77" y2="1.23"/>
    <line class="cls-1" x1="749.6" y1="9" x2="757.97" y2="1.23"/>
    <line class="cls-1" x1="756.8" y1="9" x2="765.16" y2="1.23"/>
    <line class="cls-1" x1="764" y1="9" x2="772.36" y2="1.23"/>
    <line class="cls-1" x1="771.19" y1="9" x2="779.56" y2="1.23"/>
    <line class="cls-1" x1="778.39" y1="9" x2="786.75" y2="1.23"/>
    <line class="cls-1" x1="785.59" y1="9" x2="793.95" y2="1.23"/>
    <line class="cls-1" x1="792.78" y1="9" x2="801.14" y2="1.23"/>
    <line class="cls-1" x1="799.98" y1="9" x2="808.34" y2="1.23"/>
    <line class="cls-1" x1="807.18" y1="9" x2="815.54" y2="1.23"/>
    <line class="cls-1" x1="814.37" y1="9" x2="822.73" y2="1.23"/>
    <line class="cls-1" x1="821.57" y1="9" x2="829.93" y2="1.23"/>
    <line class="cls-1" x1="828.76" y1="9" x2="837.13" y2="1.23"/>
    <line class="cls-1" x1="835.96" y1="9" x2="844.32" y2="1.23"/>
    <line class="cls-1" x1="843.16" y1="9" x2="851.52" y2="1.23"/>
    <line class="cls-1" x1="850.35" y1="9" x2="858.72" y2="1.23"/>
    <line class="cls-1" x1="857.55" y1="9" x2="865.91" y2="1.23"/>
    <line class="cls-1" x1="864.75" y1="9" x2="873.11" y2="1.23"/>
    <line class="cls-1" x1="871.94" y1="9" x2="880.3" y2="1.23"/>
    <line class="cls-1" x1="879.14" y1="9" x2="887.5" y2="1.23"/>
    <line class="cls-1" x1="886.34" y1="9" x2="894.7" y2="1.23"/>
    <line class="cls-1" x1="893.53" y1="9" x2="901.89" y2="1.23"/>
    <line class="cls-1" x1="900.73" y1="9" x2="909.09" y2="1.23"/>
    <line class="cls-1" x1="907.92" y1="9" x2="916.29" y2="1.23"/>
    <line class="cls-1" x1="915.12" y1="9" x2="923.48" y2="1.23"/>
    <line class="cls-1" x1="922.32" y1="9" x2="930.68" y2="1.23"/>
    <line class="cls-1" x1="929.51" y1="9" x2="937.88" y2="1.23"/>
    <line class="cls-1" x1="936.71" y1="9" x2="945.07" y2="1.23"/>
    <line class="cls-1" x1="943.91" y1="9" x2="952.27" y2="1.23"/>
    <line class="cls-1" x1="951.1" y1="9" x2="959.46" y2="1.23"/>
    <line class="cls-1" x1="958.3" y1="9" x2="966.66" y2="1.23"/>
    <line class="cls-1" x1="965.5" y1="9" x2="973.86" y2="1.23"/>
    <line class="cls-1" x1="972.69" y1="9" x2="981.05" y2="1.23"/>
    <line class="cls-1" x1="979.89" y1="9" x2="988.25" y2="1.23"/>
    <line class="cls-1" x1="987.08" y1="9" x2="995.45" y2="1.23"/>
    <line class="cls-1" x1="994.28" y1="9" x2="1002.64" y2="1.23"/>
    <line class="cls-1" x1="1001.48" y1="9" x2="1009.84" y2="1.23"/>
    <line class="cls-1" x1="1008.67" y1="9" x2="1017.04" y2="1.23"/>
    <line class="cls-1" x1="1015.87" y1="9" x2="1024.23" y2="1.23"/>
    <line class="cls-1" x1="1023.07" y1="9" x2="1031.43" y2="1.23"/>
    <line class="cls-1" x1="1030.26" y1="9" x2="1038.63" y2="1.23"/>
    <line class="cls-1" x1="1037.46" y1="9" x2="1045.82" y2="1.23"/>
    <line class="cls-1" x1="1044.66" y1="9" x2="1053.02" y2="1.23"/>
    <line class="cls-1" x1="1051.85" y1="9" x2="1060.21" y2="1.23"/>
    <line class="cls-1" x1="1059.05" y1="9" x2="1067.41" y2="1.23"/>
    <line class="cls-1" x1="1066.24" y1="9" x2="1074.61" y2="1.23"/>
    <line class="cls-1" x1="1073.44" y1="9" x2="1081.8" y2="1.23"/>
    <line class="cls-1" x1="1080.64" y1="9" x2="1089" y2="1.23"/>
    <line class="cls-1" x1="1087.83" y1="9" x2="1096.2" y2="1.23"/>
    <line class="cls-1" x1="1095.03" y1="9" x2="1103.39" y2="1.23"/>
    <line class="cls-1" x1="1102.23" y1="9" x2="1110.59" y2="1.23"/>
    <line class="cls-1" x1="1109.42" y1="9" x2="1117.79" y2="1.23"/>
    <line class="cls-1" x1="1116.62" y1="9" x2="1124.98" y2="1.23"/>
    <line class="cls-1" x1="1123.82" y1="9" x2="1132.18" y2="1.23"/>
    <line class="cls-1" x1="1131.01" y1="9" x2="1139.37" y2="1.23"/>
    <line class="cls-1" x1="1138.21" y1="9" x2="1146.57" y2="1.23"/>
    <line class="cls-1" x1="1145.41" y1="9" x2="1153.77" y2="1.23"/>
    <line class="cls-1" x1="1152.6" y1="9" x2="1160.96" y2="1.23"/>
    <line class="cls-1" x1="1159.8" y1="9" x2="1168.16" y2="1.23"/>
    <line class="cls-1" x1="1166.99" y1="9" x2="1175.36" y2="1.23"/>
    <line class="cls-1" x1="1174.19" y1="9" x2="1182.55" y2="1.23"/>
    <line class="cls-1" x1="1181.39" y1="9" x2="1189.75" y2="1.23"/>
    <line class="cls-1" x1="1188.58" y1="9" x2="1196.95" y2="1.23"/>
    <line class="cls-1" x1="1195.78" y1="9" x2="1204.14" y2="1.23"/>
    <line class="cls-1" x1="1202.98" y1="9" x2="1211.34" y2="1.23"/>
    <line class="cls-1" x1="1210.17" y1="9" x2="1218.53" y2="1.23"/>
    <line class="cls-1" x1="1217.37" y1="9" x2="1225.73" y2="1.23"/>
    <line class="cls-1" x1="1224.57" y1="9" x2="1232.93" y2="1.23"/>
    <line class="cls-1" x1="1231.76" y1="9" x2="1240.12" y2="1.23"/>
    <line class="cls-1" x1="1238.96" y1="9" x2="1247.32" y2="1.23"/>
    <line class="cls-1" x1="1246.15" y1="9" x2="1254.52" y2="1.23"/>
    <line class="cls-1" x1="1253.35" y1="9" x2="1261.71" y2="1.23"/>
    <line class="cls-1" x1="1260.55" y1="9" x2="1268.91" y2="1.23"/>
    <line class="cls-1" x1="1267.74" y1="9" x2="1276.11" y2="1.23"/>
    <line class="cls-1" x1="1274.94" y1="9" x2="1283.3" y2="1.23"/>
    <line class="cls-1" x1="1282.14" y1="9" x2="1290.5" y2="1.23"/>
    <line class="cls-1" x1="1289.33" y1="9" x2="1297.69" y2="1.23"/>
    <line class="cls-1" x1="1296.53" y1="9" x2="1304.89" y2="1.23"/>
    <line class="cls-1" x1="1303.73" y1="9" x2="1312.09" y2="1.23"/>
    <line class="cls-1" x1="1310.92" y1="9" x2="1319.28" y2="1.23"/>
    <line class="cls-1" x1="1318.12" y1="9" x2="1326.48" y2="1.23"/>
    <line class="cls-1" x1="1325.31" y1="9" x2="1333.68" y2="1.23"/>
    <line class="cls-1" x1="1332.51" y1="9" x2="1340.87" y2="1.23"/>
    <line class="cls-1" x1="1339.71" y1="9" x2="1348.07" y2="1.23"/>
    <line class="cls-1" x1="1346.9" y1="9" x2="1355.27" y2="1.23"/>
    <line class="cls-1" x1="1354.1" y1="9" x2="1362.46" y2="1.23"/>
    <line class="cls-1" x1="1361.3" y1="9" x2="1369.66" y2="1.23"/>
    <line class="cls-1" x1="1368.49" y1="9" x2="1376.86" y2="1.23"/>
    <line class="cls-1" x1="1375.69" y1="9" x2="1384.05" y2="1.23"/>
    <line class="cls-1" x1="1382.89" y1="9" x2="1391.25" y2="1.23"/>
    <line class="cls-1" x1="1390.08" y1="9" x2="1398.44" y2="1.23"/>
    <line class="cls-1" x1="1397.28" y1="9" x2="1405.64" y2="1.23"/>
    <line class="cls-1" x1="1404.47" y1="9" x2="1412.84" y2="1.23"/>
    <line class="cls-1" x1="1411.67" y1="9" x2="1420.03" y2="1.23"/>
    <line class="cls-1" x1="1418.87" y1="9" x2="1427.23" y2="1.23"/>
    <line class="cls-1" x1="1426.06" y1="9" x2="1434.43" y2="1.23"/>
    <line class="cls-1" x1="1433.26" y1="9" x2="1441.62" y2="1.23"/>
    <line class="cls-1" x1="1440.46" y1="9" x2="1448.82" y2="1.23"/>
    <line class="cls-1" x1="1447.65" y1="9" x2="1456.02" y2="1.23"/>
    <line class="cls-1" x1="1454.85" y1="9" x2="1463.21" y2="1.23"/>
    <line class="cls-1" x1="1462.05" y1="9" x2="1470.41" y2="1.23"/>
    <line class="cls-1" x1="1469.24" y1="9" x2="1477.6" y2="1.23"/>
    <line class="cls-1" x1="1476.44" y1="9" x2="1484.8" y2="1.23"/>
    <line class="cls-1" x1="1483.64" y1="9" x2="1492" y2="1.23"/>
    <line class="cls-1" x1="1490.83" y1="9" x2="1499.19" y2="1.23"/>
    <line class="cls-1" x1="1498.03" y1="9" x2="1506.39" y2="1.23"/>
    <line class="cls-1" x1="1505.22" y1="9" x2="1513.59" y2="1.23"/>
    <line class="cls-1" x1="1512.42" y1="9" x2="1520.78" y2="1.23"/>
    <line class="cls-1" x1="1519.62" y1="9" x2="1527.98" y2="1.23"/>
    <line class="cls-1" x1="1526.81" y1="9" x2="1535.18" y2="1.23"/>
    <line class="cls-1" x1="1534.01" y1="9" x2="1542.37" y2="1.23"/>
    <line class="cls-1" x1="1541.21" y1="9" x2="1549.57" y2="1.23"/>
    <line class="cls-1" x1="1548.4" y1="9" x2="1556.76" y2="1.23"/>
    <line class="cls-1" x1="1555.6" y1="9" x2="1563.96" y2="1.23"/>
    <line class="cls-1" x1="1562.8" y1="9" x2="1571.16" y2="1.23"/>
    <line class="cls-1" x1="1569.99" y1="9" x2="1578.35" y2="1.23"/>
    <line class="cls-1" x1="1577.19" y1="9" x2="1585.55" y2="1.23"/>
    <line class="cls-1" x1="1584.38" y1="9" x2="1592.75" y2="1.23"/>
    <line class="cls-1" x1="1591.58" y1="9" x2="1599.94" y2="1.23"/>
  </g>
</svg>
