<svg id="圖層_1" data-name="圖層 1" xmlns="http://www.w3.org/2000/svg" viewBox="0 0 41.5 41.5">
  <defs>
    <style>
      .cls-1 {
        fill: #50af42;
      }

      .cls-2 {
        fill: #fff;
      }
    </style>
  </defs>
  <g>
    <path class="cls-1" d="M41,20.75A20.25,20.25,0,1,1,20.75.5,20.25,20.25,0,0,1,41,20.75Z"/>
    <path class="cls-2" d="M33.69,16.72c0-.13-.07-.26-.1-.38a9.6,9.6,0,0,0-1.65-3.15,10.54,10.54,0,0,0-1.15-1.26l-.15-.14s0,0,0,0l0,0a14.68,14.68,0,0,0-9.81-3.55C13.45,8.17,7.53,13,7.53,18.91A9.06,9.06,0,0,0,9.66,24.7l.39.47A11.92,11.92,0,0,0,12.19,27a13.4,13.4,0,0,0,3,1.55,14.68,14.68,0,0,0,2.69.74c.31.06.63.1.94.17a1.82,1.82,0,0,1,.69.29.72.72,0,0,1,.33.48,2.16,2.16,0,0,1,0,.67c-.05.39-.11.77-.17,1.16s-.07.49-.09.73a.43.43,0,0,0,0,.16.35.35,0,0,0,.25.3l0,0h.29l.38-.11a6.27,6.27,0,0,0,1-.51c.87-.48,1.7-1,2.53-1.54,1-.67,2-1.37,3-2.1.73-.55,1.44-1.13,2.13-1.73.49-.42,1-.87,1.42-1.34.18-.2.37-.39.54-.6A9.2,9.2,0,0,0,34,18.91,8.88,8.88,0,0,0,33.69,16.72ZM16.12,22a.27.27,0,0,1-.28.27H12.17a.27.27,0,0,1-.29-.3V16.33a.28.28,0,0,1,.31-.31H13a.3.3,0,0,1,.32.32c0,1.44,0,2.88,0,4.33v.17h2.54a.27.27,0,0,1,.24.26Zm2.17.17a.29.29,0,0,1-.23.1h-.88a.27.27,0,0,1-.29-.3V16.35a.61.61,0,0,1,0-.14.28.28,0,0,1,.29-.19H18c.22,0,.32.11.32.33V22A.36.36,0,0,1,18.29,22.21ZM24.73,22a.3.3,0,0,1-.06.2.23.23,0,0,1-.2.11h-.95a.29.29,0,0,1-.23-.14l-.5-.67L21,19l-.24-.33h0v3.34a.27.27,0,0,1-.25.26h-1a.26.26,0,0,1-.25-.26V16.3a.26.26,0,0,1,.26-.28h.93a.32.32,0,0,1,.26.16l.49.67,2,2.74.06.07V16.3a.28.28,0,0,1,.28-.28h.37c.17,0,.33,0,.5,0a.29.29,0,0,1,.32.31Zm5.11-4.86v.12a.27.27,0,0,1-.25.22h-2.5a4.86,4.86,0,0,0,0,.94h2.49a.27.27,0,0,1,.27.28v.92c0,.17-.11.27-.3.27H27.09a4.87,4.87,0,0,0,0,.94H29.6a.28.28,0,0,1,.24.24v1a.29.29,0,0,1-.24.22H25.89A.28.28,0,0,1,25.6,22V16.41c0-.3.08-.39.39-.39h3.49c.27,0,.36.09.36.36Z"/>
  </g>
</svg>
