<?xml version="1.0" encoding="utf-8"?>
<!-- Generator: Adobe Illustrator 27.3.1, SVG Export Plug-In . SVG Version: 6.00 Build 0)  -->
<svg version="1.1" id="yesgo_icon元件-22_00000018196143420256056100000000010872038408126122_"
	 xmlns="http://www.w3.org/2000/svg" xmlns:xlink="http://www.w3.org/1999/xlink" x="0px" y="0px" viewBox="0 0 36.7 36.7"
	 style="enable-background:new 0 0 36.7 36.7;" xml:space="preserve">
<style type="text/css">
	.st0{fill:#F0F0F2;}
	.st1{fill:#4D4D4D;}
</style>
<path id="Path_107" class="st0" d="M36.7,18.4c0,10.1-8.2,18.4-18.4,18.4S0,28.5,0,18.4S8.2,0,18.4,0l0,0C28.5,0,36.7,8.2,36.7,18.4
	z"/>
<g id="Group_22">
	<path class="st1" d="M20.4,30h-4.1c-1.7,0-3.1-1.4-3.1-3.1c0-0.2,0-0.4,0-0.6l1.5-8.2c0-0.1,0-0.2,0-0.3c0-1-0.8-1.8-1.8-1.8
		c-0.5,0-0.9,0.2-1.3,0.6l-0.7-0.7c0.6-0.6,1.3-0.9,2-0.9c1.6,0,2.8,1.3,2.8,2.8c0,0.2,0,0.3,0,0.5l-1.5,8.2c0,0.1,0,0.2,0,0.4
		c0,1.1,0.9,2.1,2.1,2.1h4.1c1.1,0,2.1-0.9,2.1-2.1c0-0.1,0-0.2,0-0.4L21,18.4c0-0.2,0-0.3,0-0.5c0-1.6,1.3-2.8,2.8-2.8
		c0.7,0,1.5,0.3,2,0.9l-0.7,0.7c-0.4-0.4-0.8-0.6-1.3-0.6c-1,0-1.8,0.8-1.8,1.8c0,0.1,0,0.2,0,0.3l1.5,8.2c0,0.2,0,0.4,0,0.6
		C23.5,28.6,22.1,30,20.4,30z"/>
	<path class="st1" d="M25.1,22.8c-1.3,0-2.5-0.5-3.4-1.3l0.7-0.8c0.8,0.7,1.7,1,2.7,1c2.3,0,4.1-1.9,4.1-4.1c0-5.7-4.6-9.8-10.9-9.8
		S7.5,11.9,7.5,17.6c0,2.3,1.9,4.1,4.1,4.1c1,0,2-0.4,2.7-1l0.7,0.8c-0.9,0.8-2.2,1.3-3.4,1.3c-2.9,0-5.2-2.3-5.2-5.2
		c0-6.3,5-10.9,11.9-10.9s11.9,4.6,11.9,10.9C30.3,20.4,27.9,22.8,25.1,22.8z"/>
</g>
</svg>
