<svg id="圖層_1" data-name="圖層 1" xmlns="http://www.w3.org/2000/svg" viewBox="0 0 1601.12 37">
  <defs>
    <style>
      .cls-1 {
        fill: none;
        stroke: #f8412e;
        stroke-miterlimit: 10;
        stroke-width: 2px;
      }

      .cls-2 {
        fill: #f8412e;
      }
    </style>
  </defs>
  <g>
    <line class="cls-1" x1="1.18" y1="24.71" x2="9.54" y2="16.94"/>
    <line class="cls-1" x1="7.87" y1="24.71" x2="16.23" y2="16.94"/>
    <line class="cls-1" x1="14.55" y1="24.71" x2="22.92" y2="16.94"/>
    <line class="cls-1" x1="21.24" y1="24.71" x2="29.6" y2="16.94"/>
    <line class="cls-1" x1="27.93" y1="24.71" x2="36.29" y2="16.94"/>
    <line class="cls-1" x1="34.62" y1="24.71" x2="42.98" y2="16.94"/>
    <line class="cls-1" x1="41.3" y1="24.71" x2="49.67" y2="16.94"/>
    <line class="cls-1" x1="47.99" y1="24.71" x2="56.35" y2="16.94"/>
    <line class="cls-1" x1="54.68" y1="24.71" x2="63.04" y2="16.94"/>
    <line class="cls-1" x1="61.36" y1="24.71" x2="69.73" y2="16.94"/>
    <line class="cls-1" x1="68.05" y1="24.71" x2="76.41" y2="16.94"/>
    <line class="cls-1" x1="74.74" y1="24.71" x2="83.1" y2="16.94"/>
    <line class="cls-1" x1="81.43" y1="24.71" x2="89.79" y2="16.94"/>
    <line class="cls-1" x1="88.11" y1="24.71" x2="96.48" y2="16.94"/>
    <line class="cls-1" x1="94.8" y1="24.71" x2="103.16" y2="16.94"/>
    <line class="cls-1" x1="101.49" y1="24.71" x2="109.85" y2="16.94"/>
    <line class="cls-1" x1="108.17" y1="24.71" x2="116.54" y2="16.94"/>
    <line class="cls-1" x1="114.86" y1="24.71" x2="123.22" y2="16.94"/>
    <line class="cls-1" x1="121.55" y1="24.71" x2="129.91" y2="16.94"/>
    <line class="cls-1" x1="128.24" y1="24.71" x2="136.6" y2="16.94"/>
    <line class="cls-1" x1="134.92" y1="24.71" x2="143.29" y2="16.94"/>
    <line class="cls-1" x1="141.61" y1="24.71" x2="149.97" y2="16.94"/>
    <line class="cls-1" x1="148.3" y1="24.71" x2="156.66" y2="16.94"/>
    <line class="cls-1" x1="154.98" y1="24.71" x2="163.35" y2="16.94"/>
    <line class="cls-1" x1="161.67" y1="24.71" x2="170.03" y2="16.94"/>
    <line class="cls-1" x1="168.36" y1="24.71" x2="176.72" y2="16.94"/>
    <line class="cls-1" x1="175.05" y1="24.71" x2="183.41" y2="16.94"/>
    <line class="cls-1" x1="181.73" y1="24.71" x2="190.1" y2="16.94"/>
    <line class="cls-1" x1="188.42" y1="24.71" x2="196.78" y2="16.94"/>
    <line class="cls-1" x1="195.11" y1="24.71" x2="203.47" y2="16.94"/>
    <line class="cls-1" x1="201.79" y1="24.71" x2="210.16" y2="16.94"/>
    <line class="cls-1" x1="208.48" y1="24.71" x2="216.84" y2="16.94"/>
    <line class="cls-1" x1="215.17" y1="24.71" x2="223.53" y2="16.94"/>
    <line class="cls-1" x1="221.86" y1="24.71" x2="230.22" y2="16.94"/>
    <line class="cls-1" x1="228.54" y1="24.71" x2="236.91" y2="16.94"/>
    <line class="cls-1" x1="235.23" y1="24.71" x2="243.59" y2="16.94"/>
    <line class="cls-1" x1="241.92" y1="24.71" x2="250.28" y2="16.94"/>
    <line class="cls-1" x1="248.6" y1="24.71" x2="256.97" y2="16.94"/>
    <line class="cls-1" x1="255.29" y1="24.71" x2="263.65" y2="16.94"/>
    <line class="cls-1" x1="261.98" y1="24.71" x2="270.34" y2="16.94"/>
    <line class="cls-1" x1="268.67" y1="24.71" x2="277.03" y2="16.94"/>
    <line class="cls-1" x1="275.35" y1="24.71" x2="283.72" y2="16.94"/>
    <line class="cls-1" x1="282.04" y1="24.71" x2="290.4" y2="16.94"/>
    <line class="cls-1" x1="288.73" y1="24.71" x2="297.09" y2="16.94"/>
    <line class="cls-1" x1="295.41" y1="24.71" x2="303.78" y2="16.94"/>
    <line class="cls-1" x1="302.1" y1="24.71" x2="310.46" y2="16.94"/>
    <line class="cls-1" x1="308.79" y1="24.71" x2="317.15" y2="16.94"/>
    <line class="cls-1" x1="315.48" y1="24.71" x2="323.84" y2="16.94"/>
    <line class="cls-1" x1="322.16" y1="24.71" x2="330.52" y2="16.94"/>
    <line class="cls-1" x1="328.85" y1="24.71" x2="337.21" y2="16.94"/>
    <line class="cls-1" x1="335.54" y1="24.71" x2="343.9" y2="16.94"/>
    <line class="cls-1" x1="342.22" y1="24.71" x2="350.59" y2="16.94"/>
    <line class="cls-1" x1="348.91" y1="24.71" x2="357.27" y2="16.94"/>
    <line class="cls-1" x1="355.6" y1="24.71" x2="363.96" y2="16.94"/>
    <line class="cls-1" x1="362.29" y1="24.71" x2="370.65" y2="16.94"/>
    <line class="cls-1" x1="368.97" y1="24.71" x2="377.33" y2="16.94"/>
    <line class="cls-1" x1="375.66" y1="24.71" x2="384.02" y2="16.94"/>
    <line class="cls-1" x1="382.35" y1="24.71" x2="390.71" y2="16.94"/>
    <line class="cls-1" x1="389.03" y1="24.71" x2="397.4" y2="16.94"/>
    <line class="cls-1" x1="395.72" y1="24.71" x2="404.08" y2="16.94"/>
    <line class="cls-1" x1="402.41" y1="24.71" x2="410.77" y2="16.94"/>
    <line class="cls-1" x1="409.1" y1="24.71" x2="417.46" y2="16.94"/>
    <line class="cls-1" x1="415.78" y1="24.71" x2="424.14" y2="16.94"/>
    <line class="cls-1" x1="422.47" y1="24.71" x2="430.83" y2="16.94"/>
    <line class="cls-1" x1="429.16" y1="24.71" x2="437.52" y2="16.94"/>
    <line class="cls-1" x1="435.84" y1="24.71" x2="444.21" y2="16.94"/>
    <line class="cls-1" x1="442.53" y1="24.71" x2="450.89" y2="16.94"/>
    <line class="cls-1" x1="449.22" y1="24.71" x2="457.58" y2="16.94"/>
    <line class="cls-1" x1="455.91" y1="24.71" x2="464.27" y2="16.94"/>
    <line class="cls-1" x1="462.59" y1="24.71" x2="470.95" y2="16.94"/>
    <line class="cls-1" x1="469.28" y1="24.71" x2="477.64" y2="16.94"/>
    <line class="cls-1" x1="475.97" y1="24.71" x2="484.33" y2="16.94"/>
    <line class="cls-1" x1="482.65" y1="24.71" x2="491.02" y2="16.94"/>
    <line class="cls-1" x1="489.34" y1="24.71" x2="497.7" y2="16.94"/>
    <line class="cls-1" x1="496.03" y1="24.71" x2="504.39" y2="16.94"/>
    <line class="cls-1" x1="502.72" y1="24.71" x2="511.08" y2="16.94"/>
    <line class="cls-1" x1="509.4" y1="24.71" x2="517.76" y2="16.94"/>
    <line class="cls-1" x1="516.09" y1="24.71" x2="524.45" y2="16.94"/>
    <line class="cls-1" x1="522.78" y1="24.71" x2="531.14" y2="16.94"/>
    <line class="cls-1" x1="529.46" y1="24.71" x2="537.83" y2="16.94"/>
    <line class="cls-1" x1="536.15" y1="24.71" x2="544.51" y2="16.94"/>
    <line class="cls-1" x1="542.84" y1="24.71" x2="551.2" y2="16.94"/>
    <line class="cls-1" x1="549.53" y1="24.71" x2="557.89" y2="16.94"/>
    <line class="cls-1" x1="556.21" y1="24.71" x2="564.57" y2="16.94"/>
    <line class="cls-1" x1="562.9" y1="24.71" x2="571.26" y2="16.94"/>
    <line class="cls-1" x1="569.59" y1="24.71" x2="577.95" y2="16.94"/>
    <line class="cls-1" x1="576.27" y1="24.71" x2="584.64" y2="16.94"/>
    <line class="cls-1" x1="582.96" y1="24.71" x2="591.32" y2="16.94"/>
    <line class="cls-1" x1="589.65" y1="24.71" x2="598.01" y2="16.94"/>
    <line class="cls-1" x1="596.34" y1="24.71" x2="604.7" y2="16.94"/>
    <line class="cls-1" x1="603.02" y1="24.71" x2="611.38" y2="16.94"/>
    <line class="cls-1" x1="609.71" y1="24.71" x2="618.07" y2="16.94"/>
    <line class="cls-1" x1="616.4" y1="24.71" x2="624.76" y2="16.94"/>
    <line class="cls-1" x1="623.08" y1="24.71" x2="631.45" y2="16.94"/>
    <line class="cls-1" x1="629.77" y1="24.71" x2="638.13" y2="16.94"/>
    <line class="cls-1" x1="636.46" y1="24.71" x2="644.82" y2="16.94"/>
    <line class="cls-1" x1="643.15" y1="24.71" x2="651.51" y2="16.94"/>
    <line class="cls-1" x1="649.83" y1="24.71" x2="658.19" y2="16.94"/>
    <line class="cls-1" x1="656.52" y1="24.71" x2="664.88" y2="16.94"/>
    <line class="cls-1" x1="663.21" y1="24.71" x2="671.57" y2="16.94"/>
    <line class="cls-1" x1="669.89" y1="24.71" x2="678.26" y2="16.94"/>
    <line class="cls-1" x1="676.58" y1="24.71" x2="684.94" y2="16.94"/>
  </g>
  <g>
    <line class="cls-1" x1="916.18" y1="24.71" x2="924.54" y2="16.94"/>
    <line class="cls-1" x1="922.87" y1="24.71" x2="931.23" y2="16.94"/>
    <line class="cls-1" x1="929.55" y1="24.71" x2="937.92" y2="16.94"/>
    <line class="cls-1" x1="936.24" y1="24.71" x2="944.6" y2="16.94"/>
    <line class="cls-1" x1="942.93" y1="24.71" x2="951.29" y2="16.94"/>
    <line class="cls-1" x1="949.62" y1="24.71" x2="957.98" y2="16.94"/>
    <line class="cls-1" x1="956.3" y1="24.71" x2="964.67" y2="16.94"/>
    <line class="cls-1" x1="962.99" y1="24.71" x2="971.35" y2="16.94"/>
    <line class="cls-1" x1="969.68" y1="24.71" x2="978.04" y2="16.94"/>
    <line class="cls-1" x1="976.36" y1="24.71" x2="984.73" y2="16.94"/>
    <line class="cls-1" x1="983.05" y1="24.71" x2="991.41" y2="16.94"/>
    <line class="cls-1" x1="989.74" y1="24.71" x2="998.1" y2="16.94"/>
    <line class="cls-1" x1="996.43" y1="24.71" x2="1004.79" y2="16.94"/>
    <line class="cls-1" x1="1003.11" y1="24.71" x2="1011.48" y2="16.94"/>
    <line class="cls-1" x1="1009.8" y1="24.71" x2="1018.16" y2="16.94"/>
    <line class="cls-1" x1="1016.49" y1="24.71" x2="1024.85" y2="16.94"/>
    <line class="cls-1" x1="1023.17" y1="24.71" x2="1031.54" y2="16.94"/>
    <line class="cls-1" x1="1029.86" y1="24.71" x2="1038.22" y2="16.94"/>
    <line class="cls-1" x1="1036.55" y1="24.71" x2="1044.91" y2="16.94"/>
    <line class="cls-1" x1="1043.24" y1="24.71" x2="1051.6" y2="16.94"/>
    <line class="cls-1" x1="1049.92" y1="24.71" x2="1058.29" y2="16.94"/>
    <line class="cls-1" x1="1056.61" y1="24.71" x2="1064.97" y2="16.94"/>
    <line class="cls-1" x1="1063.3" y1="24.71" x2="1071.66" y2="16.94"/>
    <line class="cls-1" x1="1069.98" y1="24.71" x2="1078.35" y2="16.94"/>
    <line class="cls-1" x1="1076.67" y1="24.71" x2="1085.03" y2="16.94"/>
    <line class="cls-1" x1="1083.36" y1="24.71" x2="1091.72" y2="16.94"/>
    <line class="cls-1" x1="1090.05" y1="24.71" x2="1098.41" y2="16.94"/>
    <line class="cls-1" x1="1096.73" y1="24.71" x2="1105.1" y2="16.94"/>
    <line class="cls-1" x1="1103.42" y1="24.71" x2="1111.78" y2="16.94"/>
    <line class="cls-1" x1="1110.11" y1="24.71" x2="1118.47" y2="16.94"/>
    <line class="cls-1" x1="1116.79" y1="24.71" x2="1125.16" y2="16.94"/>
    <line class="cls-1" x1="1123.48" y1="24.71" x2="1131.84" y2="16.94"/>
    <line class="cls-1" x1="1130.17" y1="24.71" x2="1138.53" y2="16.94"/>
    <line class="cls-1" x1="1136.86" y1="24.71" x2="1145.22" y2="16.94"/>
    <line class="cls-1" x1="1143.54" y1="24.71" x2="1151.91" y2="16.94"/>
    <line class="cls-1" x1="1150.23" y1="24.71" x2="1158.59" y2="16.94"/>
    <line class="cls-1" x1="1156.92" y1="24.71" x2="1165.28" y2="16.94"/>
    <line class="cls-1" x1="1163.6" y1="24.71" x2="1171.97" y2="16.94"/>
    <line class="cls-1" x1="1170.29" y1="24.71" x2="1178.65" y2="16.94"/>
    <line class="cls-1" x1="1176.98" y1="24.71" x2="1185.34" y2="16.94"/>
    <line class="cls-1" x1="1183.67" y1="24.71" x2="1192.03" y2="16.94"/>
    <line class="cls-1" x1="1190.35" y1="24.71" x2="1198.72" y2="16.94"/>
    <line class="cls-1" x1="1197.04" y1="24.71" x2="1205.4" y2="16.94"/>
    <line class="cls-1" x1="1203.73" y1="24.71" x2="1212.09" y2="16.94"/>
    <line class="cls-1" x1="1210.41" y1="24.71" x2="1218.78" y2="16.94"/>
    <line class="cls-1" x1="1217.1" y1="24.71" x2="1225.46" y2="16.94"/>
    <line class="cls-1" x1="1223.79" y1="24.71" x2="1232.15" y2="16.94"/>
    <line class="cls-1" x1="1230.48" y1="24.71" x2="1238.84" y2="16.94"/>
    <line class="cls-1" x1="1237.16" y1="24.71" x2="1245.52" y2="16.94"/>
    <line class="cls-1" x1="1243.85" y1="24.71" x2="1252.21" y2="16.94"/>
    <line class="cls-1" x1="1250.54" y1="24.71" x2="1258.9" y2="16.94"/>
    <line class="cls-1" x1="1257.22" y1="24.71" x2="1265.59" y2="16.94"/>
    <line class="cls-1" x1="1263.91" y1="24.71" x2="1272.27" y2="16.94"/>
    <line class="cls-1" x1="1270.6" y1="24.71" x2="1278.96" y2="16.94"/>
    <line class="cls-1" x1="1277.29" y1="24.71" x2="1285.65" y2="16.94"/>
    <line class="cls-1" x1="1283.97" y1="24.71" x2="1292.33" y2="16.94"/>
    <line class="cls-1" x1="1290.66" y1="24.71" x2="1299.02" y2="16.94"/>
    <line class="cls-1" x1="1297.35" y1="24.71" x2="1305.71" y2="16.94"/>
    <line class="cls-1" x1="1304.03" y1="24.71" x2="1312.4" y2="16.94"/>
    <line class="cls-1" x1="1310.72" y1="24.71" x2="1319.08" y2="16.94"/>
    <line class="cls-1" x1="1317.41" y1="24.71" x2="1325.77" y2="16.94"/>
    <line class="cls-1" x1="1324.1" y1="24.71" x2="1332.46" y2="16.94"/>
    <line class="cls-1" x1="1330.78" y1="24.71" x2="1339.14" y2="16.94"/>
    <line class="cls-1" x1="1337.47" y1="24.71" x2="1345.83" y2="16.94"/>
    <line class="cls-1" x1="1344.16" y1="24.71" x2="1352.52" y2="16.94"/>
    <line class="cls-1" x1="1350.84" y1="24.71" x2="1359.21" y2="16.94"/>
    <line class="cls-1" x1="1357.53" y1="24.71" x2="1365.89" y2="16.94"/>
    <line class="cls-1" x1="1364.22" y1="24.71" x2="1372.58" y2="16.94"/>
    <line class="cls-1" x1="1370.91" y1="24.71" x2="1379.27" y2="16.94"/>
    <line class="cls-1" x1="1377.59" y1="24.71" x2="1385.95" y2="16.94"/>
    <line class="cls-1" x1="1384.28" y1="24.71" x2="1392.64" y2="16.94"/>
    <line class="cls-1" x1="1390.97" y1="24.71" x2="1399.33" y2="16.94"/>
    <line class="cls-1" x1="1397.65" y1="24.71" x2="1406.02" y2="16.94"/>
    <line class="cls-1" x1="1404.34" y1="24.71" x2="1412.7" y2="16.94"/>
    <line class="cls-1" x1="1411.03" y1="24.71" x2="1419.39" y2="16.94"/>
    <line class="cls-1" x1="1417.72" y1="24.71" x2="1426.08" y2="16.94"/>
    <line class="cls-1" x1="1424.4" y1="24.71" x2="1432.76" y2="16.94"/>
    <line class="cls-1" x1="1431.09" y1="24.71" x2="1439.45" y2="16.94"/>
    <line class="cls-1" x1="1437.78" y1="24.71" x2="1446.14" y2="16.94"/>
    <line class="cls-1" x1="1444.46" y1="24.71" x2="1452.83" y2="16.94"/>
    <line class="cls-1" x1="1451.15" y1="24.71" x2="1459.51" y2="16.94"/>
    <line class="cls-1" x1="1457.84" y1="24.71" x2="1466.2" y2="16.94"/>
    <line class="cls-1" x1="1464.53" y1="24.71" x2="1472.89" y2="16.94"/>
    <line class="cls-1" x1="1471.21" y1="24.71" x2="1479.57" y2="16.94"/>
    <line class="cls-1" x1="1477.9" y1="24.71" x2="1486.26" y2="16.94"/>
    <line class="cls-1" x1="1484.59" y1="24.71" x2="1492.95" y2="16.94"/>
    <line class="cls-1" x1="1491.27" y1="24.71" x2="1499.64" y2="16.94"/>
    <line class="cls-1" x1="1497.96" y1="24.71" x2="1506.32" y2="16.94"/>
    <line class="cls-1" x1="1504.65" y1="24.71" x2="1513.01" y2="16.94"/>
    <line class="cls-1" x1="1511.34" y1="24.71" x2="1519.7" y2="16.94"/>
    <line class="cls-1" x1="1518.02" y1="24.71" x2="1526.38" y2="16.94"/>
    <line class="cls-1" x1="1524.71" y1="24.71" x2="1533.07" y2="16.94"/>
    <line class="cls-1" x1="1531.4" y1="24.71" x2="1539.76" y2="16.94"/>
    <line class="cls-1" x1="1538.08" y1="24.71" x2="1546.45" y2="16.94"/>
    <line class="cls-1" x1="1544.77" y1="24.71" x2="1553.13" y2="16.94"/>
    <line class="cls-1" x1="1551.46" y1="24.71" x2="1559.82" y2="16.94"/>
    <line class="cls-1" x1="1558.15" y1="24.71" x2="1566.51" y2="16.94"/>
    <line class="cls-1" x1="1564.83" y1="24.71" x2="1573.19" y2="16.94"/>
    <line class="cls-1" x1="1571.52" y1="24.71" x2="1579.88" y2="16.94"/>
    <line class="cls-1" x1="1578.21" y1="24.71" x2="1586.57" y2="16.94"/>
    <line class="cls-1" x1="1584.89" y1="24.71" x2="1593.26" y2="16.94"/>
    <line class="cls-1" x1="1591.58" y1="24.71" x2="1599.94" y2="16.94"/>
  </g>
  <g>
    <g>
      <path class="cls-2" d="M855.45,31.49,850.8,32a.5.5,0,0,1-.56-.69l.34-1.08a1.17,1.17,0,0,1,1-.82h3.92A2.08,2.08,0,0,0,857.43,28a1,1,0,0,0-1-1.44h-3.92c-.45,0-.67-.37-.52-.82l.39-1.24a1.15,1.15,0,0,1,1-.78h3.3a4.39,4.39,0,0,0,3.91-3l1.87-5.93a2.11,2.11,0,0,0-2-3h-3.3a.56.56,0,0,1-.53-.79l.17-.53a1.16,1.16,0,0,1,1-.78h5.64a2.23,2.23,0,0,0,2-1.49,1.06,1.06,0,0,0-1-1.52h-5.65c-.45,0-.66-.37-.52-.82l.15-.49a1.18,1.18,0,0,1,1.05-.83l3.34-.12a2.36,2.36,0,0,0,2-1.57c.26-.82-.19-1.48-.93-1.44L852,1.9a2.31,2.31,0,0,0-2,1.52,1,1,0,0,0,1,1.4l3.86-.12a.54.54,0,0,1,.59.74l-.11.37a1.24,1.24,0,0,1-1.09.82h-5.54a2.26,2.26,0,0,0-2,1.52,1.09,1.09,0,0,0,1.06,1.49h5.55a.57.57,0,0,1,.57.78l-.16.53a1.22,1.22,0,0,1-1.07.79h-3.49a4.42,4.42,0,0,0-3.91,3l-1.87,5.93c-.53,1.68.37,3,2,3h3.5a.57.57,0,0,1,.57.78L849,25.69a1.23,1.23,0,0,1-1.08.82h-3.82A2.16,2.16,0,0,0,842.25,28a1,1,0,0,0,1,1.44h3.82a.58.58,0,0,1,.57.82l-.44,1.4a1.36,1.36,0,0,1-1.07.91l-4.87.45a2.55,2.55,0,0,0-2,1.65c-.26.82.25,1.44,1,1.36l14.22-1.53a2.59,2.59,0,0,0,2.11-1.68A.93.93,0,0,0,855.45,31.49Zm-.1-16.42a1.17,1.17,0,0,1,1-.82h3c.46,0,.67.37.53.82l-.11.33a1.16,1.16,0,0,1-1,.78h-3a.55.55,0,0,1-.53-.78Zm-1.58,5a1.17,1.17,0,0,1,1-.82h3c.45,0,.67.37.53.82l-.1.29a1.15,1.15,0,0,1-1,.78h-3a.55.55,0,0,1-.53-.78Zm-3,.29a1.22,1.22,0,0,1-1.07.78h-3.12a.55.55,0,0,1-.54-.78l.09-.29a1.17,1.17,0,0,1,1-.82h3.12a.59.59,0,0,1,.57.82Zm1.56-5a1.21,1.21,0,0,1-1.07.78H848.1a.55.55,0,0,1-.54-.78l.1-.33a1.19,1.19,0,0,1,1-.82h3.12a.58.58,0,0,1,.57.82Z"/>
      <path class="cls-2" d="M878.05,8.38h-4.69a.22.22,0,0,1-.21-.31l1.69-5.35A1.27,1.27,0,0,0,873.7.9a2.61,2.61,0,0,0-2.4,1.77l-1.7,5.4a.47.47,0,0,1-.4.31h-1.53A2.45,2.45,0,0,0,865.52,10a1.19,1.19,0,0,0,1.16,1.67h1.48a.22.22,0,0,1,.21.3l-.7,2.22c-.45,1.31-6.08,11.23-11.27,20.07-.55.94-.3,1.92.57,2.18a1.61,1.61,0,0,0,.44.06,2.62,2.62,0,0,0,2.13-1.31c2.57-4.37,11-18.8,11.68-21l.7-2.22a.47.47,0,0,1,.4-.31h3.58a.55.55,0,0,1,.53.78l-5.86,18.6a2.44,2.44,0,0,1-2.16,1.64h-.94a2.38,2.38,0,0,0-2.1,1.6h0a1.13,1.13,0,0,0,1.1,1.6h1.25a6.89,6.89,0,0,0,6.08-4.63l6.28-19.92A2.1,2.1,0,0,0,878.05,8.38Z"/>
    </g>
    <g>
      <g>
        <path class="cls-2" d="M752.85,22.06a1,1,0,0,1-1-1.4l.27-.86a.41.41,0,0,0-.39-.57H731.5a.87.87,0,0,0-.72.57l-.27.86a2.11,2.11,0,0,1-1.84,1.4,1,1,0,0,1-1-1.4l.48-1.52a4,4,0,0,1,3.61-2.71h.56a1.22,1.22,0,0,0,1-.83l2.17-6.87a4.47,4.47,0,0,1,3.89-3h2.44a2.34,2.34,0,0,0,1.63-.69L743.6,5a.37.37,0,0,0-.21-.66H736a1,1,0,0,1-1-1.48A2.25,2.25,0,0,1,737,1.3h20.58a1.07,1.07,0,0,1,1,1.52A2.19,2.19,0,0,1,756.6,4.3h-8.35a2.6,2.6,0,0,0-1.57.69l-.07.08c-.27.33-.14.7.19.7h5.76a2.1,2.1,0,0,1,2,3l-2.17,6.87a.59.59,0,0,0,.53.83h.4c1.52,0,2.32,1.38,1.84,2.91l-.48,1.51A1.89,1.89,0,0,1,752.85,22.06Zm-20.08,1.19c-.92.91-3.45,2.82-4.54,2.82h-.29c-.78,0-1-.82-.35-1.51.9-1,3.42-2.86,4.52-2.86h.13C733,21.7,733.4,22.56,732.77,23.25Zm10.07,8.41c-.63.4-.27.74.07.82l5.18,1.19a1.21,1.21,0,0,1,.8,1.65,1.59,1.59,0,0,1-1.65,1.07l-8.15-2a3.8,3.8,0,0,0-1.51,0l-12.11,1.85a.77.77,0,0,1-.89-1.07,2.15,2.15,0,0,1,1.67-1.4l8.14-1.15c.26,0,.41-.37.23-.45l-2.84-1.69a.3.3,0,0,0-.31,0,3.18,3.18,0,0,1-1.63.5h-1c-.66,0-.66-.79-.09-1.16l1.75-1.11a10.71,10.71,0,0,1,5.82-1.89h9.57c1.23,0,1.81,1.36.48,2.39Zm-6.72-11.45a1,1,0,0,1,.94,1.32l-.23.74c-.11.33.06.58.35.58h7.9a1,1,0,0,1,1,1.4,2.05,2.05,0,0,1-1.83,1.36h-8.39a1.89,1.89,0,0,1-1.88-2.68l.44-1.4A1.94,1.94,0,0,1,736.12,20.21Zm2.58-12a.88.88,0,0,0-.8.57.43.43,0,0,0,.44.58h13a.84.84,0,0,0,.72-.58c.1-.33-.07-.57-.35-.57Zm-1.9,4.07a.42.42,0,0,0,.45.54h13a.82.82,0,0,0,.71-.54c.1-.33-.06-.62-.34-.62H737.61A.94.94,0,0,0,736.8,12.27Zm-1.12,3.54a.45.45,0,0,0,.43.62h13a.88.88,0,0,0,.73-.62c.1-.33,0-.62-.34-.62h-13A1,1,0,0,0,735.68,15.81Zm7,13.78c.59-.3.52-.49.19-.49h-6.77c-.2,0-.38.29-.24.37l3,2c.3.21.52.07,1.1-.29Zm9.1-5.19c.26.62-.44,1.4-1.18,1.4a2.42,2.42,0,0,1-2.36-1.4l-.6-1.35c-.22-.61.47-1.48,1.21-1.48a2.43,2.43,0,0,1,2.37,1.48Z"/>
        <path class="cls-2" d="M813.32,3.32a1.61,1.61,0,0,1,1,2.22A2,2,0,0,1,812.2,6.9l-2.92-1.2a1.67,1.67,0,0,1-1.06-2.26,1.94,1.94,0,0,1,2.18-1.32ZM809.6,13a1.64,1.64,0,0,1,1,2.26,1.93,1.93,0,0,1-2.15,1.32l-3-1.24a1.7,1.7,0,0,1-1-2.26,2,2,0,0,1,2.15-1.36ZM799.49,36c-.94,0-1.33-.87-.88-1.77l5.86-10.41a3.27,3.27,0,0,1,2.7-1.77c1,0,1.38.86.88,1.77l-5.9,10.41A3.21,3.21,0,0,1,799.49,36Zm39.1-22.17a2.57,2.57,0,0,1-2.31,1.73H827.5a1.22,1.22,0,0,0-1,.82l-1.29,4.1a.56.56,0,0,0,.53.78h5.37a2.12,2.12,0,0,1,2,3l-2.41,7.65a4.38,4.38,0,0,1-3.89,3H811a2.09,2.09,0,0,1-2-3l2.41-7.65a4.45,4.45,0,0,1,3.91-3h5.32a1.21,1.21,0,0,0,1-.78l1.29-4.1a.57.57,0,0,0-.52-.82H813.7a1.23,1.23,0,0,1-1.22-1.73A2.65,2.65,0,0,1,814.8,12h8.74a1.16,1.16,0,0,0,1-.78l1.21-3.85c.15-.46-.12-.79-.54-.75l-7.36.46a1.17,1.17,0,0,1-1.27-1.61A2.9,2.9,0,0,1,819,3.58l19.77-1.4A1.13,1.13,0,0,1,840,3.78a2.84,2.84,0,0,1-2.32,1.9l-7.21.49A1.27,1.27,0,0,0,829.4,7l-1.33,4.22a.55.55,0,0,0,.53.78h8.78A1.26,1.26,0,0,1,838.59,13.81Zm-12,17.56a1.12,1.12,0,0,0,1-.78l1.58-5c.14-.45-.07-.82-.52-.82H815.5a1.19,1.19,0,0,0-1,.82l-1.58,5a.54.54,0,0,0,.54.78Z"/>
      </g>
      <path class="cls-2" d="M743.36,22.24a2.34,2.34,0,0,1-2.59-.59l-.59-.61c-.41-.35,0-1.12.64-1.31a2.34,2.34,0,0,1,2.55.51l.62.65C744.44,21.27,744,22,743.36,22.24Z"/>
      <path class="cls-2" d="M720,36.4h0a2.35,2.35,0,0,0,2.08-1.58l9.24-29.34a1.12,1.12,0,0,0-1.08-1.58h0a2.36,2.36,0,0,0-2.08,1.58l-9.24,29.34A1.12,1.12,0,0,0,720,36.4Z"/>
      <path class="cls-2" d="M721.79,17.83h0a2.49,2.49,0,0,0,1.94-1.12l9.33-13.93c.73-1.1.28-2.24-.88-2.24h0a2.47,2.47,0,0,0-1.93,1.12l-9.33,13.93C720.19,16.68,720.64,17.83,721.79,17.83Z"/>
      <path class="cls-2" d="M729.69,30.71l-.66,0c-.8,0-.85-.49-.1-1l3.73-2.7a5.3,5.3,0,0,1,2.8-.92l.67,0c.8,0,.84.49.1,1l-3.74,2.7A5.27,5.27,0,0,1,729.69,30.71Z"/>
    </g>
    <g>
      <g>
        <path class="cls-2" d="M763,28.26A4.67,4.67,0,0,0,759.75,30l-2.29,3c-.67.82-.32,1.68.5,1.68A4.51,4.51,0,0,0,761.17,33l2.33-3C764.13,29.17,763.8,28.26,763,28.26Z"/>
        <path class="cls-2" d="M767.64,5.32h12.72a.7.7,0,0,1,.66.9l-.24.77a1.3,1.3,0,0,1-1.17.71h-8.86a4.27,4.27,0,0,0-3.91,3l-1.69,5.37c-.53,1.68.28,2.88,2.05,2.88h8.86a.72.72,0,0,1,.66.9l-.21.68a1.52,1.52,0,0,1-1.23.9L763,21.52A2.05,2.05,0,0,0,761.11,23c-.28.91.11,1.49,1,1.49l27.21-.44.07-2.74h-.87L780,21.4c-.42,0-.71-.65-.56-1.1l.13-.44a1.59,1.59,0,0,1,1.2-.9h8.85a4.14,4.14,0,0,0,3.92-2.88l1.69-5.37c.53-1.69-.25-3-2.06-3h-8.86c-.41,0-.81-.3-.68-.71l.24-.77a1.52,1.52,0,0,1,1.19-.9h12.76a2.05,2.05,0,0,0,1.91-1.48c.27-.87-.11-1.49-1-1.49H785.57a.39.39,0,0,1-.31-.45c.22-.7,0-1.4-.67-1.4h-.65a1.9,1.9,0,0,0-1.56,1.4.85.85,0,0,1-.59.45H768.58a2.05,2.05,0,0,0-1.91,1.49C766.4,4.7,766.78,5.32,767.64,5.32ZM778,15.59a1.17,1.17,0,0,1-1,.79h-8.59a.56.56,0,0,1-.54-.79l.06-.2a1.17,1.17,0,0,1,1-.79h8.59a.56.56,0,0,1,.54.79Zm1.36-4.31a1.18,1.18,0,0,1-1,.79h-8.59a.57.57,0,0,1-.55-.79l.07-.2a1.16,1.16,0,0,1,1-.79h8.59a.56.56,0,0,1,.54.79Zm3-.2a1.16,1.16,0,0,1,1-.79H792a.56.56,0,0,1,.54.79l-.06.2a1.18,1.18,0,0,1-1,.79h-8.59a.57.57,0,0,1-.55-.79Zm-1.36,4.31a1.18,1.18,0,0,1,1-.79h8.59a.56.56,0,0,1,.54.79l-.06.2a1.17,1.17,0,0,1-1,.79h-8.59a.56.56,0,0,1-.55-.79Z"/>
        <path class="cls-2" d="M776.55,26c-.78,0-1.59.86-1.3,1.52l.36,1.07a2.48,2.48,0,0,0,2.58,1.89c.78,0,1.63-.86,1.31-1.56l-.38-1.15A2.48,2.48,0,0,0,776.55,26Z"/>
        <path class="cls-2" d="M784,32.42H769.73a.5.5,0,0,1-.48-.71l1.45-4.62a1.16,1.16,0,0,0-1.08-1.65,2.29,2.29,0,0,0-2.21,1.65l-1.59,5.06c-.63,2,.47,3.6,2.47,3.6H783a2.33,2.33,0,0,0,2.3-1.68C785.57,33.08,785.11,32.42,784,32.42Z"/>
        <path class="cls-2" d="M791,32.47l-.5-2.75a2.62,2.62,0,0,0-2.74-1.89c-.78,0-1.6.9-1.3,1.64l.5,2.75A2.79,2.79,0,0,0,789.69,34C790.47,34,791.29,33.09,791,32.47Z"/>
      </g>
      <path class="cls-2" d="M787,19.59a3.81,3.81,0,0,1,3.33,1.89l1.43,3.15a1.17,1.17,0,0,1-1.16,1.6,2.78,2.78,0,0,1-3-1.85l-1.43-3.15A1,1,0,0,1,787,19.59Z"/>
    </g>
  </g>
</svg>
