<svg id="圖層_1" data-name="圖層 1" xmlns="http://www.w3.org/2000/svg" viewBox="0 0 23.33 23.33">
  <defs>
    <style>
      .cls-1 {
        fill: #4d4d4d;
      }
    </style>
  </defs>
  <g>
    <path class="cls-1" d="M12.89,15.69a5.27,5.27,0,0,1-3.28-1.15,1.3,1.3,0,0,1,1.63-2,2.65,2.65,0,0,0,3.53-.2l4.68-4.68a2.67,2.67,0,0,0,0-3.75,2.66,2.66,0,0,0-3.76,0L14.54,5A1.3,1.3,0,0,1,12.7,3.19L13.85,2a5.26,5.26,0,1,1,7.44,7.43l-4.68,4.68A5.26,5.26,0,0,1,12.89,15.69Z"/>
    <path class="cls-1" d="M5.76,22.83a5.26,5.26,0,0,1-3.72-9L6.71,9.18a5.25,5.25,0,0,1,7-.39,1.3,1.3,0,1,1-1.63,2,2.65,2.65,0,0,0-3.54.2L3.88,15.69a2.66,2.66,0,0,0,3.75,3.76l1.16-1.16a1.3,1.3,0,0,1,1.84,1.84L9.47,21.29A5.25,5.25,0,0,1,5.76,22.83Z"/>
  </g>
</svg>
