<svg xmlns="http://www.w3.org/2000/svg" width="36.72" height="36.72" viewBox="0 0 36.72 36.72">
  <g id="yesgo_icon元件-11" transform="translate(-0.39 -0.39)">
    <path id="Path_7" data-name="Path 7" d="M37.11,18.75A18.36,18.36,0,1,1,18.75.39,18.36,18.36,0,0,1,37.11,18.75Z" fill="#f0f0f2"/>
    <g id="Group_3" data-name="Group 3">
      <path id="Path_8" data-name="Path 8" d="M16.36,13a14.69,14.69,0,0,1,12.12,6,14.71,14.71,0,0,1-12.12,6A14.71,14.71,0,0,1,4.23,19a14.7,14.7,0,0,1,12.13-6Z" fill="none" stroke="#4d4d4d" stroke-linecap="round" stroke-linejoin="round" stroke-width="1"/>
      <path id="Path_9" data-name="Path 9" d="M33.27,14.65v8.71a14,14,0,0,1-5-4.35,14,14,0,0,1,5-4.36Z" fill="none" stroke="#4d4d4d" stroke-linecap="round" stroke-linejoin="round" stroke-width="1"/>
      <g id="Group_2" data-name="Group 2">
        <path id="Path_10" data-name="Path 10" d="M18.53,24.88v4.47l-5.8-4.73a16,16,0,0,0,3.63.41,15.61,15.61,0,0,0,2.17-.15Z" fill="none" stroke="#4d4d4d" stroke-linecap="round" stroke-linejoin="round" stroke-width="1"/>
        <path id="Path_11" data-name="Path 11" d="M12.73,13.4l5.8-4.74v4.47A17.321,17.321,0,0,0,16.36,13a16,16,0,0,0-3.63.4Z" fill="none" stroke="#4d4d4d" stroke-linecap="round" stroke-linejoin="round" stroke-width="1"/>
      </g>
      <path id="Path_12" data-name="Path 12" d="M10.21,18.29a.57.57,0,1,0,.57-.57.57.57,0,0,0-.57.57Z" fill="none" stroke="#4d4d4d" stroke-linecap="round" stroke-linejoin="round" stroke-width="1"/>
    </g>
  </g>
</svg>
