<?xml version="1.0" encoding="UTF-8"?>
<svg id="_圖層_1_影像" data-name="圖層 1 影像" xmlns="http://www.w3.org/2000/svg" viewBox="0 0 176.33 26.99">
  <defs>
    <style>
      .cls-1 {
        fill: none;
        stroke: #f8412e;
        stroke-width: .38px;
      }

      .cls-2 {
        fill: #7f3936;
      }

      .cls-3 {
        fill: #f8412e;
      }
    </style>
  </defs>
  <g>
    <g>
      <path class="cls-2" d="m.04,14.25c.06-.24.2-.47.41-.71,1.44-1.61,2.82-3.31,4.13-5.09,1.31-1.78,2.96-4.24,4.94-7.39.43-.71.92-1.06,1.47-1.06.77,0,1.05.36.86,1.09-.11.39-1.27,2.2-3.48,5.43L3.27,25.55c-.25.94-.75,1.42-1.5,1.42s-.97-.47-.72-1.42l3.81-14.22c-1.22,1.47-2.26,2.63-3.12,3.48-.34.35-.66.53-.96.53-.21,0-.39-.09-.55-.26-.22-.24-.29-.51-.2-.83Zm14.29,11.89c-1.37,0-2.74-.03-4.11-.09-1.18-.06-1.95-.31-2.3-.74-.35-.43-.41-1.09-.17-1.98l3.04-11.36c-1.53.47-2.39.71-2.58.71-.6,0-.8-.36-.61-1.09.15-.57.63-.97,1.42-1.21l2.38-.71,1.48-5.52c.25-.94.76-1.42,1.53-1.42s.97.47.72,1.42l-1.29,4.81,3.64-1.12,1.7-6.34c.25-.94.74-1.42,1.47-1.42s.97.47.72,1.42l-1.51,5.63,3.68-1.06c.57-.18.98-.26,1.22-.26,1.31,0,1.74.85,1.29,2.54l-1.63,6.08c-.81,3.03-2.6,4.54-5.38,4.54-.86,0-1.17-.44-.94-1.33.21-.79.77-1.19,1.67-1.21.87-.04,1.42-.21,1.65-.5.25-.31.48-.85.68-1.59l1.34-4.98c.16-.61,0-.91-.51-.91l-.35.06-3.35.97-2.88,10.77c-.26.96-.75,1.45-1.48,1.45s-.97-.48-.71-1.45l2.69-10.06-3.64,1.09-3,11.18c-.11.39-.08.71.08.94.16.24.45.36.85.38,1.48.06,3.01.09,4.58.09,1.09,0,1.88,0,2.37-.03,1.21-.04,2.01-.23,2.4-.56.33-.27.61-.75.83-1.42.42-1.3,1.02-1.95,1.79-1.95.82,0,1.11.45.87,1.36-.64,2.4-1.64,3.85-3,4.37-.81.3-2.58.46-5.31.5h-1.38Z"/>
      <path class="cls-2" d="m31.99,25.6l3.62-13.51c-1.69,2.24-2.77,3.36-3.23,3.36-.34,0-.57-.09-.69-.27-.12-.18-.14-.41-.06-.71.12-.45.48-1.03,1.08-1.74,2.55-3.03,5-6.74,7.34-11.12.56-1.04,1.15-1.56,1.77-1.56.73,0,1.01.33.83,1-.09.35-.36.92-.79,1.68-.69,1.18-1.59,2.6-2.68,4.25l-4.99,18.61c-.25.92-.74,1.39-1.47,1.39s-.97-.46-.73-1.39Zm4.44.12l5.91-22.06c.16-.88.5-1.54,1.02-1.96.52-.42,1.2-.61,2.04-.55h3.06c.88,0,1.47.2,1.76.6.29.4.29,1.04-.02,1.9l-2.15,8.02c-.17.9-.52,1.57-1.04,2.01-.53.43-1.21.61-2.05.53h-3.2l-3.08,11.5c-.23.85-.71,1.27-1.46,1.27s-1.01-.42-.78-1.27Zm9.62-14.51l.7-2.6h-3.48l-.93,3.48h2.64c.52,0,.88-.3,1.08-.89Zm1.9-7.08c.15-.57-.05-.85-.61-.85h-1.77c-.54,0-.92.3-1.12.91l-.63,2.36h3.48l.65-2.42Zm-.57,21.53c.21-.79.77-1.18,1.67-1.18h1.55c.77,0,1.24-.38,1.4-1.15l2.44-9.11h-3.23c-.88.08-1.47-.1-1.77-.53-.3-.43-.29-1.1.03-2.01l2.15-8.02c.33-1.79,1.36-2.62,3.09-2.51h3.06c.88,0,1.47.2,1.76.6.29.4.29,1.04-.02,1.9l-5.36,20c-.28,1.06-.75,1.87-1.41,2.42-.34.28-.71.47-1.11.58-.4.11-.87.16-1.39.16h-1.83c-.9,0-1.25-.38-1.04-1.15Zm8.56-17.05h-3.51l-.7,2.6c-.15.55.04.85.58.89h2.7l.93-3.48Zm1.2-4.48c.07-.27.06-.49-.04-.63-.1-.15-.28-.22-.54-.22h-1.88c-.51,0-.85.28-1.04.85l-.65,2.42h3.51l.65-2.42Z"/>
      <path class="cls-2" d="m67.49,25.49c-1.4-.32-1.81-1.52-1.25-3.63l2.7-10.09c-2.46.71-3.77,1.06-3.94,1.06-.36,0-.59-.09-.71-.28-.12-.19-.12-.49-.01-.9.16-.61.62-1,1.36-1.18l3.96-1.15,1.59-5.93c.27-1,.79-1.5,1.55-1.5s1.02.5.75,1.5l-1.42,5.28,5.81-1.65,1.45-5.4c.27-1.02.79-1.53,1.56-1.53s1.02.51.74,1.53l-1.26,4.69,6.44-1.8.55-.06c1.2,0,1.59.79,1.17,2.36l-2.05,7.64c-.76,2.83-2.8,4.25-6.11,4.25-.88,0-1.2-.45-.96-1.36.21-.77.87-1.17,1.98-1.21.42-.02.75-.05.99-.09.25-.04.45-.11.6-.21.62-.37,1.08-1.08,1.36-2.12l1.52-5.66c.15-.57-.01-.85-.5-.85l-.35.06-5.28,1.48-2.99,11.15c-.27,1-.79,1.5-1.56,1.5s-1.02-.5-.75-1.5l2.8-10.44-5.8,1.62-2.78,10.38c-.21.77,0,1.31.61,1.62.45.22,2.26.32,5.42.32l5.79-.03c1.61,0,2.71-.24,3.28-.71.22-.18.41-.44.59-.78.18-.34.37-.82.59-1.43.25-.71.75-1.06,1.52-1.06.88,0,1.2.43.97,1.3-.22.83-.63,1.74-1.21,2.74-.58.96-1.42,1.6-2.54,1.92-1.2.33-4.21.5-9.04.5-3.78,0-6.17-.12-7.15-.35Z"/>
      <path class="cls-2" d="m100.35,25.52c-1.24-.39-2.2-1.07-2.85-2.04h-.06c-2.24,1.65-3.65,2.48-4.23,2.48-.38,0-.63-.11-.76-.33-.13-.22-.13-.57,0-1.06.17-.63.72-1.13,1.67-1.5.93-.39,1.78-.8,2.54-1.21l1.45-5.43c.07-.27.06-.49-.05-.65-.11-.16-.29-.24-.55-.24h-1.52c-.39,0-.66-.09-.79-.27-.13-.18-.14-.46-.04-.86.1-.37.26-.65.49-.83.22-.18.53-.27.93-.27h2.19c.82,0,1.37.19,1.63.56.26.37.28.95.05,1.74l-1.6,5.96.55.77c.99,1.04,3.58,1.56,7.76,1.56l10.01-.15c.73,0,1,.37.79,1.12-.22.83-.88,1.24-1.99,1.24l-8.67-.03c-3.45,0-5.77-.2-6.98-.59Zm-.24-15.87l-2.05-1.06c-.51-.27-.69-.66-.56-1.15.21-.77.67-1.15,1.4-1.15.3,0,1,.28,2.11.83,1.07.55,1.53,1.12,1.37,1.71-.22.81-.69,1.21-1.42,1.21-.22,0-.51-.13-.85-.38Zm2.9-5.32c-.25-.15-.4-.24-.45-.28l-1.58-1c-.56-.35-.78-.77-.65-1.24.21-.77.66-1.15,1.38-1.15.24,0,.91.29,1.99.86.51.28.87.57,1.09.87s.29.61.2.93c-.22.83-.7,1.24-1.43,1.24-.11,0-.29-.07-.54-.22Zm-1.45,18.04c-.15-.2-.18-.49-.07-.88.18-.67.72-1.03,1.61-1.09.9-.06,1.53-.21,1.92-.44.41-.28.82-.85,1.22-1.71.43-.92.85-2.14,1.26-3.66l.48-2.21c-1.16,1.38-2.15,2.43-2.99,3.17-.83.74-1.44,1.11-1.81,1.11-.69,0-.96-.3-.79-.91.07-.25.32-.56.75-.91,2.18-1.79,3.95-3.47,5.29-5.04.15-1.1.15-2.01,0-2.74-1.88,1.5-3.07,2.24-3.58,2.24-.64,0-.87-.31-.7-.94.09-.35.49-.73,1.17-1.12.47-.28,1.34-.94,2.62-2.01-.34-.85-.82-1.63-1.45-2.36-.29-.33-.39-.64-.32-.91.08-.31.23-.54.43-.68.21-.14.5-.21.87-.21.73,0,1.49.88,2.28,2.62.1-.1.33-.31.68-.65.35-.33.68-.68.98-1.03.64-.77,1.15-1.15,1.54-1.15.77,0,1.07.31.9.94-.14.53-1.32,1.75-3.54,3.66.56,2.32.33,5.36-.67,9.12-.92,3.42-1.9,5.67-2.96,6.75-.88.9-2.27,1.36-4.18,1.36-.47,0-.78-.1-.93-.29Zm6.3-1.8c.18-.67.71-1,1.59-1h3.4l1.97-7.34h-2.25c-.88,0-1.23-.34-1.04-1.03.2-.73.73-1.09,1.61-1.09h2.25l1.66-6.19h-2.53c-.41,0-.69-.08-.85-.25-.15-.17-.18-.42-.09-.75.19-.71.69-1.06,1.49-1.06h7.9c.8,0,1.11.35.92,1.06-.18.67-.67,1-1.48,1h-3.06l-1.66,6.19h2.36c.9,0,1.25.36,1.06,1.09-.18.69-.73,1.03-1.63,1.03h-2.36l-1.97,7.34h3.01c.86,0,1.2.33,1.03,1-.2.73-.72,1.09-1.59,1.09h-8.71c-.88,0-1.22-.36-1.03-1.09Z"/>
      <path class="cls-2" d="m130.75,25.25c.23-.85.85-1.27,1.89-1.27h1.83c.94,0,1.52-.48,1.76-1.45l3.13-11.68c.19-.71.47-1.23.84-1.56.33-.31,1.24-.81,2.73-1.48l.86-.38c1.99-.92,3.19-1.48,3.6-1.68l1.42-.77c.24-.14.38-.27.41-.38.03-.12.02-.21-.04-.28-.06-.07-.14-.1-.25-.1h-16.83c-.49,0-.82-.09-.99-.28-.18-.19-.21-.48-.1-.87.11-.39.29-.68.57-.87.28-.19.66-.28,1.14-.28h19.84c.69,0,1.17.12,1.44.35.27.24.33.61.19,1.12-.05.2-.4.52-1.05.97-.65.45-1.53.99-2.65,1.62-2.76,1.55-5.13,2.77-7.11,3.66-1.04.45-1.64.99-1.81,1.62l-3.22,12.01c-.25,1.2-.7,2.07-1.35,2.61-.65.54-1.52.76-2.59.66h-2.45c-1.03,0-1.43-.43-1.2-1.3Z"/>
    </g>
    <g>
      <path class="cls-3" d="m.04,14.25c.06-.24.2-.47.41-.71,1.44-1.61,2.82-3.31,4.13-5.09,1.31-1.78,2.96-4.24,4.94-7.39.43-.71.92-1.06,1.47-1.06.77,0,1.05.36.86,1.09-.11.39-1.27,2.2-3.48,5.43L3.27,25.55c-.25.94-.75,1.42-1.5,1.42s-.97-.47-.72-1.42l3.81-14.22c-1.22,1.47-2.26,2.63-3.12,3.48-.34.35-.66.53-.96.53-.21,0-.39-.09-.55-.26-.22-.24-.29-.51-.2-.83Zm14.29,11.89c-1.37,0-2.74-.03-4.11-.09-1.18-.06-1.95-.31-2.3-.74-.35-.43-.41-1.09-.17-1.98l3.04-11.36c-1.53.47-2.39.71-2.58.71-.6,0-.8-.36-.61-1.09.15-.57.63-.97,1.42-1.21l2.38-.71,1.48-5.52c.25-.94.76-1.42,1.53-1.42s.97.47.72,1.42l-1.29,4.81,3.64-1.12,1.7-6.34c.25-.94.74-1.42,1.47-1.42s.97.47.72,1.42l-1.51,5.63,3.68-1.06c.57-.18.98-.26,1.22-.26,1.31,0,1.74.85,1.29,2.54l-1.63,6.08c-.81,3.03-2.6,4.54-5.38,4.54-.86,0-1.17-.44-.94-1.33.21-.79.77-1.19,1.67-1.21.87-.04,1.42-.21,1.65-.5.25-.31.48-.85.68-1.59l1.34-4.98c.16-.61,0-.91-.51-.91l-.35.06-3.35.97-2.88,10.77c-.26.96-.75,1.45-1.48,1.45s-.97-.48-.71-1.45l2.69-10.06-3.64,1.09-3,11.18c-.11.39-.08.71.08.94.16.24.45.36.85.38,1.48.06,3.01.09,4.58.09,1.09,0,1.88,0,2.37-.03,1.21-.04,2.01-.23,2.4-.56.33-.27.61-.75.83-1.42.42-1.3,1.02-1.95,1.79-1.95.82,0,1.11.45.87,1.36-.64,2.4-1.64,3.85-3,4.37-.81.3-2.58.46-5.31.5h-1.38Z"/>
      <path class="cls-3" d="m31.99,25.6l3.62-13.51c-1.69,2.24-2.77,3.36-3.23,3.36-.34,0-.57-.09-.69-.27-.12-.18-.14-.41-.06-.71.12-.45.48-1.03,1.08-1.74,2.55-3.03,5-6.74,7.34-11.12.56-1.04,1.15-1.56,1.77-1.56.73,0,1.01.33.83,1-.09.35-.36.92-.79,1.68-.69,1.18-1.59,2.6-2.68,4.25l-4.99,18.61c-.25.92-.74,1.39-1.47,1.39s-.97-.46-.73-1.39Zm4.44.12l5.91-22.06c.16-.88.5-1.54,1.02-1.96.52-.42,1.2-.61,2.04-.55h3.06c.88,0,1.47.2,1.76.6.29.4.29,1.04-.02,1.9l-2.15,8.02c-.17.9-.52,1.57-1.04,2.01-.53.43-1.21.61-2.05.53h-3.2l-3.08,11.5c-.23.85-.71,1.27-1.46,1.27s-1.01-.42-.78-1.27Zm9.62-14.51l.7-2.6h-3.48l-.93,3.48h2.64c.52,0,.88-.3,1.08-.89Zm1.9-7.08c.15-.57-.05-.85-.61-.85h-1.77c-.54,0-.92.3-1.12.91l-.63,2.36h3.48l.65-2.42Zm-.57,21.53c.21-.79.77-1.18,1.67-1.18h1.55c.77,0,1.24-.38,1.4-1.15l2.44-9.11h-3.23c-.88.08-1.47-.1-1.77-.53-.3-.43-.29-1.1.03-2.01l2.15-8.02c.33-1.79,1.36-2.62,3.09-2.51h3.06c.88,0,1.47.2,1.76.6.29.4.29,1.04-.02,1.9l-5.36,20c-.28,1.06-.75,1.87-1.41,2.42-.34.28-.71.47-1.11.58-.4.11-.87.16-1.39.16h-1.83c-.9,0-1.25-.38-1.04-1.15Zm8.56-17.05h-3.51l-.7,2.6c-.15.55.04.85.58.89h2.7l.93-3.48Zm1.2-4.48c.07-.27.06-.49-.04-.63-.1-.15-.28-.22-.54-.22h-1.88c-.51,0-.85.28-1.04.85l-.65,2.42h3.51l.65-2.42Z"/>
      <path class="cls-3" d="m67.49,25.49c-1.4-.32-1.81-1.52-1.25-3.63l2.7-10.09c-2.46.71-3.77,1.06-3.94,1.06-.36,0-.59-.09-.71-.28-.12-.19-.12-.49-.01-.9.16-.61.62-1,1.36-1.18l3.96-1.15,1.59-5.93c.27-1,.79-1.5,1.55-1.5s1.02.5.75,1.5l-1.42,5.28,5.81-1.65,1.45-5.4c.27-1.02.79-1.53,1.56-1.53s1.02.51.74,1.53l-1.26,4.69,6.44-1.8.55-.06c1.2,0,1.59.79,1.17,2.36l-2.05,7.64c-.76,2.83-2.8,4.25-6.11,4.25-.88,0-1.2-.45-.96-1.36.21-.77.87-1.17,1.98-1.21.42-.02.75-.05.99-.09.25-.04.45-.11.6-.21.62-.37,1.08-1.08,1.36-2.12l1.52-5.66c.15-.57-.01-.85-.5-.85l-.35.06-5.28,1.48-2.99,11.15c-.27,1-.79,1.5-1.56,1.5s-1.02-.5-.75-1.5l2.8-10.44-5.8,1.62-2.78,10.38c-.21.77,0,1.31.61,1.62.45.22,2.26.32,5.42.32l5.79-.03c1.61,0,2.71-.24,3.28-.71.22-.18.41-.44.59-.78.18-.34.37-.82.59-1.43.25-.71.75-1.06,1.52-1.06.88,0,1.2.43.97,1.3-.22.83-.63,1.74-1.21,2.74-.58.96-1.42,1.6-2.54,1.92-1.2.33-4.21.5-9.04.5-3.78,0-6.17-.12-7.15-.35Z"/>
      <path class="cls-3" d="m100.35,25.52c-1.24-.39-2.2-1.07-2.85-2.04h-.06c-2.24,1.65-3.65,2.48-4.23,2.48-.38,0-.63-.11-.76-.33-.13-.22-.13-.57,0-1.06.17-.63.72-1.13,1.67-1.5.93-.39,1.78-.8,2.54-1.21l1.45-5.43c.07-.27.06-.49-.05-.65-.11-.16-.29-.24-.55-.24h-1.52c-.39,0-.66-.09-.79-.27-.13-.18-.14-.46-.04-.86.1-.37.26-.65.49-.83.22-.18.53-.27.93-.27h2.19c.82,0,1.37.19,1.63.56.26.37.28.95.05,1.74l-1.6,5.96.55.77c.99,1.04,3.58,1.56,7.76,1.56l10.01-.15c.73,0,1,.37.79,1.12-.22.83-.88,1.24-1.99,1.24l-8.67-.03c-3.45,0-5.77-.2-6.98-.59Zm-.24-15.87l-2.05-1.06c-.51-.27-.69-.66-.56-1.15.21-.77.67-1.15,1.4-1.15.3,0,1,.28,2.11.83,1.07.55,1.53,1.12,1.37,1.71-.22.81-.69,1.21-1.42,1.21-.22,0-.51-.13-.85-.38Zm2.9-5.32c-.25-.15-.4-.24-.45-.28l-1.58-1c-.56-.35-.78-.77-.65-1.24.21-.77.66-1.15,1.38-1.15.24,0,.91.29,1.99.86.51.28.87.57,1.09.87s.29.61.2.93c-.22.83-.7,1.24-1.43,1.24-.11,0-.29-.07-.54-.22Zm-1.45,18.04c-.15-.2-.18-.49-.07-.88.18-.67.72-1.03,1.61-1.09.9-.06,1.53-.21,1.92-.44.41-.28.82-.85,1.22-1.71.43-.92.85-2.14,1.26-3.66l.48-2.21c-1.16,1.38-2.15,2.43-2.99,3.17-.83.74-1.44,1.11-1.81,1.11-.69,0-.96-.3-.79-.91.07-.25.32-.56.75-.91,2.18-1.79,3.95-3.47,5.29-5.04.15-1.1.15-2.01,0-2.74-1.88,1.5-3.07,2.24-3.58,2.24-.64,0-.87-.31-.7-.94.09-.35.49-.73,1.17-1.12.47-.28,1.34-.94,2.62-2.01-.34-.85-.82-1.63-1.45-2.36-.29-.33-.39-.64-.32-.91.08-.31.23-.54.43-.68.21-.14.5-.21.87-.21.73,0,1.49.88,2.28,2.62.1-.1.33-.31.68-.65.35-.33.68-.68.98-1.03.64-.77,1.15-1.15,1.54-1.15.77,0,1.07.31.9.94-.14.53-1.32,1.75-3.54,3.66.56,2.32.33,5.36-.67,9.12-.92,3.42-1.9,5.67-2.96,6.75-.88.9-2.27,1.36-4.18,1.36-.47,0-.78-.1-.93-.29Zm6.3-1.8c.18-.67.71-1,1.59-1h3.4l1.97-7.34h-2.25c-.88,0-1.23-.34-1.04-1.03.2-.73.73-1.09,1.61-1.09h2.25l1.66-6.19h-2.53c-.41,0-.69-.08-.85-.25-.15-.17-.18-.42-.09-.75.19-.71.69-1.06,1.49-1.06h7.9c.8,0,1.11.35.92,1.06-.18.67-.67,1-1.48,1h-3.06l-1.66,6.19h2.36c.9,0,1.25.36,1.06,1.09-.18.69-.73,1.03-1.63,1.03h-2.36l-1.97,7.34h3.01c.86,0,1.2.33,1.03,1-.2.73-.72,1.09-1.59,1.09h-8.71c-.88,0-1.22-.36-1.03-1.09Z"/>
      <path class="cls-3" d="m130.75,25.25c.23-.85.85-1.27,1.89-1.27h1.83c.94,0,1.52-.48,1.76-1.45l3.13-11.68c.19-.71.47-1.23.84-1.56.33-.31,1.24-.81,2.73-1.48l.86-.38c1.99-.92,3.19-1.48,3.6-1.68l1.42-.77c.24-.14.38-.27.41-.38.03-.12.02-.21-.04-.28-.06-.07-.14-.1-.25-.1h-16.83c-.49,0-.82-.09-.99-.28-.18-.19-.21-.48-.1-.87.11-.39.29-.68.57-.87.28-.19.66-.28,1.14-.28h19.84c.69,0,1.17.12,1.44.35.27.24.33.61.19,1.12-.05.2-.4.52-1.05.97-.65.45-1.53.99-2.65,1.62-2.76,1.55-5.13,2.77-7.11,3.66-1.04.45-1.64.99-1.81,1.62l-3.22,12.01c-.25,1.2-.7,2.07-1.35,2.61-.65.54-1.52.76-2.59.66h-2.45c-1.03,0-1.43-.43-1.2-1.3Z"/>
    </g>
    <g>
      <path class="cls-1" d="m.04,14.25c.06-.24.2-.47.41-.71,1.44-1.61,2.82-3.31,4.13-5.09,1.31-1.78,2.96-4.24,4.94-7.39.43-.71.92-1.06,1.47-1.06.77,0,1.05.36.86,1.09-.11.39-1.27,2.2-3.48,5.43L3.27,25.55c-.25.94-.75,1.42-1.5,1.42s-.97-.47-.72-1.42l3.81-14.22c-1.22,1.47-2.26,2.63-3.12,3.48-.34.35-.66.53-.96.53-.21,0-.39-.09-.55-.26-.22-.24-.29-.51-.2-.83Zm14.29,11.89c-1.37,0-2.74-.03-4.11-.09-1.18-.06-1.95-.31-2.3-.74-.35-.43-.41-1.09-.17-1.98l3.04-11.36c-1.53.47-2.39.71-2.58.71-.6,0-.8-.36-.61-1.09.15-.57.63-.97,1.42-1.21l2.38-.71,1.48-5.52c.25-.94.76-1.42,1.53-1.42s.97.47.72,1.42l-1.29,4.81,3.64-1.12,1.7-6.34c.25-.94.74-1.42,1.47-1.42s.97.47.72,1.42l-1.51,5.63,3.68-1.06c.57-.18.98-.26,1.22-.26,1.31,0,1.74.85,1.29,2.54l-1.63,6.08c-.81,3.03-2.6,4.54-5.38,4.54-.86,0-1.17-.44-.94-1.33.21-.79.77-1.19,1.67-1.21.87-.04,1.42-.21,1.65-.5.25-.31.48-.85.68-1.59l1.34-4.98c.16-.61,0-.91-.51-.91l-.35.06-3.35.97-2.88,10.77c-.26.96-.75,1.45-1.48,1.45s-.97-.48-.71-1.45l2.69-10.06-3.64,1.09-3,11.18c-.11.39-.08.71.08.94.16.24.45.36.85.38,1.48.06,3.01.09,4.58.09,1.09,0,1.88,0,2.37-.03,1.21-.04,2.01-.23,2.4-.56.33-.27.61-.75.83-1.42.42-1.3,1.02-1.95,1.79-1.95.82,0,1.11.45.87,1.36-.64,2.4-1.64,3.85-3,4.37-.81.3-2.58.46-5.31.5h-1.38Z"/>
      <path class="cls-1" d="m31.99,25.6l3.62-13.51c-1.69,2.24-2.77,3.36-3.23,3.36-.34,0-.57-.09-.69-.27-.12-.18-.14-.41-.06-.71.12-.45.48-1.03,1.08-1.74,2.55-3.03,5-6.74,7.34-11.12.56-1.04,1.15-1.56,1.77-1.56.73,0,1.01.33.83,1-.09.35-.36.92-.79,1.68-.69,1.18-1.59,2.6-2.68,4.25l-4.99,18.61c-.25.92-.74,1.39-1.47,1.39s-.97-.46-.73-1.39Zm4.44.12l5.91-22.06c.16-.88.5-1.54,1.02-1.96.52-.42,1.2-.61,2.04-.55h3.06c.88,0,1.47.2,1.76.6.29.4.29,1.04-.02,1.9l-2.15,8.02c-.17.9-.52,1.57-1.04,2.01-.53.43-1.21.61-2.05.53h-3.2l-3.08,11.5c-.23.85-.71,1.27-1.46,1.27s-1.01-.42-.78-1.27Zm9.62-14.51l.7-2.6h-3.48l-.93,3.48h2.64c.52,0,.88-.3,1.08-.89Zm1.9-7.08c.15-.57-.05-.85-.61-.85h-1.77c-.54,0-.92.3-1.12.91l-.63,2.36h3.48l.65-2.42Zm-.57,21.53c.21-.79.77-1.18,1.67-1.18h1.55c.77,0,1.24-.38,1.4-1.15l2.44-9.11h-3.23c-.88.08-1.47-.1-1.77-.53-.3-.43-.29-1.1.03-2.01l2.15-8.02c.33-1.79,1.36-2.62,3.09-2.51h3.06c.88,0,1.47.2,1.76.6.29.4.29,1.04-.02,1.9l-5.36,20c-.28,1.06-.75,1.87-1.41,2.42-.34.28-.71.47-1.11.58-.4.11-.87.16-1.39.16h-1.83c-.9,0-1.25-.38-1.04-1.15Zm8.56-17.05h-3.51l-.7,2.6c-.15.55.04.85.58.89h2.7l.93-3.48Zm1.2-4.48c.07-.27.06-.49-.04-.63-.1-.15-.28-.22-.54-.22h-1.88c-.51,0-.85.28-1.04.85l-.65,2.42h3.51l.65-2.42Z"/>
      <path class="cls-1" d="m67.49,25.49c-1.4-.32-1.81-1.52-1.25-3.63l2.7-10.09c-2.46.71-3.77,1.06-3.94,1.06-.36,0-.59-.09-.71-.28-.12-.19-.12-.49-.01-.9.16-.61.62-1,1.36-1.18l3.96-1.15,1.59-5.93c.27-1,.79-1.5,1.55-1.5s1.02.5.75,1.5l-1.42,5.28,5.81-1.65,1.45-5.4c.27-1.02.79-1.53,1.56-1.53s1.02.51.74,1.53l-1.26,4.69,6.44-1.8.55-.06c1.2,0,1.59.79,1.17,2.36l-2.05,7.64c-.76,2.83-2.8,4.25-6.11,4.25-.88,0-1.2-.45-.96-1.36.21-.77.87-1.17,1.98-1.21.42-.02.75-.05.99-.09.25-.04.45-.11.6-.21.62-.37,1.08-1.08,1.36-2.12l1.52-5.66c.15-.57-.01-.85-.5-.85l-.35.06-5.28,1.48-2.99,11.15c-.27,1-.79,1.5-1.56,1.5s-1.02-.5-.75-1.5l2.8-10.44-5.8,1.62-2.78,10.38c-.21.77,0,1.31.61,1.62.45.22,2.26.32,5.42.32l5.79-.03c1.61,0,2.71-.24,3.28-.71.22-.18.41-.44.59-.78.18-.34.37-.82.59-1.43.25-.71.75-1.06,1.52-1.06.88,0,1.2.43.97,1.3-.22.83-.63,1.74-1.21,2.74-.58.96-1.42,1.6-2.54,1.92-1.2.33-4.21.5-9.04.5-3.78,0-6.17-.12-7.15-.35Z"/>
      <path class="cls-1" d="m100.35,25.52c-1.24-.39-2.2-1.07-2.85-2.04h-.06c-2.24,1.65-3.65,2.48-4.23,2.48-.38,0-.63-.11-.76-.33-.13-.22-.13-.57,0-1.06.17-.63.72-1.13,1.67-1.5.93-.39,1.78-.8,2.54-1.21l1.45-5.43c.07-.27.06-.49-.05-.65-.11-.16-.29-.24-.55-.24h-1.52c-.39,0-.66-.09-.79-.27-.13-.18-.14-.46-.04-.86.1-.37.26-.65.49-.83.22-.18.53-.27.93-.27h2.19c.82,0,1.37.19,1.63.56.26.37.28.95.05,1.74l-1.6,5.96.55.77c.99,1.04,3.58,1.56,7.76,1.56l10.01-.15c.73,0,1,.37.79,1.12-.22.83-.88,1.24-1.99,1.24l-8.67-.03c-3.45,0-5.77-.2-6.98-.59Zm-.24-15.87l-2.05-1.06c-.51-.27-.69-.66-.56-1.15.21-.77.67-1.15,1.4-1.15.3,0,1,.28,2.11.83,1.07.55,1.53,1.12,1.37,1.71-.22.81-.69,1.21-1.42,1.21-.22,0-.51-.13-.85-.38Zm2.9-5.32c-.25-.15-.4-.24-.45-.28l-1.58-1c-.56-.35-.78-.77-.65-1.24.21-.77.66-1.15,1.38-1.15.24,0,.91.29,1.99.86.51.28.87.57,1.09.87s.29.61.2.93c-.22.83-.7,1.24-1.43,1.24-.11,0-.29-.07-.54-.22Zm-1.45,18.04c-.15-.2-.18-.49-.07-.88.18-.67.72-1.03,1.61-1.09.9-.06,1.53-.21,1.92-.44.41-.28.82-.85,1.22-1.71.43-.92.85-2.14,1.26-3.66l.48-2.21c-1.16,1.38-2.15,2.43-2.99,3.17-.83.74-1.44,1.11-1.81,1.11-.69,0-.96-.3-.79-.91.07-.25.32-.56.75-.91,2.18-1.79,3.95-3.47,5.29-5.04.15-1.1.15-2.01,0-2.74-1.88,1.5-3.07,2.24-3.58,2.24-.64,0-.87-.31-.7-.94.09-.35.49-.73,1.17-1.12.47-.28,1.34-.94,2.62-2.01-.34-.85-.82-1.63-1.45-2.36-.29-.33-.39-.64-.32-.91.08-.31.23-.54.43-.68.21-.14.5-.21.87-.21.73,0,1.49.88,2.28,2.62.1-.1.33-.31.68-.65.35-.33.68-.68.98-1.03.64-.77,1.15-1.15,1.54-1.15.77,0,1.07.31.9.94-.14.53-1.32,1.75-3.54,3.66.56,2.32.33,5.36-.67,9.12-.92,3.42-1.9,5.67-2.96,6.75-.88.9-2.27,1.36-4.18,1.36-.47,0-.78-.1-.93-.29Zm6.3-1.8c.18-.67.71-1,1.59-1h3.4l1.97-7.34h-2.25c-.88,0-1.23-.34-1.04-1.03.2-.73.73-1.09,1.61-1.09h2.25l1.66-6.19h-2.53c-.41,0-.69-.08-.85-.25-.15-.17-.18-.42-.09-.75.19-.71.69-1.06,1.49-1.06h7.9c.8,0,1.11.35.92,1.06-.18.67-.67,1-1.48,1h-3.06l-1.66,6.19h2.36c.9,0,1.25.36,1.06,1.09-.18.69-.73,1.03-1.63,1.03h-2.36l-1.97,7.34h3.01c.86,0,1.2.33,1.03,1-.2.73-.72,1.09-1.59,1.09h-8.71c-.88,0-1.22-.36-1.03-1.09Z"/>
      <path class="cls-1" d="m130.75,25.25c.23-.85.85-1.27,1.89-1.27h1.83c.94,0,1.52-.48,1.76-1.45l3.13-11.68c.19-.71.47-1.23.84-1.56.33-.31,1.24-.81,2.73-1.48l.86-.38c1.99-.92,3.19-1.48,3.6-1.68l1.42-.77c.24-.14.38-.27.41-.38.03-.12.02-.21-.04-.28-.06-.07-.14-.1-.25-.1h-16.83c-.49,0-.82-.09-.99-.28-.18-.19-.21-.48-.1-.87.11-.39.29-.68.57-.87.28-.19.66-.28,1.14-.28h19.84c.69,0,1.17.12,1.44.35.27.24.33.61.19,1.12-.05.2-.4.52-1.05.97-.65.45-1.53.99-2.65,1.62-2.76,1.55-5.13,2.77-7.11,3.66-1.04.45-1.64.99-1.81,1.62l-3.22,12.01c-.25,1.2-.7,2.07-1.35,2.61-.65.54-1.52.76-2.59.66h-2.45c-1.03,0-1.43-.43-1.2-1.3Z"/>
    </g>
  </g>
  <g>
    <path class="cls-3" d="m158.41,11.63l.83,6.53c.08.63.66,1.14,1.29,1.14h11.61c.76,0,1.38.62,1.38,1.39,0,.76-.62,1.38-1.38,1.38h-12.04s0,1.01,0,1.01h12.04c1.32,0,2.4-1.08,2.4-2.4s-1.08-2.4-2.4-2.4h-.28s1.35-9.71,1.35-9.71c0,0,.11-.79.49-1.2.42-.46,1.15-.66,2.12-.63.28,0,.51-.21.52-.49,0-.28-.21-.51-.49-.52-1.27-.03-2.23.29-2.88.95-.72.73-.73,1.5-.77,1.89,0,.06-.03.22-.06.43-.04,0-12.73,1.37-12.73,1.37-.63.07-1.08.64-1,1.26Zm10.32-.11c0-.4.33-.73.73-.73s.73.33.73.73v5.68c0,.4-.33.73-.73.73s-.73-.33-.73-.73v-5.68Zm-2.6.23c0-.4.33-.73.73-.73s.73.33.73.73v5.46c0,.4-.33.73-.73.73s-.73-.33-.73-.73v-5.46Zm-2.6.23c0-.4.33-.73.73-.73s.73.33.73.73v5.23c0,.4-.33.73-.73.73s-.73-.33-.73-.73v-5.23Zm-2.6.23c0-.4.33-.73.73-.73s.73.33.73.73v5c0,.4-.33.73-.73.73s-.73-.33-.73-.73v-5Z"/>
    <path class="cls-3" d="m170.11,26.59c.72,0,1.3-.59,1.3-1.31,0-.72-.59-1.31-1.3-1.31s-1.31.59-1.31,1.31c0,.72.59,1.31,1.31,1.31h0Z"/>
    <path class="cls-3" d="m162.36,26.59c.72,0,1.31-.59,1.31-1.31,0-.72-.59-1.31-1.31-1.31s-1.3.59-1.3,1.31c0,.72.59,1.31,1.3,1.31h0Z"/>
  </g>
</svg>