<svg id="圖層_1" data-name="圖層 1" xmlns="http://www.w3.org/2000/svg" viewBox="0 0 25.55 22.51">
  <defs>
    <style>
      .cls-1 {
        fill: #000;
      }
    </style>
  </defs>
  <g>
    <g>
      <path class="cls-1" d="M21.66,14.5H8.76a.42.42,0,0,1-.4-.3L6.19,6.93a.41.41,0,0,1,.06-.37.42.42,0,0,1,.34-.17H23.83a.42.42,0,0,1,.34.17.45.45,0,0,1,.07.37L22.06,14.2A.42.42,0,0,1,21.66,14.5ZM9.08,13.65H21.34l1.92-6.41H7.16Z"/>
      <path class="cls-1" d="M21.66,14.75H8.76a.68.68,0,0,1-.64-.48L6,7a.64.64,0,0,1,.1-.6.68.68,0,0,1,.54-.27H23.83a.68.68,0,0,1,.54.27.66.66,0,0,1,.11.59L22.3,14.27A.68.68,0,0,1,21.66,14.75ZM6.59,6.64a.17.17,0,0,0-.14.07.2.2,0,0,0,0,.15L8.6,14.13a.17.17,0,0,0,.16.12h12.9a.19.19,0,0,0,.17-.13L24,6.86a.2.2,0,0,0,0-.15.16.16,0,0,0-.14-.07ZM21.53,13.9H8.89L6.82,7H23.6ZM9.27,13.4H21.16l1.76-5.91H7.5Z"/>
    </g>
    <g>
      <path class="cls-1" d="M8.76,14.5a.42.42,0,0,1-.4-.3L4.53,1.6H1.17a.43.43,0,0,1,0-.85H4.84a.42.42,0,0,1,.41.3L9.17,14a.42.42,0,0,1-.28.53Z"/>
      <path class="cls-1" d="M8.76,14.75a.68.68,0,0,1-.64-.48L4.34,1.85H1.17A.68.68,0,0,1,1.17.5H4.84A.69.69,0,0,1,5.49,1l3.92,12.9a.68.68,0,0,1-.45.84A.64.64,0,0,1,8.76,14.75ZM1.17,1A.18.18,0,0,0,1,1.17a.18.18,0,0,0,.17.18H4.72L8.6,14.13a.16.16,0,0,0,.21.11A.17.17,0,0,0,8.93,14L5,1.12A.17.17,0,0,0,4.84,1Z"/>
    </g>
    <g>
      <path class="cls-1" d="M9.42,21.76A2.76,2.76,0,1,1,12.19,19,2.77,2.77,0,0,1,9.42,21.76Zm0-4.67A1.92,1.92,0,1,0,11.34,19,1.91,1.91,0,0,0,9.42,17.09Z"/>
      <path class="cls-1" d="M9.42,22a3,3,0,1,1,3-3A3,3,0,0,1,9.42,22Zm0-5.53A2.52,2.52,0,1,0,11.94,19,2.51,2.51,0,0,0,9.42,16.49Zm0,4.68A2.17,2.17,0,1,1,11.59,19,2.17,2.17,0,0,1,9.42,21.17Zm0-3.83A1.67,1.67,0,1,0,11.09,19,1.66,1.66,0,0,0,9.42,17.34Z"/>
    </g>
    <g>
      <path class="cls-1" d="M21.24,21.76A2.76,2.76,0,1,1,24,19,2.77,2.77,0,0,1,21.24,21.76Zm0-4.67A1.92,1.92,0,1,0,23.16,19,1.91,1.91,0,0,0,21.24,17.09Z"/>
      <path class="cls-1" d="M21.24,22a3,3,0,1,1,3-3A3,3,0,0,1,21.24,22Zm0-5.53A2.52,2.52,0,1,0,23.76,19,2.51,2.51,0,0,0,21.24,16.49Zm0,4.68A2.17,2.17,0,1,1,23.41,19,2.17,2.17,0,0,1,21.24,21.17Zm0-3.83A1.67,1.67,0,1,0,22.91,19,1.66,1.66,0,0,0,21.24,17.34Z"/>
    </g>
    <g>
      <path class="cls-1" d="M23.82,7.23l-.12,0a.42.42,0,0,1-.28-.53L24,4.93a.43.43,0,0,1,.82.25l-.55,1.75A.44.44,0,0,1,23.82,7.23Z"/>
      <path class="cls-1" d="M23.82,7.48l-.2,0a.67.67,0,0,1-.44-.84l.55-1.76a.64.64,0,0,1,.33-.39.65.65,0,0,1,.51,0,.67.67,0,0,1,.44.84L24.47,7A.68.68,0,0,1,23.82,7.48Zm.55-2.6-.08,0a.22.22,0,0,0-.09.1l-.54,1.75a.18.18,0,0,0,.11.22h.05A.17.17,0,0,0,24,6.86l.55-1.76a.17.17,0,0,0-.12-.21Z"/>
    </g>
  </g>
</svg>
