<svg id="圖層_5" data-name="圖層 5" xmlns="http://www.w3.org/2000/svg" viewBox="0 0 27.26 27.26">
  <defs>
    <style>
      .cls-1 {
        fill: #fff;
      }
    </style>
  </defs>
  <g>
    <path class="cls-1" d="M13.63,15.2a3.92,3.92,0,1,1,3.92-3.92A3.93,3.93,0,0,1,13.63,15.2Zm0-6.7a2.79,2.79,0,1,0,2.79,2.78A2.79,2.79,0,0,0,13.63,8.5Z"/>
    <path class="cls-1" d="M5.11,23.24a.52.52,0,0,1-.21,0,.57.57,0,0,1-.31-.74,9.78,9.78,0,0,1,18.08,0,.57.57,0,1,1-1.05.43,8.64,8.64,0,0,0-16,0A.56.56,0,0,1,5.11,23.24Z"/>
    <path class="cls-1" d="M13.63,26.76A13.13,13.13,0,1,1,26.76,13.63,13.14,13.14,0,0,1,13.63,26.76Zm0-25.13a12,12,0,1,0,12,12A12,12,0,0,0,13.63,1.63Z"/>
  </g>
</svg>
