<svg id="圖層_5" data-name="圖層 5" xmlns="http://www.w3.org/2000/svg" viewBox="0 0 24.28 24.28">
  <defs>
    <style>
      .cls-1 {
        fill: #fff;
      }
    </style>
  </defs>
  <g>
    <path class="cls-1" d="M23.21,23.78a.56.56,0,0,1-.39-.17l-6.49-6.48a.57.57,0,1,1,.8-.8l6.48,6.48a.57.57,0,0,1,0,.8A.56.56,0,0,1,23.21,23.78Z"/>
    <path class="cls-1" d="M10.24,20A9.74,9.74,0,0,1,3.35,3.35a9.75,9.75,0,0,1,13.78,0h0A9.74,9.74,0,0,1,10.24,20Zm0-18.35a8.6,8.6,0,1,0,6.09,2.52h0A8.59,8.59,0,0,0,10.24,1.63Z"/>
  </g>
</svg>
